<svg width="94" height="94" viewBox="0 0 94 94" fill="none" xmlns="http://www.w3.org/2000/svg">
<circle cx="47.2396" cy="47.2215" r="46.7656" fill="url(#paint0_radial_0_1)"/>
<g clip-path="url(#clip0_0_1)">
<path d="M47.2473 64.9305H39.493C39.1722 64.9305 39.1709 64.9305 39.1709 65.2204C39.1709 66.0037 39.1709 66.7865 39.1709 67.569C39.1794 67.6909 39.1613 67.8132 39.118 67.9275C39.0747 68.0418 39.0071 68.1454 38.9199 68.2311C38.8327 68.3168 38.7281 68.3826 38.613 68.4239C38.498 68.4653 38.3754 68.4813 38.2536 68.4708C37.0942 68.4708 35.9282 68.4708 34.7662 68.4708C34.5678 68.4708 34.3681 68.4785 34.171 68.4708C34.0525 68.4756 33.9343 68.4554 33.8242 68.4114C33.714 68.3674 33.6144 68.3007 33.5319 68.2155C33.4493 68.1304 33.3856 68.0288 33.345 67.9174C33.3044 67.806 33.2878 67.6872 33.2962 67.569C33.2962 66.7573 33.2962 65.9453 33.2962 65.1328C33.2962 64.9318 33.2962 64.9305 33.0682 64.9292C32.2269 64.9292 31.3869 64.9292 30.5457 64.9292C30.4148 64.9349 30.2842 64.9133 30.1621 64.8656C30.0401 64.8179 29.9294 64.7452 29.8371 64.6522C29.698 64.5079 29.6851 64.3263 29.631 64.1575C29.6187 64.0721 29.6187 63.9853 29.631 63.8999V46.1276C29.6205 45.9428 29.6481 45.7577 29.7121 45.584C29.7546 45.4218 29.783 45.2563 29.7972 45.0893C29.8719 44.7414 30.1167 44.5057 30.3396 44.2931C30.5624 44.0805 30.8124 43.828 31.177 43.8061C31.2014 43.8061 31.2208 43.7559 31.2452 43.7533C31.5519 43.7085 31.8606 43.6797 32.1702 43.667C33.8669 43.658 35.5649 43.667 37.2616 43.667C37.3686 43.667 37.4768 43.667 37.5837 43.667C37.6906 43.667 37.7125 43.627 37.7125 43.5381C37.7125 42.6518 37.7125 41.7659 37.7125 40.8804C37.7125 40.7979 37.7009 40.7593 37.5979 40.7374C37.4201 40.6987 37.2513 40.6214 37.0826 40.566C36.5857 40.3934 36.1182 40.1458 35.6963 39.8317C35.3276 39.5584 35.0152 39.2163 34.7765 38.8242C34.5154 38.4489 34.3255 38.0288 34.2161 37.5849C34.1607 37.3414 34.1774 37.1018 34.1336 36.866C33.9507 35.892 34.0911 34.9103 34.0499 33.9338C34.0388 33.8056 34.0579 33.6765 34.1058 33.557C34.1537 33.4375 34.229 33.3309 34.3256 33.2458C34.4673 33.0977 34.6683 33.117 34.8345 33.0371C34.8944 33.0254 34.9561 33.0254 35.0161 33.0371H41.897C42.1445 33.0271 42.3875 33.1057 42.5823 33.2587C42.6697 33.3319 42.7392 33.4239 42.7856 33.528C42.8321 33.632 42.8542 33.7452 42.8503 33.8591C42.8645 34.73 42.8503 35.6022 42.8503 36.4731C42.6931 36.9407 42.7898 37.447 42.5927 37.9173C42.4176 38.3398 42.1954 38.7413 41.9305 39.1141C41.8432 39.2451 41.7454 39.3687 41.638 39.4838C41.2451 39.8793 40.2415 40.5557 39.4827 40.6613C39.2353 40.6961 39.1877 40.7644 39.1877 40.9821C39.1877 41.8247 39.1877 42.666 39.1877 43.5085C39.1877 43.6489 39.2366 43.6747 39.3693 43.6734C41.6934 43.6734 44.0179 43.6734 46.3429 43.6734C46.5259 43.6734 46.5362 43.6116 46.5349 43.4699C46.5271 42.8798 46.5246 42.2885 46.5349 41.6971C46.531 41.4695 46.6155 41.2493 46.7706 41.0826C46.9293 40.9338 47.1357 40.8462 47.353 40.8353C47.4902 40.8262 47.6279 40.8262 47.7652 40.8353C47.8413 40.8448 47.9181 40.8239 47.9789 40.7771C48.0397 40.7303 48.0796 40.6614 48.0899 40.5853C48.0957 40.5262 48.0957 40.4667 48.0899 40.4075C48.0783 39.65 48.3475 38.9595 48.6683 38.2921C48.9062 37.8204 49.2215 37.3919 49.6011 37.0245C49.957 36.6538 50.3572 36.3284 50.7927 36.0556C50.9919 35.9213 51.2048 35.8086 51.4279 35.7194C51.6276 35.6537 51.6598 35.5519 51.6752 35.3728C51.6965 35.0515 51.7553 34.7337 51.8504 34.4259C51.9795 34.043 52.2301 33.7128 52.5642 33.4855C52.8798 33.2639 53.2302 33.0706 53.645 33.1338C53.7739 33.1518 53.8087 32.9367 53.9658 33.0693C54.0393 33.1312 54.19 33.1041 54.3034 33.1273C54.4167 33.1505 54.525 33.1814 54.6332 33.2149C55.0317 33.3427 55.3782 33.5958 55.6213 33.9364C55.8436 34.2282 55.9749 34.5791 55.9988 34.9451C56.0142 35.119 56.0735 35.3007 56.0735 35.4849C56.0735 35.6073 56.1508 35.6576 56.2564 35.6975C56.7083 35.8691 57.1278 36.1161 57.4971 36.428C57.8702 36.721 58.2048 37.0599 58.4929 37.4367C58.7268 37.7348 58.9325 38.054 59.1075 38.3901C59.3232 38.823 59.4804 39.2826 59.5751 39.757C59.6177 39.9349 59.6432 40.1165 59.6511 40.2993C59.6421 40.8082 59.6099 40.8507 60.1858 40.8391C60.3288 40.8391 60.4924 40.7773 60.6096 40.919C60.8506 40.8816 60.9742 41.062 61.0747 41.2063C61.1593 41.3504 61.2038 41.5146 61.2036 41.6817C61.2216 42.0501 61.2036 42.4199 61.2036 42.7883C61.2036 43.0254 61.2036 43.2612 61.2036 43.4969C61.2036 43.6257 61.2255 43.6799 61.3736 43.6747C61.7099 43.6644 62.0461 43.667 62.3824 43.6747C62.7457 43.6867 63.1057 43.7474 63.4529 43.8551C63.5871 43.8989 63.7142 43.9619 63.8304 44.0419C63.9916 44.1396 64.1408 44.2559 64.2749 44.3884C64.3973 44.5173 64.4449 44.7247 64.5802 44.8329C64.7155 44.9411 64.7219 45.1215 64.7657 45.2516C64.8467 45.5248 64.8828 45.8094 64.8727 46.0941C64.8778 52.0461 64.8778 57.9977 64.8727 63.9488C64.8857 64.1746 64.8305 64.399 64.7142 64.593C64.5441 64.8506 64.2594 64.9395 63.9515 64.9395C63.1102 64.9395 62.269 64.9395 61.4277 64.9395C61.2036 64.9395 61.1997 64.9395 61.1997 65.1431C61.1997 65.9556 61.1997 66.7681 61.1997 67.5805C61.2116 67.8082 61.135 68.0317 60.9858 68.2041C60.8956 68.2992 60.7856 68.3735 60.6637 68.4218C60.5418 68.4701 60.4108 68.4912 60.2798 68.4837C59.0418 68.4837 57.8024 68.4837 56.5644 68.4837C56.442 68.4837 56.3196 68.4914 56.1972 68.4837C56.0726 68.485 55.9491 68.4605 55.8345 68.4117C55.7198 68.3629 55.6166 68.2909 55.5311 68.2002C55.3834 68.0266 55.3078 67.803 55.3198 67.5754C55.3198 66.7921 55.3198 66.0092 55.3198 65.2268C55.3198 64.9382 55.3198 64.9369 54.9978 64.9369L47.2473 64.9305ZM47.2473 63.5134H62.9299C63.0368 63.5134 63.145 63.5056 63.2507 63.5134C63.3795 63.5262 63.404 63.4631 63.3963 63.3588C63.3885 63.2544 63.3963 63.181 63.3963 63.0921V54.9448C63.3963 54.6781 63.3963 54.4128 63.3963 54.1474C63.4031 54.1118 63.4023 54.0753 63.3941 54.0401C63.3858 54.0049 63.3703 53.9718 63.3484 53.943C63.3265 53.9142 63.2988 53.8903 63.2671 53.8729C63.2354 53.8555 63.2004 53.845 63.1644 53.842C62.979 53.776 62.7994 53.695 62.6271 53.5998C61.831 53.2443 61.0515 52.8578 60.1884 52.6516C59.5545 52.4958 58.9076 52.3991 58.2559 52.3631C57.6254 52.3125 56.9913 52.3302 56.3647 52.4159C55.937 52.4867 55.4989 52.5202 55.0686 52.6078C54.4725 52.7326 53.8913 52.9201 53.3346 53.167C52.7935 53.4027 52.2807 53.6939 51.7306 53.918C51.4368 54.0541 51.1316 54.164 50.8185 54.2466C50.4822 54.3187 50.1743 54.5042 49.8136 54.4733C49.355 54.6833 48.8474 54.6382 48.3656 54.7245C47.952 54.798 47.5114 54.7529 47.0837 54.7361C46.665 54.7375 46.2466 54.7164 45.8302 54.673C45.3148 54.5983 44.806 54.4926 44.2945 54.3973C43.6024 54.2502 42.9303 54.021 42.2925 53.7145C41.419 53.328 40.5726 52.8835 39.6283 52.6503C38.9948 52.493 38.3477 52.3968 37.6958 52.3631C37.0657 52.3125 36.4321 52.3302 35.8058 52.4159C35.3768 52.4854 34.9388 52.5189 34.5085 52.6104C33.9009 52.7444 33.3084 52.939 32.7397 53.1914C32.2875 53.386 31.8765 53.6655 31.3908 53.7892C31.1563 53.8485 31.0868 54.0018 31.0868 54.2362C31.0958 57.1994 31.0868 60.1715 31.0868 63.1397C31.0868 63.5121 31.0868 63.5121 31.4604 63.5121L47.2473 63.5134ZM47.237 45.0815H31.6485C31.6034 45.0815 31.5338 45.0661 31.5196 45.0815C31.3599 45.2774 31.0945 45.3766 31.0971 45.7115C31.1151 47.8681 31.1061 50.0235 31.1061 52.1788C31.1061 52.2239 31.1061 52.2677 31.1061 52.3077C31.1061 52.4365 31.1499 52.4571 31.2723 52.3953C32.1704 51.927 33.1222 51.5697 34.1066 51.3311C34.7397 51.1696 35.3868 51.0687 36.039 51.0297C37.0851 50.9923 38.1364 50.9704 39.1748 51.1868C39.4698 51.2474 39.7661 51.3092 40.0598 51.3749C40.7612 51.538 41.4406 51.7841 42.0838 52.108C42.8941 52.5048 43.7058 52.8809 44.5908 53.109C45.224 53.2677 45.8713 53.3635 46.5233 53.395C47.1538 53.4449 47.7878 53.4272 48.4145 53.3422C48.8435 53.2726 49.2828 53.2404 49.7118 53.1463C50.3206 53.0157 50.9132 52.8192 51.4794 52.5602C52.5023 52.0899 53.4892 51.5295 54.637 51.3698C54.9553 51.1817 55.3289 51.1933 55.6677 51.1121C56.0484 51.0493 56.4336 51.017 56.8194 51.0155C57.0642 51.0026 57.309 51.0155 57.5538 51.0155C57.7986 51.0155 58.0433 51.0296 58.2868 51.0155C58.5303 51.0013 58.7815 51.0876 59.0289 51.1018C59.2637 51.1069 59.4973 51.1367 59.7259 51.1907C60.0157 51.2706 60.3185 51.3066 60.6122 51.3749C61.304 51.5334 61.9456 51.8297 62.6001 52.0861C62.8217 52.1737 63.0226 52.3102 63.2378 52.4184C63.3099 52.4545 63.3859 52.4571 63.3911 52.345C63.3911 52.3012 63.3911 52.2574 63.3911 52.2162C63.3911 50.0467 63.3911 47.8759 63.3911 45.7051C63.3917 45.6332 63.3778 45.562 63.3504 45.4956C63.3229 45.4293 63.2825 45.3691 63.2313 45.3186C63.0561 45.115 62.8539 45.0764 62.5872 45.0764C57.476 45.0824 52.3589 45.0837 47.2357 45.0802L47.237 45.0815ZM53.8319 40.8301H57.6826C57.8346 40.8301 57.9879 40.8366 58.14 40.8301C58.1812 40.8301 58.2495 40.776 58.252 40.7425C58.2862 40.328 58.2425 39.9107 58.1232 39.5122C58.0137 39.1266 57.8437 38.7609 57.6195 38.4287C57.2317 37.869 56.7106 37.4147 56.1031 37.1069C55.5439 36.8208 54.9344 36.6458 54.3085 36.5916C53.9074 36.5501 53.5023 36.5684 53.1065 36.6457C52.6028 36.7353 52.113 36.8904 51.6495 37.1069C51.0053 37.4148 50.4191 37.8451 50.1035 38.3952C49.7312 39.051 49.4091 39.7389 49.4439 40.5222C49.458 40.8301 49.4439 40.8327 49.7479 40.8327L53.8319 40.8301ZM53.8538 43.6644C55.3997 43.6644 56.9457 43.6644 58.4917 43.6644C58.9001 43.6644 59.3084 43.6464 59.7168 43.6373C59.7168 43.2251 59.7259 42.8141 59.7336 42.4031C59.7336 42.3014 59.7259 42.2292 59.5906 42.2473C59.5142 42.2518 59.4376 42.2518 59.3613 42.2473H48.2573C47.9829 42.2473 47.9816 42.2473 47.9791 42.492C47.9791 42.7574 47.9791 43.0228 47.9791 43.2895C47.9791 43.6644 47.9791 43.6644 48.3501 43.6644C50.1847 43.6644 52.0188 43.6635 53.8525 43.6618L53.8538 43.6644ZM38.4353 37.2808C37.5335 37.2808 36.6316 37.2808 35.7298 37.2808C35.5894 37.2808 35.5559 37.3555 35.601 37.4393C35.6925 37.639 35.7298 37.8554 35.8587 38.0448C36.0352 38.2831 36.2529 38.4777 36.4487 38.6889C36.7476 39.0188 37.1521 39.163 37.5554 39.3189C37.7334 39.3876 37.9239 39.4178 38.1145 39.4078C38.3289 39.3922 38.5442 39.3922 38.7586 39.4078C39.1889 39.4503 39.5613 39.2532 39.9001 39.0754C40.5442 38.7353 40.9745 38.1736 41.2631 37.5153C41.334 37.3555 41.2786 37.2783 41.0969 37.277L38.4353 37.2808ZM38.4353 35.8637C39.3526 35.8637 40.2685 35.8637 41.1858 35.8637C41.3147 35.8637 41.3791 35.8534 41.3739 35.7039C41.361 35.3793 41.3739 35.0598 41.3739 34.73C41.3739 34.4453 41.3739 34.444 41.0931 34.444H37.929C37.1805 34.444 36.432 34.444 35.6835 34.444C35.5546 34.444 35.4902 34.4556 35.4954 34.6037C35.5082 34.9438 35.4954 35.2827 35.4954 35.6228C35.4954 35.8611 35.4954 35.8637 35.7298 35.8637H38.4353ZM36.2361 67.0575C36.6639 67.0575 37.0916 67.0575 37.5245 67.0575C37.6533 67.0575 37.7138 67.0446 37.7125 66.8965C37.7035 66.2922 37.7022 65.6867 37.7125 65.0825C37.7125 64.9279 37.6404 64.9253 37.5206 64.9266C36.6651 64.9266 35.811 64.9369 34.9556 64.9266C34.7572 64.9266 34.77 65.0065 34.77 65.1353C34.77 65.7112 34.77 66.2858 34.77 66.8617C34.77 67.0575 34.77 67.0588 35.0032 67.0601L36.2361 67.0575ZM58.2778 64.9305C57.8346 64.9305 57.3927 64.9305 56.9496 64.9305C56.8465 64.9305 56.7834 64.9305 56.7847 65.0671C56.7924 65.6872 56.7924 66.3064 56.7847 66.9248C56.7847 67.0614 56.8529 67.0536 56.9521 67.0536C57.8222 67.0536 58.6926 67.0536 59.5635 67.0536C59.6653 67.0536 59.7297 67.0536 59.7284 66.9171C59.7207 66.297 59.7207 65.6773 59.7284 65.058C59.7284 64.9292 59.6602 64.9292 59.561 64.9292C59.1332 64.9318 58.7055 64.9305 58.2778 64.9305ZM53.855 34.4594C53.5626 34.3473 53.426 34.5715 53.2405 34.7171C53.0924 34.833 53.1259 34.9748 53.1117 35.1139C53.1117 35.2041 53.1362 35.235 53.2405 35.2427C53.4531 35.2672 53.6451 35.1603 53.8447 35.159C54.0444 35.1577 54.2312 35.2762 54.449 35.2389C54.4631 35.2389 54.4824 35.2389 54.494 35.2389C54.5263 35.2182 54.5804 35.1938 54.5816 35.1693C54.5816 35.0546 54.6203 34.8962 54.5585 34.8305C54.3717 34.6424 54.2261 34.3461 53.855 34.4594Z" fill="white"/>
<path d="M61.1971 29.493C61.2229 29.3698 61.2663 29.2509 61.3259 29.14C61.4154 29.0247 61.5311 28.9324 61.6634 28.8708C61.8095 28.8083 61.9671 28.7771 62.1259 28.7793C62.6219 28.7896 63.0149 28.568 63.3846 28.291C63.7544 28.0141 63.9373 27.6469 64.0906 27.2475C64.146 27.1058 64.1099 26.9332 64.1267 26.7747C64.1305 26.6545 64.1584 26.5362 64.2086 26.4269C64.2588 26.3176 64.3304 26.2195 64.4191 26.1383C64.5572 26.0165 64.7379 25.9545 64.9216 25.9656C65.0425 25.9848 65.1575 26.0316 65.2573 26.1024C65.3572 26.1732 65.4394 26.2662 65.4974 26.374C65.5562 26.5162 65.5864 26.6685 65.5863 26.8224C65.5503 27.2746 65.7448 27.6495 66.0179 27.9818C66.3004 28.3554 66.7024 28.6209 67.1568 28.7342C67.3169 28.7616 67.4788 28.7767 67.6412 28.7793C67.8897 28.7777 68.1286 28.8745 68.306 29.0486C68.3846 29.1279 68.4408 29.2266 68.469 29.3346C68.4972 29.4427 68.4963 29.5563 68.4665 29.6639C68.4367 29.7715 68.379 29.8693 68.2992 29.9474C68.2194 30.0256 68.1204 30.0813 68.0122 30.1088C67.8731 30.1423 67.7546 30.2196 67.5909 30.2016C67.1259 30.1475 66.7394 30.3562 66.4031 30.6229C66.0442 30.8897 65.778 31.2623 65.6417 31.6883C65.6113 31.8584 65.5953 32.0308 65.5941 32.2036C65.5805 32.445 65.4754 32.6721 65.3003 32.8388C65.1615 32.9601 64.9808 33.0225 64.7966 33.0127C64.6756 32.9936 64.5607 32.9468 64.4608 32.8759C64.361 32.8051 64.2788 32.7121 64.2207 32.6043C64.1626 32.4619 64.1324 32.3097 64.1318 32.156C64.1679 31.7025 63.9734 31.3276 63.7003 30.9965C63.4174 30.6239 63.0163 30.3586 62.5627 30.2441C62.4026 30.2138 62.2399 30.1996 62.077 30.2016C61.9382 30.2078 61.8 30.1804 61.6742 30.1216C61.5483 30.0628 61.4385 29.9745 61.3543 29.8641C61.2875 29.747 61.2348 29.6224 61.1971 29.493ZM65.6044 29.4776C65.5845 29.4442 65.5621 29.4123 65.5374 29.3822C65.366 29.2148 65.1934 29.0473 65.0221 28.8824C64.8675 28.7368 64.8597 28.7329 64.7051 28.8824C64.508 29.0808 64.3186 29.2895 64.1318 29.493L64.691 30.0663C64.7219 30.0985 64.7502 30.1436 64.7889 30.1565C64.813 30.1666 64.8388 30.1718 64.8649 30.1718C64.891 30.1718 64.9168 30.1666 64.9409 30.1565C65.1522 29.9646 65.3544 29.77 65.558 29.5652C65.5773 29.5382 65.5929 29.5087 65.6044 29.4776Z" fill="white"/>
<path d="M29.6361 35.1513C29.5096 35.1255 29.3873 35.0821 29.2728 35.0225C29.1552 34.9402 29.0589 34.8312 28.992 34.7043C28.9258 34.5653 28.8939 34.4124 28.8992 34.2585C28.9276 33.8063 28.7292 33.434 28.4535 33.1093C28.1719 32.7554 27.7868 32.4982 27.352 32.3737C27.1774 32.3446 27.0008 32.3291 26.8238 32.3273C26.577 32.315 26.3429 32.2144 26.1641 32.0439C26.1023 31.9794 26.0543 31.9029 26.023 31.8192C25.9918 31.7354 25.978 31.6462 25.9825 31.5569C26.0054 31.4379 26.0553 31.3257 26.1283 31.229C26.2013 31.1323 26.2956 31.0536 26.4038 30.9991C26.522 30.9478 26.6486 30.9185 26.7774 30.9128C27.4486 30.9424 27.9704 30.6551 28.3903 30.1887C28.697 29.8486 28.9147 29.4544 28.8941 28.9764C28.8842 28.8485 28.9039 28.72 28.9517 28.6009C28.9995 28.4818 29.0741 28.3753 29.1698 28.2898C29.2524 28.2128 29.353 28.1578 29.4625 28.1298C29.5719 28.1019 29.6866 28.1019 29.796 28.1299C29.9054 28.1578 30.006 28.2128 30.0886 28.2899C30.1712 28.3669 30.2332 28.4634 30.2687 28.5706C30.3035 28.6994 30.3846 28.8218 30.3653 28.9764C30.3086 29.4261 30.5251 29.7997 30.8008 30.1243C31.0823 30.4786 31.4673 30.7363 31.9023 30.8612C32.0769 30.8898 32.2535 30.9053 32.4305 30.9076C32.6775 30.9169 32.9123 31.0179 33.0888 31.191C33.4663 31.5994 33.1622 32.1328 32.8041 32.2359C32.6704 32.2877 32.5287 32.3161 32.3854 32.3196C31.9164 32.2835 31.5274 32.4716 31.1885 32.7357C30.8214 33.0191 30.5173 33.3709 30.4091 33.8346C30.3774 33.9885 30.3619 34.1452 30.3627 34.3023C30.3676 34.4385 30.3383 34.5737 30.2776 34.6956C30.2168 34.8176 30.1265 34.9224 30.0149 35.0006C29.895 35.0656 29.7679 35.1162 29.6361 35.1513ZM29.6168 30.887C29.5756 30.9192 29.5395 30.9437 29.5086 30.972C29.3244 31.1485 29.144 31.3289 28.9559 31.5028C28.8709 31.5814 28.8709 31.6394 28.9559 31.718C29.144 31.8919 29.3269 32.0697 29.5073 32.25C29.582 32.3247 29.6464 32.3557 29.7302 32.2655C29.9389 32.0387 30.1502 31.8133 30.3615 31.5878L29.7289 30.9566C29.6935 30.9303 29.656 30.9071 29.6168 30.887Z" fill="white"/>
</g>
<defs>
<radialGradient id="paint0_radial_0_1" cx="0" cy="0" r="1" gradientUnits="userSpaceOnUse" gradientTransform="translate(15.8854 11.6159) rotate(50.2697) scale(155.477)">
<stop stop-color="#00E0FF"/>
<stop offset="1" stop-color="#0044F2"/>
</radialGradient>
<clipPath id="clip0_0_1">
<rect width="42.5142" height="42.5142" fill="white" transform="translate(25.9825 25.9644)"/>
</clipPath>
</defs>
</svg>
