<svg width="36" height="40" viewBox="0 0 36 40" fill="none" xmlns="http://www.w3.org/2000/svg">
<path d="M0.5 36.25C0.5 38.3203 2.17969 40 4.25 40H31.75C33.8203 40 35.5 38.3203 35.5 36.25V15H0.5V36.25ZM25.5 20.9375C25.5 20.4219 25.9219 20 26.4375 20H29.5625C30.0781 20 30.5 20.4219 30.5 20.9375V24.0625C30.5 24.5781 30.0781 25 29.5625 25H26.4375C25.9219 25 25.5 24.5781 25.5 24.0625V20.9375ZM25.5 30.9375C25.5 30.4219 25.9219 30 26.4375 30H29.5625C30.0781 30 30.5 30.4219 30.5 30.9375V34.0625C30.5 34.5781 30.0781 35 29.5625 35H26.4375C25.9219 35 25.5 34.5781 25.5 34.0625V30.9375ZM15.5 20.9375C15.5 20.4219 15.9219 20 16.4375 20H19.5625C20.0781 20 20.5 20.4219 20.5 20.9375V24.0625C20.5 24.5781 20.0781 25 19.5625 25H16.4375C15.9219 25 15.5 24.5781 15.5 24.0625V20.9375ZM15.5 30.9375C15.5 30.4219 15.9219 30 16.4375 30H19.5625C20.0781 30 20.5 30.4219 20.5 30.9375V34.0625C20.5 34.5781 20.0781 35 19.5625 35H16.4375C15.9219 35 15.5 34.5781 15.5 34.0625V30.9375ZM5.5 20.9375C5.5 20.4219 5.92188 20 6.4375 20H9.5625C10.0781 20 10.5 20.4219 10.5 20.9375V24.0625C10.5 24.5781 10.0781 25 9.5625 25H6.4375C5.92188 25 5.5 24.5781 5.5 24.0625V20.9375ZM5.5 30.9375C5.5 30.4219 5.92188 30 6.4375 30H9.5625C10.0781 30 10.5 30.4219 10.5 30.9375V34.0625C10.5 34.5781 10.0781 35 9.5625 35H6.4375C5.92188 35 5.5 34.5781 5.5 34.0625V30.9375ZM31.75 5H28V1.25C28 0.5625 27.4375 0 26.75 0H24.25C23.5625 0 23 0.5625 23 1.25V5H13V1.25C13 0.5625 12.4375 0 11.75 0H9.25C8.5625 0 8 0.5625 8 1.25V5H4.25C2.17969 5 0.5 6.67969 0.5 8.75V12.5H35.5V8.75C35.5 6.67969 33.8203 5 31.75 5Z" fill="white"/>
</svg>
