<svg width="95" height="95" viewBox="0 0 95 95" fill="none" xmlns="http://www.w3.org/2000/svg">
<circle cx="47.3366" cy="47.5312" r="46.7656" fill="url(#paint0_radial_0_1)"/>
<path d="M46.603 66.9836C45.8694 67.5649 45.2059 68.0951 44.5368 68.6184C44.0409 69.0064 43.5925 69.0041 43.2914 68.6184C43.0083 68.2635 43.0943 67.822 43.5325 67.4284C44.1745 66.8448 44.8198 66.2646 45.4856 65.6627C45.442 65.5748 45.3925 65.49 45.3372 65.409C42.9132 62.4511 40.4563 59.5227 37.5794 56.9902C37.0126 56.4924 36.4068 56.0412 35.7679 55.6409C34.7784 55.0209 33.9428 55.1733 33.1389 56.0357C31.6229 57.6614 31.2867 60.2713 32.4313 62.401C33.3257 64.0666 34.3459 65.665 35.3127 67.293C35.7656 68.0507 35.7815 68.4512 35.3694 68.7549C34.9572 69.0587 34.6244 68.9552 34.0107 68.3431C32.7449 67.0678 31.4701 65.8027 30.2145 64.5182C29.0963 63.3862 28.3428 61.9424 28.0521 60.3745C27.7613 58.8065 27.9467 57.1869 28.5841 55.7262C29.3483 53.931 30.1296 52.1437 30.8734 50.3393C30.9998 49.9895 31.0612 49.6193 31.0546 49.2472C31.0878 47.031 31.1048 44.8148 31.1055 42.5986C31.1106 42.3237 31.0367 42.0531 30.8927 41.8193C28.8185 38.8488 27.9671 35.5348 28.0905 31.9374C28.112 31.3413 28.3724 30.9943 28.8275 30.9658C29.2827 30.9374 29.5634 31.24 29.6653 31.8498C30.0661 34.264 30.9481 36.4403 32.7449 38.1662C32.8797 38.2948 33.0257 38.4108 33.1978 38.5598C34.5281 37.487 36.0158 36.9364 37.704 37.0513C37.1605 36.7794 36.557 36.5791 36.0838 36.2105C35.5583 35.8136 35.112 35.3207 34.7682 34.7577C34.4542 34.1977 34.2613 33.5774 34.2021 32.9374C34.1455 32.2974 34.2136 31.6525 34.4025 31.0387C35.0659 28.9066 37.233 27.6256 39.4238 27.9874C40.4862 28.163 41.4522 28.7117 42.1499 29.5358C42.8475 30.36 43.2315 31.4061 43.2336 32.4881C43.2461 34.95 41.6032 36.6303 38.6946 37.1127C39.203 37.322 39.7136 37.4893 40.1869 37.7327C41.1956 38.2515 41.9893 39.0195 42.6437 39.9512C43.263 40.8329 43.8722 41.7305 44.5832 42.5337C46.6619 44.8819 49.5558 45.0617 52.1078 44.0833C53.1619 43.6794 53.8468 42.8455 54.3439 41.8477C54.756 41.0184 55.1115 40.1503 55.6063 39.3733C57.0147 37.1582 58.764 36.5154 61.2899 37.2731C62.019 37.4916 62.6995 37.8772 63.483 38.2208C63.7875 37.842 64.1555 37.4142 64.4906 36.9694C66.4844 34.289 67.8193 31.2992 68.6028 28.0545C68.6877 27.7041 68.7805 27.356 68.8881 27.0136C69.0172 26.6006 69.3047 26.3696 69.7395 26.4311C70.1743 26.4925 70.3916 26.7928 70.4075 27.2274C70.5649 31.5608 70.0837 35.7919 68.2325 39.7658C67.6268 41.0673 66.8626 42.2937 66.2014 43.5702C66.0376 43.8815 65.9466 44.2262 65.9353 44.5782C65.9115 46.7761 65.9229 48.9741 65.9229 51.3394C66.9837 52.675 68.1872 54.1324 69.3285 55.6387C70.6452 57.3793 70.763 59.2565 69.7542 61.1871C69.5486 61.571 69.2885 61.9229 68.9821 62.2315C66.9124 64.3339 64.8333 66.4272 62.7448 68.5115C62.2806 68.9768 61.8617 69.0507 61.5107 68.7174C61.0918 68.3203 61.2344 67.9108 61.5107 67.4955C62.6882 65.7333 63.8747 63.9767 65.0261 62.1974C66.3757 60.112 65.3522 57.352 63.0301 56.8719C62.5059 56.7638 61.8503 56.7809 61.3839 57.0084C59.912 57.7251 58.4277 58.4612 57.0815 59.385C54.1072 61.4249 51.2122 63.5819 48.2866 65.6934C48.196 65.7583 48.119 65.8402 47.9832 65.9608C48.3285 66.4875 48.6704 67.0029 49.0022 67.5228C49.3531 68.0644 49.326 68.499 48.9331 68.7743C48.5402 69.0496 48.1406 68.9404 47.7307 68.4239C47.3673 67.9631 47.0095 67.5023 46.603 66.9836ZM39.3864 43.6327C38.7138 44.6057 38.3266 45.7488 38.2689 46.932C38.1659 48.7204 38.7954 50.3211 39.5642 51.8729C41.6417 56.071 44.1518 60.013 46.6642 63.9551C46.7475 64.07 46.8367 64.1805 46.9314 64.2861C47.0774 64.1644 47.2122 64.0654 47.331 63.9505C48.4179 62.8982 49.5207 61.8629 50.5827 60.7878C52.9603 58.3793 55.3096 55.9458 57.2457 53.1449C58.3643 51.5271 58.7798 49.7489 58.6134 47.816C58.5076 46.5997 58.1799 45.4134 57.6465 44.3165C57.4993 44.5645 57.4053 44.7204 57.3148 44.8774C56.1429 46.8956 54.4152 47.8831 52.0874 47.5532C51.1591 47.4038 50.254 47.1339 49.395 46.75C48.8181 46.4912 48.1839 46.3881 47.5552 46.4508C44.5605 46.7215 41.8637 46.0332 39.6615 43.85C39.597 43.7863 39.5189 43.7363 39.3864 43.6327ZM67.0517 62.0278C67.1977 61.8663 67.3913 61.6365 67.5962 61.4272C69.187 59.8276 69.2866 58.0528 67.8872 56.3076C66.7867 54.9333 65.6794 53.5658 64.6118 52.1676C64.4087 51.8831 64.2976 51.5427 64.2936 51.1926C64.2778 48.5225 64.3616 45.8455 64.2936 43.1811C64.2257 40.5166 62.0779 38.5587 59.4331 38.5815C58.4651 38.5906 57.6872 38.9228 57.2027 39.7715C56.6592 40.7214 56.1644 41.7055 55.6617 42.6737C54.9066 44.1322 53.7959 45.1823 52.2334 45.7215C52.1044 45.7659 51.9832 45.8353 51.8055 45.9138C53.2219 46.3518 54.6994 45.9434 55.5066 44.7659C56.0093 44.0309 56.2822 43.139 56.7011 42.3392C56.8438 42.0662 57.0736 41.7624 57.3385 41.6475C57.7088 41.4848 58.0178 41.7476 58.2182 42.0855C60.0162 45.0696 60.7759 48.229 59.7173 51.6534C59.1919 53.3599 58.088 54.7251 57 56.0767C56.0942 57.203 55.1183 58.2758 54.1695 59.3759C54.3409 59.3067 54.5045 59.2194 54.6575 59.1154C56.5517 57.9777 58.3813 56.7172 60.357 55.7524C63.2848 54.3235 66.4403 56.0027 67.0449 59.2235C67.2102 60.1165 67.0573 61.0767 67.0517 62.0278ZM41.2228 58.2508L41.2704 58.2178C41.0179 57.7763 40.7416 57.3474 40.5152 56.8935C39.4068 54.6785 38.1376 52.5237 37.2556 50.221C36.1449 47.3177 36.5989 44.5076 38.6505 42.0707C39.2166 41.3983 39.6819 41.4313 40.2163 42.1196C41.1559 43.3479 42.471 44.2321 43.9593 44.6362C44.1563 44.6908 44.3601 44.7249 44.5605 44.7693C43.2019 43.6009 42.2429 42.1742 41.2772 40.7419C40.0759 38.9558 37.9938 38.1992 36.0249 38.7646C35.0557 39.0452 34.2015 39.6306 33.5877 40.4349C32.9739 41.2392 32.6329 42.22 32.6147 43.2334C32.5626 45.3722 32.6249 47.5134 32.6147 49.6522C32.617 49.9503 32.5624 50.2461 32.454 50.5237C31.6342 52.4998 30.7738 54.4589 29.9631 56.4396C29.1026 58.5374 29.3268 60.5534 30.5213 62.4693C30.6344 62.6174 30.7562 62.7587 30.8859 62.8925C30.7387 62.4772 30.639 62.2326 30.5654 61.9823C29.8499 59.5272 30.168 57.253 31.7803 55.2245C33.0653 53.6079 34.8497 53.2825 36.6057 54.3428C37.1254 54.651 37.6179 55.0035 38.0776 55.3963C39.1475 56.3247 40.1778 57.2951 41.2228 58.2508ZM41.6757 32.4983C41.6772 31.704 41.3663 30.9413 40.8107 30.3764C40.2551 29.8115 39.4997 29.4901 38.7093 29.4823C38.3132 29.481 37.9207 29.5581 37.5542 29.7092C37.1878 29.8604 36.8545 30.0826 36.5736 30.3632C36.2926 30.6439 36.0695 30.9773 35.9169 31.3447C35.7642 31.712 35.6852 32.1059 35.6841 32.504C35.6853 33.2977 35.9985 34.0589 36.5556 34.6216C37.1127 35.1844 37.8685 35.5032 38.6584 35.5086C39.0542 35.5141 39.447 35.44 39.8139 35.2908C40.1808 35.1416 40.5143 34.9202 40.7949 34.6397C41.0754 34.3591 41.2974 34.0251 41.4476 33.6572C41.5979 33.2892 41.6736 32.8949 41.67 32.4972L41.6757 32.4983ZM65.6523 41.4461C67.0826 39.0035 68.0543 36.3176 68.519 33.5222C67.2358 35.5056 65.9421 37.5071 64.6378 39.5269L65.6523 41.4461ZM31.7667 40.3892C31.9445 40.0843 32.0441 39.916 32.0826 39.85L30.8983 38.5689L30.8258 38.6088C31.118 39.1617 31.4089 39.7146 31.7667 40.3892ZM59.0266 35.5404C58.431 35.5396 57.8415 35.4201 57.2922 35.1889C56.7428 34.9576 56.2446 34.6193 55.8262 34.1934C55.4078 33.7674 55.0775 33.2624 54.8546 32.7074C54.6316 32.1525 54.5204 31.5586 54.5273 30.9602C54.5272 30.3568 54.6466 29.7594 54.8784 29.2028C55.1102 28.6461 55.4499 28.1414 55.8777 27.7179C56.3054 27.2945 56.8127 26.9607 57.37 26.7361C57.9274 26.5114 58.5236 26.4004 59.124 26.4094C60.3164 26.4291 61.4536 26.9177 62.2914 27.7705C63.1293 28.6232 63.601 29.7721 63.6052 30.9704C63.6084 31.5742 63.492 32.1727 63.2627 32.7309C63.0334 33.289 62.6959 33.7958 62.2697 34.2216C61.8436 34.6473 61.3373 34.9836 60.7806 35.2108C60.2238 35.4381 59.6276 35.5516 59.0266 35.545V35.5404ZM59.0266 27.9738C58.2342 27.9798 57.4765 28.3014 56.9197 28.8681C56.363 29.4348 56.0527 30.2003 56.0569 30.9966C56.061 31.3955 56.1434 31.7896 56.2994 32.1565C56.4553 32.5233 56.6818 32.8556 56.9657 33.1344C57.2497 33.4132 57.5856 33.6329 57.9542 33.7811C58.3228 33.9292 58.7169 34.0029 59.1138 33.9978C59.5064 33.9901 59.8935 33.9047 60.2533 33.7466C60.613 33.5886 60.9382 33.3608 61.2103 33.0764C61.4824 32.792 61.6961 32.4565 61.8391 32.0891C61.9821 31.7217 62.0518 31.3296 62.0439 30.9351C62.0404 30.5416 61.9594 30.1526 61.8057 29.7907C61.652 29.4287 61.4285 29.1009 61.1481 28.8261C60.8678 28.5512 60.5361 28.3349 60.1722 28.1894C59.8083 28.0439 59.4194 27.9721 59.0278 27.9783L59.0266 27.9738Z" fill="white"/>
<defs>
<radialGradient id="paint0_radial_0_1" cx="0" cy="0" r="1" gradientUnits="userSpaceOnUse" gradientTransform="translate(15.9824 11.9256) rotate(48.6033) scale(149.478)">
<stop stop-color="#00E0FF"/>
<stop offset="1" stop-color="#0044F2"/>
</radialGradient>
</defs>
</svg>
