<svg width="95" height="95" viewBox="0 0 95 95" fill="none" xmlns="http://www.w3.org/2000/svg">
<circle cx="47.3707" cy="47.5312" r="46.7656" fill="url(#paint0_radial_0_1)"/>
<path d="M43.9812 54.5739V51.983C43.9812 51.6996 43.9543 51.3949 44.4065 51.2545C44.8587 51.1142 45.2187 51.2687 45.5263 51.5167C47.8695 53.3989 50.2211 55.2754 52.5529 57.1661C52.7658 57.3547 52.936 57.5867 53.0519 57.8464C54.1561 60.0248 55.2278 62.2117 56.3547 64.383C56.5248 64.7104 56.9217 64.9811 57.2279 65.266C57.2874 65.3212 57.4419 65.3241 57.5525 65.3496C57.5808 65.256 57.6574 65.154 57.6305 65.0661C57.4119 64.4455 57.3925 63.7721 57.5752 63.14C57.7733 62.4637 58.1464 61.8517 58.6567 61.3656C58.9218 61.1119 58.9828 60.9021 58.824 60.5974C58.0855 59.1801 57.4065 57.7444 56.6609 56.3242C56.4873 56.031 56.2615 55.7721 55.9946 55.5603C55.4702 55.1096 54.9258 54.6688 54.3461 54.255C53.7663 53.8411 53.8457 53.4287 54.1774 53.2359C54.5403 53.0233 55.035 53.1183 55.5169 53.4925C56.0301 53.8921 56.5177 54.3102 57.0521 54.6957C57.5856 55.0813 58.012 55.5964 58.291 56.1924C58.8453 57.3376 59.425 58.4785 59.992 59.6194C60.2755 60.1864 60.2755 60.1779 61.0268 59.9313C64.3906 58.8272 68.2561 59.8632 69.6737 62.25C70.8573 64.2342 69.882 66.526 67.3277 67.7533C64.8697 68.9354 61.4407 68.7072 59.3442 67.1949C58.88 66.8372 58.3223 66.6211 57.7382 66.5727C56.281 66.431 55.3483 65.7705 54.8606 64.7954C53.8599 62.797 52.8478 60.8029 51.8739 58.7988C51.5904 58.2105 51.1711 57.698 50.6506 57.3036C49.1679 56.1527 47.7334 54.9721 46.2691 53.8099C46.0771 53.6832 45.8746 53.5732 45.6638 53.4811C45.6213 53.6441 45.5938 53.8106 45.5816 53.9786C45.5958 55.0175 45.6695 56.0578 45.6227 57.0967C45.6062 57.6052 45.4571 58.1005 45.1904 58.5338C43.6651 60.9163 42.0718 63.2789 40.5126 65.6515C40.0051 66.4211 39.224 66.9667 38.0489 67.1722C36.5832 67.4288 35.306 67.151 34.3407 66.3318C33.3754 65.5126 33.2209 64.5644 33.8403 63.5921C34.7461 62.1748 35.6987 60.7689 36.6286 59.3587C36.9915 58.8102 37.3047 58.2418 37.7229 57.716C38.1959 57.143 38.4282 56.4088 38.3707 55.668C38.2771 54.0891 38.3083 52.506 38.2091 50.9271C38.0914 49.0322 38.5266 47.1741 38.8257 45.3047C38.9774 44.3594 39.1432 43.4155 39.2892 42.4701C39.2947 42.3215 39.2804 42.1728 39.2467 42.0279C39.0554 42.069 38.8583 42.1002 38.6797 42.1541C38.0438 42.3183 37.4976 42.7254 37.1587 43.2879C36.3323 44.589 35.4577 45.8745 34.5547 47.1529C33.5625 48.5702 31.1952 49.0549 29.3468 48.2399C27.7989 47.5554 27.2134 46.1679 28.0129 44.9334C28.9159 43.5373 29.8727 42.1583 30.8026 40.7722C32.1917 38.7001 31.9735 38.9467 34.5944 37.8724C36.4684 37.1042 38.3565 36.3545 40.2446 35.6047C41.1178 35.2575 41.9683 34.8592 42.8954 34.6126C43.5482 34.4259 44.2341 34.3848 44.9045 34.4923C45.5749 34.5998 46.2135 34.8533 46.7751 35.2348C48.0013 36.0738 49.1098 36.9993 50.275 37.8837C51.5507 38.8475 52.8081 39.8169 54.1108 40.7594C54.4247 40.9507 54.7728 41.0792 55.1356 41.1379C57.1513 41.5508 59.1755 41.9533 61.2083 42.3454C62.1892 42.5339 63.0156 42.8613 63.5812 43.4722C64.4019 44.3594 64.3906 45.472 63.5585 46.3493C62.7264 47.2266 61.2635 47.639 59.7 47.3952C58.8382 47.2535 57.999 47.0678 57.1485 46.8992C55.3568 46.5434 53.5707 46.1749 51.7733 45.8348C50.9355 45.6994 50.1461 45.3525 49.4798 44.8271C49.0999 44.5167 48.6944 44.2233 48.289 43.9285C48.0722 43.7726 47.9304 43.8137 47.8638 44.0306C47.6341 44.8583 47.4045 45.686 47.155 46.5108C47.0756 46.7787 47.2316 46.9644 47.4711 47.15C48.0481 47.5965 48.6051 48.0514 49.1807 48.505C49.3051 48.5959 49.423 48.6953 49.5336 48.8026C49.7689 49.0506 49.7505 49.3001 49.45 49.5113C49.1495 49.7224 48.7894 49.7069 48.4421 49.5609C48.3464 49.513 48.2574 49.453 48.1771 49.3823C47.3625 48.7388 46.5479 48.094 45.7333 47.4477C45.4809 47.2478 45.325 47.048 45.4186 46.7475C45.8325 45.4181 46.2124 44.083 46.6036 42.7493C46.6277 42.6643 46.6305 42.5764 46.6617 42.4928C46.8814 41.9004 47.5434 41.7544 48.1558 42.1937C49.0134 42.8089 49.8355 43.4495 50.6577 44.0901C51.1079 44.4321 51.6341 44.6601 52.1915 44.7548C54.6622 45.2353 57.1216 45.7469 59.5909 46.2217C60.002 46.3126 60.4235 46.3474 60.844 46.3252C61.7937 46.2472 62.4869 45.72 62.5776 45.0907C62.6839 44.3551 62.2019 43.7684 61.1927 43.5246C60.3011 43.3077 59.3783 43.1533 58.4696 42.9704C57.0337 42.687 55.6006 42.3822 54.1561 42.113C53.7422 42.0412 53.3525 41.8679 53.0221 41.6084C51.2928 40.2662 49.5492 38.934 47.8156 37.5946C47.199 37.1184 46.5965 36.6337 45.9827 36.1546C45.5551 35.8284 45.05 35.6188 44.517 35.5465C43.984 35.4742 43.4413 35.5417 42.9422 35.7422C40.8641 36.56 38.8215 37.4217 36.7661 38.2664C35.8688 38.6363 34.9786 39.0133 34.0728 39.3747C33.5789 39.5491 33.1531 39.8756 32.8566 40.3073C31.7651 41.9528 30.6382 43.5841 29.5608 45.2339C29.3568 45.5242 29.2488 45.8711 29.2518 46.226C29.2887 46.834 29.9606 47.3201 30.7757 47.4548C31.6843 47.6036 32.5135 47.3839 32.9983 46.8283C33.2366 46.5337 33.4559 46.2241 33.6546 45.9014C34.4584 44.7109 35.2663 43.5232 36.0516 42.3256C36.3084 41.933 36.6884 41.6368 37.1318 41.4837C38.0177 41.1464 38.8682 40.7623 39.7528 40.4221C40.6373 40.082 41.1958 40.3116 41.1008 41.033C40.9293 42.3256 40.7663 43.621 40.4686 44.9008C39.6337 48.4908 39.7372 52.1021 39.93 55.7148C40.0003 56.5123 39.7853 57.3088 39.3233 57.9626C38.0347 59.8051 36.8398 61.676 35.6108 63.5369C35.4509 63.7647 35.3087 64.0044 35.1855 64.254C34.8666 64.9627 35.3089 65.6798 36.2331 66.0015C37.1176 66.3105 38.1652 66.1348 38.769 65.5593C38.9197 65.4048 39.0524 65.2336 39.1645 65.0491C40.6713 62.7814 42.1668 60.5038 43.6793 58.2347C43.9417 57.8716 44.0782 57.4326 44.0677 56.9847C44.0379 56.1839 44.0592 55.3831 44.0592 54.5753L43.9812 54.5739ZM68.5907 63.9947C68.5907 62.1366 66.429 60.5931 63.8292 60.5931C61.1927 60.5931 59.0423 62.1026 59.0253 63.9564C59.0097 65.8428 61.1898 67.4018 63.8307 67.3905C66.4389 67.3863 68.5921 65.8471 68.5907 63.9947Z" fill="white"/>
<path d="M49.5223 34.281C46.0239 34.4128 43.5333 32.1409 43.6651 30.0291C43.8069 27.7416 46.4208 25.9515 49.7222 25.9926C52.9484 26.0323 55.439 27.9301 55.4277 30.2715C55.4149 32.7262 52.1362 34.5503 49.5223 34.281ZM49.5478 27.1095C47.1465 27.1095 45.3378 28.4446 45.2556 30.1552C45.1918 31.4861 46.6632 33.2138 49.6059 33.2365C51.9547 33.2535 53.8868 31.8107 53.8698 30.1453C53.8528 28.48 51.9207 27.1052 49.5478 27.1095Z" fill="white"/>
<path d="M52.4874 51.3211C52.4874 51.6357 52.204 51.8539 51.7788 51.8624C51.3154 51.8709 50.9781 51.63 50.9951 51.2956C51.0121 50.9612 51.3168 50.7855 51.7561 50.7911C52.1955 50.7968 52.4846 51.0065 52.4874 51.3211Z" fill="white"/>
<defs>
<radialGradient id="paint0_radial_0_1" cx="0" cy="0" r="1" gradientUnits="userSpaceOnUse" gradientTransform="translate(16.0165 11.9256) rotate(48.0775) scale(139.99)">
<stop stop-color="#00E0FF"/>
<stop offset="1" stop-color="#0044F2"/>
</radialGradient>
</defs>
</svg>
