<svg width="95" height="94" viewBox="0 0 95 94" fill="none" xmlns="http://www.w3.org/2000/svg">
<circle cx="47.3366" cy="47.2215" r="46.7656" fill="url(#paint0_radial_0_1)"/>
<path d="M47.0098 34.8215C45.3654 34.8215 43.7885 35.4747 42.6257 36.6375C41.463 37.8002 40.8098 39.3772 40.8098 41.0215C40.8098 42.6659 41.463 44.2428 42.6257 45.4056C43.7885 46.5683 45.3654 47.2215 47.0098 47.2215C48.6541 47.2215 50.2311 46.5683 51.3938 45.4056C52.5566 44.2428 53.2098 42.6659 53.2098 41.0215C53.2098 39.3772 52.5566 37.8002 51.3938 36.6375C50.2311 35.4747 48.6541 34.8215 47.0098 34.8215ZM47.0098 38.3644C47.7145 38.3644 48.3904 38.6443 48.8887 39.1426C49.387 39.6409 49.6669 40.3168 49.6669 41.0215C49.6669 41.7262 49.387 42.4021 48.8887 42.9004C48.3904 43.3987 47.7145 43.6787 47.0098 43.6787C46.3051 43.6787 45.6292 43.3987 45.1309 42.9004C44.6326 42.4021 44.3526 41.7262 44.3526 41.0215C44.3526 40.3168 44.6326 39.6409 45.1309 39.1426C45.6292 38.6443 46.3051 38.3644 47.0098 38.3644ZM35.4955 40.1358C34.321 40.1358 33.1946 40.6024 32.3641 41.4329C31.5336 42.2634 31.067 43.3898 31.067 44.5644C31.067 46.2295 32.0058 47.6644 33.3521 48.4261C33.9898 48.7804 34.7161 48.9929 35.4955 48.9929C36.275 48.9929 37.0012 48.7804 37.639 48.4261C38.2944 48.0541 38.8435 47.5226 39.2509 46.8849C37.9604 45.2031 37.2628 43.1414 37.267 41.0215V40.5255C36.7355 40.2775 36.1332 40.1358 35.4955 40.1358ZM58.524 40.1358C57.8863 40.1358 57.284 40.2775 56.7526 40.5255V41.0215C56.7526 43.1472 56.0618 45.2021 54.7686 46.8849C54.9812 47.2215 55.2115 47.4872 55.4772 47.7529C56.2941 48.5449 57.3862 48.9894 58.524 48.9929C59.3035 48.9929 60.0297 48.7804 60.6675 48.4261C62.0137 47.6644 62.9526 46.2295 62.9526 44.5644C62.9526 43.3898 62.486 42.2634 61.6555 41.4329C60.825 40.6024 59.6986 40.1358 58.524 40.1358ZM47.0098 50.7643C42.8647 50.7643 34.6098 52.8369 34.6098 56.9643V59.6215H59.4098V56.9643C59.4098 52.8369 51.1549 50.7643 47.0098 50.7643ZM34.0961 51.7386C30.6773 52.1461 25.7527 53.8821 25.7527 56.9643V59.6215H31.067V56.2026C31.067 54.4135 32.2893 52.9255 34.0961 51.7386ZM59.9235 51.7386C61.7303 52.9255 62.9526 54.4135 62.9526 56.2026V59.6215H68.2669V56.9643C68.2669 53.8821 63.3423 52.1461 59.9235 51.7386ZM47.0098 54.3072C49.7201 54.3072 52.7492 55.1929 54.5029 56.0786H39.5167C41.2704 55.1929 44.2995 54.3072 47.0098 54.3072Z" fill="white"/>
<defs>
<radialGradient id="paint0_radial_0_1" cx="0" cy="0" r="1" gradientUnits="userSpaceOnUse" gradientTransform="translate(15.9824 11.6159) rotate(48.6033) scale(149.478)">
<stop stop-color="#00E0FF"/>
<stop offset="1" stop-color="#0044F2"/>
</radialGradient>
</defs>
</svg>
