<svg width="515" height="506" viewBox="0 0 515 506" fill="none" xmlns="http://www.w3.org/2000/svg">
<g filter="url(#filter0_d_0_1)">
<rect x="100" y="96.6903" width="314.932" height="305.039" rx="45" fill="white"/>
</g>
<path d="M149.775 263.248V280H146.415V272.872H139.239V280H135.879V263.248H139.239V270.136H146.415V263.248H149.775ZM154.786 265.12C154.194 265.12 153.698 264.936 153.298 264.568C152.914 264.184 152.722 263.712 152.722 263.152C152.722 262.592 152.914 262.128 153.298 261.76C153.698 261.376 154.194 261.184 154.786 261.184C155.378 261.184 155.866 261.376 156.25 261.76C156.65 262.128 156.85 262.592 156.85 263.152C156.85 263.712 156.65 264.184 156.25 264.568C155.866 264.936 155.378 265.12 154.786 265.12ZM156.442 266.704V280H153.082V266.704H156.442ZM163.121 268.768C163.553 268.064 164.113 267.512 164.801 267.112C165.505 266.712 166.305 266.512 167.201 266.512V270.04H166.313C165.257 270.04 164.457 270.288 163.913 270.784C163.385 271.28 163.121 272.144 163.121 273.376V280H159.761V266.704H163.121V268.768ZM171.169 265.12C170.577 265.12 170.081 264.936 169.681 264.568C169.297 264.184 169.105 263.712 169.105 263.152C169.105 262.592 169.297 262.128 169.681 261.76C170.081 261.376 170.577 261.184 171.169 261.184C171.761 261.184 172.249 261.376 172.633 261.76C173.033 262.128 173.233 262.592 173.233 263.152C173.233 263.712 173.033 264.184 172.633 264.568C172.249 264.936 171.761 265.12 171.169 265.12ZM172.825 266.704V280H169.465V266.704H172.825ZM183.512 266.512C185.096 266.512 186.376 267.016 187.352 268.024C188.328 269.016 188.816 270.408 188.816 272.2V280H185.456V272.656C185.456 271.6 185.192 270.792 184.664 270.232C184.136 269.656 183.416 269.368 182.504 269.368C181.576 269.368 180.84 269.656 180.296 270.232C179.768 270.792 179.504 271.6 179.504 272.656V280H176.144V266.704H179.504V268.36C179.952 267.784 180.52 267.336 181.208 267.016C181.912 266.68 182.68 266.512 183.512 266.512ZM197.219 266.488C198.211 266.488 199.083 266.688 199.835 267.088C200.587 267.472 201.179 267.976 201.611 268.6V266.704H204.995V280.096C204.995 281.328 204.747 282.424 204.251 283.384C203.755 284.36 203.011 285.128 202.019 285.688C201.027 286.264 199.827 286.552 198.419 286.552C196.531 286.552 194.979 286.112 193.763 285.232C192.563 284.352 191.883 283.152 191.723 281.632H195.059C195.235 282.24 195.611 282.72 196.187 283.072C196.779 283.44 197.491 283.624 198.323 283.624C199.299 283.624 200.091 283.328 200.699 282.736C201.307 282.16 201.611 281.28 201.611 280.096V278.032C201.179 278.656 200.579 279.176 199.811 279.592C199.059 280.008 198.195 280.216 197.219 280.216C196.099 280.216 195.075 279.928 194.147 279.352C193.219 278.776 192.483 277.968 191.939 276.928C191.411 275.872 191.147 274.664 191.147 273.304C191.147 271.96 191.411 270.768 191.939 269.728C192.483 268.688 193.211 267.888 194.123 267.328C195.051 266.768 196.083 266.488 197.219 266.488ZM201.611 273.352C201.611 272.536 201.451 271.84 201.131 271.264C200.811 270.672 200.379 270.224 199.835 269.92C199.291 269.6 198.707 269.44 198.083 269.44C197.459 269.44 196.883 269.592 196.355 269.896C195.827 270.2 195.395 270.648 195.059 271.24C194.739 271.816 194.579 272.504 194.579 273.304C194.579 274.104 194.739 274.808 195.059 275.416C195.395 276.008 195.827 276.464 196.355 276.784C196.899 277.104 197.475 277.264 198.083 277.264C198.707 277.264 199.291 277.112 199.835 276.808C200.379 276.488 200.811 276.04 201.131 275.464C201.451 274.872 201.611 274.168 201.611 273.352ZM219.9 280.216C218.62 280.216 217.468 279.936 216.444 279.376C215.42 278.8 214.612 277.992 214.02 276.952C213.444 275.912 213.156 274.712 213.156 273.352C213.156 271.992 213.452 270.792 214.044 269.752C214.652 268.712 215.476 267.912 216.516 267.352C217.556 266.776 218.716 266.488 219.996 266.488C221.276 266.488 222.436 266.776 223.476 267.352C224.516 267.912 225.332 268.712 225.924 269.752C226.532 270.792 226.836 271.992 226.836 273.352C226.836 274.712 226.524 275.912 225.9 276.952C225.292 277.992 224.46 278.8 223.404 279.376C222.364 279.936 221.196 280.216 219.9 280.216ZM219.9 277.288C220.508 277.288 221.076 277.144 221.604 276.856C222.148 276.552 222.58 276.104 222.9 275.512C223.22 274.92 223.38 274.2 223.38 273.352C223.38 272.088 223.044 271.12 222.372 270.448C221.716 269.76 220.908 269.416 219.948 269.416C218.988 269.416 218.18 269.76 217.524 270.448C216.884 271.12 216.564 272.088 216.564 273.352C216.564 274.616 216.876 275.592 217.5 276.28C218.14 276.952 218.94 277.288 219.9 277.288ZM232.661 268.624C233.093 268.016 233.685 267.512 234.437 267.112C235.205 266.696 236.077 266.488 237.053 266.488C238.189 266.488 239.213 266.768 240.125 267.328C241.053 267.888 241.781 268.688 242.309 269.728C242.853 270.752 243.125 271.944 243.125 273.304C243.125 274.664 242.853 275.872 242.309 276.928C241.781 277.968 241.053 278.776 240.125 279.352C239.213 279.928 238.189 280.216 237.053 280.216C236.077 280.216 235.213 280.016 234.461 279.616C233.725 279.216 233.125 278.712 232.661 278.104V286.336H229.301V266.704H232.661V268.624ZM239.693 273.304C239.693 272.504 239.525 271.816 239.189 271.24C238.869 270.648 238.437 270.2 237.893 269.896C237.365 269.592 236.789 269.44 236.165 269.44C235.557 269.44 234.981 269.6 234.437 269.92C233.909 270.224 233.477 270.672 233.141 271.264C232.821 271.856 232.661 272.552 232.661 273.352C232.661 274.152 232.821 274.848 233.141 275.44C233.477 276.032 233.909 276.488 234.437 276.808C234.981 277.112 235.557 277.264 236.165 277.264C236.789 277.264 237.365 277.104 237.893 276.784C238.437 276.464 238.869 276.008 239.189 275.416C239.525 274.824 239.693 274.12 239.693 273.304ZM248.926 268.624C249.358 268.016 249.95 267.512 250.702 267.112C251.47 266.696 252.342 266.488 253.318 266.488C254.454 266.488 255.478 266.768 256.39 267.328C257.318 267.888 258.046 268.688 258.574 269.728C259.118 270.752 259.39 271.944 259.39 273.304C259.39 274.664 259.118 275.872 258.574 276.928C258.046 277.968 257.318 278.776 256.39 279.352C255.478 279.928 254.454 280.216 253.318 280.216C252.342 280.216 251.478 280.016 250.726 279.616C249.99 279.216 249.39 278.712 248.926 278.104V286.336H245.566V266.704H248.926V268.624ZM255.958 273.304C255.958 272.504 255.79 271.816 255.454 271.24C255.134 270.648 254.702 270.2 254.158 269.896C253.63 269.592 253.054 269.44 252.43 269.44C251.822 269.44 251.246 269.6 250.702 269.92C250.174 270.224 249.742 270.672 249.406 271.264C249.086 271.856 248.926 272.552 248.926 273.352C248.926 274.152 249.086 274.848 249.406 275.44C249.742 276.032 250.174 276.488 250.702 276.808C251.246 277.112 251.822 277.264 252.43 277.264C253.054 277.264 253.63 277.104 254.158 276.784C254.702 276.464 255.134 276.008 255.454 275.416C255.79 274.824 255.958 274.12 255.958 273.304ZM267.736 280.216C266.456 280.216 265.304 279.936 264.28 279.376C263.256 278.8 262.448 277.992 261.856 276.952C261.28 275.912 260.992 274.712 260.992 273.352C260.992 271.992 261.288 270.792 261.88 269.752C262.488 268.712 263.312 267.912 264.352 267.352C265.392 266.776 266.552 266.488 267.832 266.488C269.112 266.488 270.272 266.776 271.312 267.352C272.352 267.912 273.168 268.712 273.76 269.752C274.368 270.792 274.672 271.992 274.672 273.352C274.672 274.712 274.36 275.912 273.736 276.952C273.128 277.992 272.296 278.8 271.24 279.376C270.2 279.936 269.032 280.216 267.736 280.216ZM267.736 277.288C268.344 277.288 268.912 277.144 269.44 276.856C269.984 276.552 270.416 276.104 270.736 275.512C271.056 274.92 271.216 274.2 271.216 273.352C271.216 272.088 270.88 271.12 270.208 270.448C269.552 269.76 268.744 269.416 267.784 269.416C266.824 269.416 266.016 269.76 265.36 270.448C264.72 271.12 264.4 272.088 264.4 273.352C264.4 274.616 264.712 275.592 265.336 276.28C265.976 276.952 266.776 277.288 267.736 277.288ZM280.496 268.768C280.928 268.064 281.488 267.512 282.176 267.112C282.88 266.712 283.68 266.512 284.576 266.512V270.04H283.688C282.632 270.04 281.832 270.288 281.288 270.784C280.76 271.28 280.496 272.144 280.496 273.376V280H277.136V266.704H280.496V268.768ZM290.752 269.464V275.896C290.752 276.344 290.856 276.672 291.064 276.88C291.288 277.072 291.656 277.168 292.168 277.168H293.728V280H291.616C288.784 280 287.368 278.624 287.368 275.872V269.464H285.784V266.704H287.368V263.416H290.752V266.704H293.728V269.464H290.752ZM308.696 266.704V280H305.312V278.32C304.88 278.896 304.312 279.352 303.608 279.688C302.92 280.008 302.168 280.168 301.352 280.168C300.312 280.168 299.392 279.952 298.592 279.52C297.792 279.072 297.16 278.424 296.696 277.576C296.248 276.712 296.024 275.688 296.024 274.504V266.704H299.384V274.024C299.384 275.08 299.648 275.896 300.176 276.472C300.704 277.032 301.424 277.312 302.336 277.312C303.264 277.312 303.992 277.032 304.52 276.472C305.048 275.896 305.312 275.08 305.312 274.024V266.704H308.696ZM319.379 266.512C320.963 266.512 322.243 267.016 323.219 268.024C324.195 269.016 324.683 270.408 324.683 272.2V280H321.323V272.656C321.323 271.6 321.059 270.792 320.531 270.232C320.003 269.656 319.283 269.368 318.371 269.368C317.443 269.368 316.707 269.656 316.163 270.232C315.635 270.792 315.371 271.6 315.371 272.656V280H312.011V266.704H315.371V268.36C315.819 267.784 316.387 267.336 317.075 267.016C317.779 266.68 318.547 266.512 319.379 266.512ZM329.583 265.12C328.991 265.12 328.495 264.936 328.095 264.568C327.711 264.184 327.519 263.712 327.519 263.152C327.519 262.592 327.711 262.128 328.095 261.76C328.495 261.376 328.991 261.184 329.583 261.184C330.175 261.184 330.663 261.376 331.047 261.76C331.447 262.128 331.647 262.592 331.647 263.152C331.647 263.712 331.447 264.184 331.047 264.568C330.663 264.936 330.175 265.12 329.583 265.12ZM331.239 266.704V280H327.879V266.704H331.239ZM338.47 269.464V275.896C338.47 276.344 338.574 276.672 338.782 276.88C339.006 277.072 339.374 277.168 339.886 277.168H341.446V280H339.334C336.502 280 335.086 278.624 335.086 275.872V269.464H333.502V266.704H335.086V263.416H338.47V266.704H341.446V269.464H338.47ZM345.567 265.12C344.975 265.12 344.479 264.936 344.079 264.568C343.695 264.184 343.503 263.712 343.503 263.152C343.503 262.592 343.695 262.128 344.079 261.76C344.479 261.376 344.975 261.184 345.567 261.184C346.159 261.184 346.647 261.376 347.031 261.76C347.431 262.128 347.631 262.592 347.631 263.152C347.631 263.712 347.431 264.184 347.031 264.568C346.647 264.936 346.159 265.12 345.567 265.12ZM347.223 266.704V280H343.863V266.704H347.223ZM362.903 273.064C362.903 273.544 362.871 273.976 362.807 274.36H353.087C353.167 275.32 353.503 276.072 354.095 276.616C354.687 277.16 355.415 277.432 356.279 277.432C357.527 277.432 358.415 276.896 358.943 275.824H362.567C362.183 277.104 361.447 278.16 360.359 278.992C359.271 279.808 357.935 280.216 356.351 280.216C355.071 280.216 353.919 279.936 352.895 279.376C351.887 278.8 351.095 277.992 350.519 276.952C349.959 275.912 349.679 274.712 349.679 273.352C349.679 271.976 349.959 270.768 350.519 269.728C351.079 268.688 351.863 267.888 352.871 267.328C353.879 266.768 355.039 266.488 356.351 266.488C357.615 266.488 358.743 266.76 359.735 267.304C360.743 267.848 361.519 268.624 362.063 269.632C362.623 270.624 362.903 271.768 362.903 273.064ZM359.423 272.104C359.407 271.24 359.095 270.552 358.487 270.04C357.879 269.512 357.135 269.248 356.255 269.248C355.423 269.248 354.719 269.504 354.143 270.016C353.583 270.512 353.239 271.208 353.111 272.104H359.423ZM370.443 280.216C369.355 280.216 368.379 280.024 367.515 279.64C366.651 279.24 365.963 278.704 365.451 278.032C364.955 277.36 364.683 276.616 364.635 275.8H368.019C368.083 276.312 368.331 276.736 368.763 277.072C369.211 277.408 369.763 277.576 370.419 277.576C371.059 277.576 371.555 277.448 371.907 277.192C372.275 276.936 372.459 276.608 372.459 276.208C372.459 275.776 372.235 275.456 371.787 275.248C371.355 275.024 370.659 274.784 369.699 274.528C368.707 274.288 367.891 274.04 367.251 273.784C366.627 273.528 366.083 273.136 365.619 272.608C365.171 272.08 364.947 271.368 364.947 270.472C364.947 269.736 365.155 269.064 365.571 268.456C366.003 267.848 366.611 267.368 367.395 267.016C368.195 266.664 369.131 266.488 370.203 266.488C371.787 266.488 373.051 266.888 373.995 267.688C374.939 268.472 375.459 269.536 375.555 270.88H372.339C372.291 270.352 372.067 269.936 371.667 269.632C371.283 269.312 370.763 269.152 370.107 269.152C369.499 269.152 369.027 269.264 368.691 269.488C368.371 269.712 368.211 270.024 368.211 270.424C368.211 270.872 368.435 271.216 368.883 271.456C369.331 271.68 370.027 271.912 370.971 272.152C371.931 272.392 372.723 272.64 373.347 272.896C373.971 273.152 374.507 273.552 374.955 274.096C375.419 274.624 375.659 275.328 375.675 276.208C375.675 276.976 375.459 277.664 375.027 278.272C374.611 278.88 374.003 279.36 373.203 279.712C372.419 280.048 371.499 280.216 370.443 280.216ZM197.881 305.464V311.896C197.881 312.344 197.985 312.672 198.193 312.88C198.417 313.072 198.785 313.168 199.297 313.168H200.857V316H198.745C195.913 316 194.497 314.624 194.497 311.872V305.464H192.913V302.704H194.497V299.416H197.881V302.704H200.857V305.464H197.881ZM209.177 316.216C207.897 316.216 206.745 315.936 205.721 315.376C204.697 314.8 203.889 313.992 203.297 312.952C202.721 311.912 202.433 310.712 202.433 309.352C202.433 307.992 202.729 306.792 203.321 305.752C203.929 304.712 204.753 303.912 205.793 303.352C206.833 302.776 207.993 302.488 209.273 302.488C210.553 302.488 211.713 302.776 212.753 303.352C213.793 303.912 214.609 304.712 215.201 305.752C215.809 306.792 216.113 307.992 216.113 309.352C216.113 310.712 215.801 311.912 215.177 312.952C214.569 313.992 213.737 314.8 212.681 315.376C211.641 315.936 210.473 316.216 209.177 316.216ZM209.177 313.288C209.785 313.288 210.353 313.144 210.881 312.856C211.425 312.552 211.857 312.104 212.177 311.512C212.497 310.92 212.657 310.2 212.657 309.352C212.657 308.088 212.321 307.12 211.649 306.448C210.993 305.76 210.185 305.416 209.225 305.416C208.265 305.416 207.457 305.76 206.801 306.448C206.161 307.12 205.841 308.088 205.841 309.352C205.841 310.616 206.153 311.592 206.777 312.28C207.417 312.952 208.217 313.288 209.177 313.288ZM230.081 316.168C228.913 316.168 227.857 315.968 226.913 315.568C225.985 315.168 225.249 314.592 224.705 313.84C224.161 313.088 223.881 312.2 223.865 311.176H227.465C227.513 311.864 227.753 312.408 228.185 312.808C228.633 313.208 229.241 313.408 230.009 313.408C230.793 313.408 231.409 313.224 231.857 312.856C232.305 312.472 232.529 311.976 232.529 311.368C232.529 310.872 232.377 310.464 232.073 310.144C231.769 309.824 231.385 309.576 230.921 309.4C230.473 309.208 229.849 309 229.049 308.776C227.961 308.456 227.073 308.144 226.385 307.84C225.713 307.52 225.129 307.048 224.633 306.424C224.153 305.784 223.913 304.936 223.913 303.88C223.913 302.888 224.161 302.024 224.657 301.288C225.153 300.552 225.849 299.992 226.745 299.608C227.641 299.208 228.665 299.008 229.817 299.008C231.545 299.008 232.945 299.432 234.017 300.28C235.105 301.112 235.705 302.28 235.817 303.784H232.121C232.089 303.208 231.841 302.736 231.377 302.368C230.929 301.984 230.329 301.792 229.577 301.792C228.921 301.792 228.393 301.96 227.993 302.296C227.609 302.632 227.417 303.12 227.417 303.76C227.417 304.208 227.561 304.584 227.849 304.888C228.153 305.176 228.521 305.416 228.953 305.608C229.401 305.784 230.025 305.992 230.825 306.232C231.913 306.552 232.801 306.872 233.489 307.192C234.177 307.512 234.769 307.992 235.265 308.632C235.761 309.272 236.009 310.112 236.009 311.152C236.009 312.048 235.777 312.88 235.313 313.648C234.849 314.416 234.169 315.032 233.273 315.496C232.377 315.944 231.313 316.168 230.081 316.168ZM242.834 305.464V311.896C242.834 312.344 242.938 312.672 243.146 312.88C243.37 313.072 243.738 313.168 244.25 313.168H245.81V316H243.698C240.866 316 239.45 314.624 239.45 311.872V305.464H237.866V302.704H239.45V299.416H242.834V302.704H245.81V305.464H242.834ZM260.778 302.704V316H257.394V314.32C256.962 314.896 256.394 315.352 255.69 315.688C255.002 316.008 254.25 316.168 253.434 316.168C252.394 316.168 251.474 315.952 250.674 315.52C249.874 315.072 249.242 314.424 248.778 313.576C248.33 312.712 248.106 311.688 248.106 310.504V302.704H251.466V310.024C251.466 311.08 251.73 311.896 252.258 312.472C252.786 313.032 253.506 313.312 254.418 313.312C255.346 313.312 256.074 313.032 256.602 312.472C257.13 311.896 257.394 311.08 257.394 310.024V302.704H260.778ZM263.229 309.304C263.229 307.96 263.493 306.768 264.021 305.728C264.566 304.688 265.302 303.888 266.23 303.328C267.158 302.768 268.19 302.488 269.326 302.488C270.19 302.488 271.014 302.68 271.798 303.064C272.582 303.432 273.206 303.928 273.67 304.552V298.24H277.078V316H273.67V314.032C273.254 314.688 272.67 315.216 271.918 315.616C271.166 316.016 270.294 316.216 269.302 316.216C268.182 316.216 267.158 315.928 266.23 315.352C265.302 314.776 264.566 313.968 264.021 312.928C263.493 311.872 263.229 310.664 263.229 309.304ZM273.694 309.352C273.694 308.536 273.534 307.84 273.214 307.264C272.894 306.672 272.462 306.224 271.918 305.92C271.374 305.6 270.79 305.44 270.166 305.44C269.542 305.44 268.966 305.592 268.438 305.896C267.91 306.2 267.478 306.648 267.142 307.24C266.822 307.816 266.662 308.504 266.662 309.304C266.662 310.104 266.822 310.808 267.142 311.416C267.478 312.008 267.91 312.464 268.438 312.784C268.982 313.104 269.558 313.264 270.166 313.264C270.79 313.264 271.374 313.112 271.918 312.808C272.462 312.488 272.894 312.04 273.214 311.464C273.534 310.872 273.694 310.168 273.694 309.352ZM292.719 309.064C292.719 309.544 292.687 309.976 292.623 310.36H282.903C282.983 311.32 283.319 312.072 283.911 312.616C284.503 313.16 285.231 313.432 286.095 313.432C287.343 313.432 288.231 312.896 288.759 311.824H292.383C291.999 313.104 291.263 314.16 290.175 314.992C289.087 315.808 287.751 316.216 286.167 316.216C284.887 316.216 283.735 315.936 282.711 315.376C281.703 314.8 280.911 313.992 280.335 312.952C279.775 311.912 279.495 310.712 279.495 309.352C279.495 307.976 279.775 306.768 280.335 305.728C280.895 304.688 281.679 303.888 282.687 303.328C283.695 302.768 284.855 302.488 286.167 302.488C287.431 302.488 288.559 302.76 289.551 303.304C290.559 303.848 291.335 304.624 291.879 305.632C292.439 306.624 292.719 307.768 292.719 309.064ZM289.239 308.104C289.223 307.24 288.911 306.552 288.303 306.04C287.695 305.512 286.951 305.248 286.071 305.248C285.239 305.248 284.535 305.504 283.959 306.016C283.399 306.512 283.055 307.208 282.927 308.104H289.239ZM302.54 302.512C304.124 302.512 305.404 303.016 306.38 304.024C307.356 305.016 307.844 306.408 307.844 308.2V316H304.484V308.656C304.484 307.6 304.22 306.792 303.692 306.232C303.164 305.656 302.444 305.368 301.532 305.368C300.604 305.368 299.868 305.656 299.324 306.232C298.796 306.792 298.532 307.6 298.532 308.656V316H295.172V302.704H298.532V304.36C298.98 303.784 299.548 303.336 300.236 303.016C300.94 302.68 301.708 302.512 302.54 302.512ZM314.951 305.464V311.896C314.951 312.344 315.055 312.672 315.263 312.88C315.487 313.072 315.855 313.168 316.367 313.168H317.927V316H315.815C312.983 316 311.567 314.624 311.567 311.872V305.464H309.983V302.704H311.567V299.416H314.951V302.704H317.927V305.464H314.951ZM183.203 343.6C183.203 341.952 183.571 340.48 184.307 339.184C185.059 337.872 186.075 336.856 187.355 336.136C188.651 335.4 190.099 335.032 191.699 335.032C193.571 335.032 195.211 335.512 196.619 336.472C198.027 337.432 199.011 338.76 199.571 340.456H195.707C195.323 339.656 194.779 339.056 194.075 338.656C193.387 338.256 192.587 338.056 191.675 338.056C190.699 338.056 189.827 338.288 189.059 338.752C188.307 339.2 187.715 339.84 187.283 340.672C186.867 341.504 186.659 342.48 186.659 343.6C186.659 344.704 186.867 345.68 187.283 346.528C187.715 347.36 188.307 348.008 189.059 348.472C189.827 348.92 190.699 349.144 191.675 349.144C192.587 349.144 193.387 348.944 194.075 348.544C194.779 348.128 195.323 347.52 195.707 346.72H199.571C199.011 348.432 198.027 349.768 196.619 350.728C195.227 351.672 193.587 352.144 191.699 352.144C190.099 352.144 188.651 351.784 187.355 351.064C186.075 350.328 185.059 349.312 184.307 348.016C183.571 346.72 183.203 345.248 183.203 343.6ZM208.345 352.216C207.065 352.216 205.913 351.936 204.889 351.376C203.865 350.8 203.057 349.992 202.465 348.952C201.889 347.912 201.601 346.712 201.601 345.352C201.601 343.992 201.897 342.792 202.489 341.752C203.097 340.712 203.921 339.912 204.961 339.352C206.001 338.776 207.161 338.488 208.441 338.488C209.721 338.488 210.881 338.776 211.921 339.352C212.961 339.912 213.777 340.712 214.369 341.752C214.977 342.792 215.281 343.992 215.281 345.352C215.281 346.712 214.969 347.912 214.345 348.952C213.737 349.992 212.905 350.8 211.849 351.376C210.809 351.936 209.641 352.216 208.345 352.216ZM208.345 349.288C208.953 349.288 209.521 349.144 210.049 348.856C210.593 348.552 211.025 348.104 211.345 347.512C211.665 346.92 211.825 346.2 211.825 345.352C211.825 344.088 211.489 343.12 210.817 342.448C210.161 341.76 209.353 341.416 208.393 341.416C207.433 341.416 206.625 341.76 205.969 342.448C205.329 343.12 205.009 344.088 205.009 345.352C205.009 346.616 205.321 347.592 205.945 348.28C206.585 348.952 207.385 349.288 208.345 349.288ZM234.258 338.512C235.89 338.512 237.202 339.016 238.194 340.024C239.202 341.016 239.706 342.408 239.706 344.2V352H236.346V344.656C236.346 343.616 236.082 342.824 235.554 342.28C235.026 341.72 234.306 341.44 233.394 341.44C232.482 341.44 231.754 341.72 231.21 342.28C230.682 342.824 230.418 343.616 230.418 344.656V352H227.058V344.656C227.058 343.616 226.794 342.824 226.266 342.28C225.738 341.72 225.018 341.44 224.106 341.44C223.178 341.44 222.442 341.72 221.898 342.28C221.37 342.824 221.106 343.616 221.106 344.656V352H217.746V338.704H221.106V340.312C221.538 339.752 222.09 339.312 222.762 338.992C223.45 338.672 224.202 338.512 225.018 338.512C226.058 338.512 226.986 338.736 227.802 339.184C228.618 339.616 229.25 340.24 229.698 341.056C230.13 340.288 230.754 339.672 231.57 339.208C232.402 338.744 233.298 338.512 234.258 338.512ZM259.406 338.512C261.038 338.512 262.35 339.016 263.342 340.024C264.35 341.016 264.854 342.408 264.854 344.2V352H261.494V344.656C261.494 343.616 261.23 342.824 260.702 342.28C260.174 341.72 259.454 341.44 258.542 341.44C257.63 341.44 256.902 341.72 256.358 342.28C255.83 342.824 255.566 343.616 255.566 344.656V352H252.206V344.656C252.206 343.616 251.942 342.824 251.414 342.28C250.886 341.72 250.166 341.44 249.254 341.44C248.326 341.44 247.59 341.72 247.046 342.28C246.518 342.824 246.254 343.616 246.254 344.656V352H242.894V338.704H246.254V340.312C246.686 339.752 247.238 339.312 247.91 338.992C248.598 338.672 249.35 338.512 250.166 338.512C251.206 338.512 252.134 338.736 252.95 339.184C253.766 339.616 254.398 340.24 254.846 341.056C255.278 340.288 255.902 339.672 256.718 339.208C257.55 338.744 258.446 338.512 259.406 338.512ZM280.595 338.704V352H277.211V350.32C276.779 350.896 276.211 351.352 275.507 351.688C274.819 352.008 274.067 352.168 273.251 352.168C272.211 352.168 271.291 351.952 270.491 351.52C269.691 351.072 269.059 350.424 268.595 349.576C268.147 348.712 267.923 347.688 267.923 346.504V338.704H271.283V346.024C271.283 347.08 271.547 347.896 272.075 348.472C272.603 349.032 273.323 349.312 274.235 349.312C275.163 349.312 275.891 349.032 276.419 348.472C276.947 347.896 277.211 347.08 277.211 346.024V338.704H280.595ZM291.278 338.512C292.862 338.512 294.142 339.016 295.118 340.024C296.094 341.016 296.582 342.408 296.582 344.2V352H293.222V344.656C293.222 343.6 292.958 342.792 292.43 342.232C291.902 341.656 291.182 341.368 290.27 341.368C289.342 341.368 288.606 341.656 288.062 342.232C287.534 342.792 287.27 343.6 287.27 344.656V352H283.91V338.704H287.27V340.36C287.718 339.784 288.286 339.336 288.974 339.016C289.678 338.68 290.446 338.512 291.278 338.512ZM301.481 337.12C300.889 337.12 300.393 336.936 299.993 336.568C299.609 336.184 299.417 335.712 299.417 335.152C299.417 334.592 299.609 334.128 299.993 333.76C300.393 333.376 300.889 333.184 301.481 333.184C302.073 333.184 302.561 333.376 302.945 333.76C303.345 334.128 303.545 334.592 303.545 335.152C303.545 335.712 303.345 336.184 302.945 336.568C302.561 336.936 302.073 337.12 301.481 337.12ZM303.137 338.704V352H299.777V338.704H303.137ZM310.369 341.464V347.896C310.369 348.344 310.473 348.672 310.681 348.88C310.905 349.072 311.273 349.168 311.785 349.168H313.345V352H311.233C308.401 352 306.985 350.624 306.985 347.872V341.464H305.401V338.704H306.985V335.416H310.369V338.704H313.345V341.464H310.369ZM328.481 338.704L320.249 358.288H316.673L319.553 351.664L314.225 338.704H317.993L321.425 347.992L324.905 338.704H328.481Z" fill="black"/>
<circle cx="257.302" cy="190.222" r="46.7656" fill="url(#paint0_radial_0_1)"/>
<g clip-path="url(#clip0_0_1)">
<path d="M265.318 197.76C265.465 198.664 265.599 199.503 265.737 200.34C265.924 201.471 266.113 202.601 266.304 203.731C266.382 204.17 266.298 204.529 266.022 204.861C262.885 208.639 259.105 210.857 254.613 211.368C251.346 211.739 248.143 211.457 245.041 210.115C242.413 208.979 240.189 207.132 238.25 204.781C238.002 204.48 237.966 204.134 238.025 203.755C238.555 200.353 239.067 196.952 239.627 193.556C239.896 191.932 240.741 190.792 242.055 190.182C243.964 189.297 245.883 188.443 247.8 187.58C248.355 187.332 248.65 187.46 248.981 188.049C249.748 189.427 250.787 190.272 252.237 190.214C253.562 190.164 254.537 189.351 255.294 188.134C255.758 187.393 255.95 187.312 256.686 187.651C257.672 188.102 258.657 188.554 259.642 189.006C259.757 189.059 259.874 189.101 260.005 189.154C260.04 188.454 260.05 187.779 260.11 187.111C260.516 182.641 263.698 178.864 267.513 178.311C272.306 177.615 276.541 181.326 277.273 186.892C277.556 188.956 277.265 191.058 276.43 192.967C276.303 193.26 276.328 193.422 276.522 193.645C277.628 194.921 278.725 196.207 279.815 197.502C281.105 199.042 280.541 201.574 278.773 202.141C277.922 202.412 277.14 202.192 276.503 201.456C275.399 200.177 274.302 198.891 273.214 197.596C273.006 197.348 272.859 197.311 272.574 197.473C270.306 198.769 267.985 198.905 265.61 197.882C265.54 197.851 265.469 197.823 265.318 197.76ZM242.569 206.715L242.709 206.598V206.166C242.709 204.613 242.709 203.06 242.709 201.506C242.709 200.81 243.006 200.404 243.505 200.404C244.005 200.404 244.291 200.817 244.291 201.518C244.291 203.337 244.291 205.156 244.291 206.977C244.291 207.75 244.291 207.75 244.903 208.054C247.616 209.405 250.461 209.805 253.378 209.63C255.575 209.498 257.695 208.97 259.711 207.905C259.949 207.78 260.044 207.634 260.042 207.314C260.028 205.362 260.026 203.409 260.047 201.457C260.057 201.174 260.142 200.9 260.295 200.662C260.5 200.353 260.829 200.332 261.129 200.474C261.466 200.634 261.617 200.966 261.617 201.39V206.609C261.69 206.602 261.721 206.609 261.735 206.597C262.671 205.723 263.61 204.855 264.532 203.961C264.625 203.871 264.662 203.612 264.635 203.45C264.278 201.229 263.909 199.011 263.529 196.796C263.502 196.633 263.428 196.483 263.316 196.362C261.989 195.1 261.044 193.526 260.481 191.638C260.435 191.487 260.335 191.359 260.2 191.277C258.999 190.707 257.792 190.151 256.58 189.609C256.499 189.572 256.34 189.588 256.292 189.655C255.665 190.54 254.828 191.256 253.856 191.738C253.892 192.002 253.923 192.234 253.958 192.466C254.4 195.326 254.85 198.191 255.272 201.059C255.311 201.355 255.257 201.656 255.118 201.92C254.379 203.136 253.61 204.327 252.837 205.514C252.451 206.105 251.881 206.099 251.501 205.514C250.739 204.336 249.974 203.161 249.243 201.958C249.091 201.682 249.028 201.367 249.063 201.055C249.358 198.971 249.691 196.895 250.011 194.816C250.165 193.802 250.32 192.789 250.466 191.833C249.991 191.508 249.538 191.26 249.152 190.916C248.765 190.572 248.428 190.1 248.047 189.718C247.957 189.628 247.751 189.608 247.632 189.661C245.994 190.384 244.363 191.13 242.727 191.863C241.807 192.275 241.285 193.055 241.121 194.183C241.034 194.779 240.938 195.375 240.845 195.97C240.458 198.455 240.067 200.939 239.69 203.426C239.665 203.591 239.69 203.849 239.78 203.943C240.7 204.883 241.641 205.795 242.569 206.715ZM268.705 180.085C264.791 180.081 261.629 183.779 261.625 188.364C261.625 192.97 264.788 196.701 268.7 196.703C272.599 196.703 275.779 192.984 275.786 188.411C275.795 183.801 272.638 180.089 268.705 180.085ZM252.167 203.471C252.678 202.669 253.153 201.925 253.617 201.179C253.663 201.075 253.675 200.96 253.653 200.848C253.226 198.058 252.795 195.269 252.359 192.482C252.337 192.343 252.24 192.221 252.179 192.09C252.107 192.224 251.994 192.349 251.971 192.493C251.535 195.267 251.108 198.041 250.688 200.817C250.663 200.957 250.683 201.1 250.744 201.228C251.193 201.958 251.658 202.674 252.167 203.471ZM274.318 196.235C274.319 196.252 274.325 196.268 274.335 196.282C275.429 197.57 276.519 198.863 277.622 200.141C277.936 200.504 278.415 200.473 278.711 200.121C278.859 199.941 278.94 199.715 278.941 199.483C278.942 199.25 278.863 199.024 278.717 198.842C278.365 198.398 277.989 197.982 277.626 197.551C276.883 196.67 276.143 195.786 275.441 194.95C275.039 195.406 274.684 195.816 274.318 196.235Z" fill="white"/>
<path d="M258.526 177.136C258.563 181.141 257.046 184.189 254.38 186.519C252.953 187.765 251.466 187.768 250 186.563C249.693 186.323 249.402 186.062 249.13 185.781C247.464 183.976 246.252 181.827 245.949 179.158C245.742 177.331 245.768 175.465 246.151 173.649C246.669 171.19 248.069 169.836 250.131 169.277C251.977 168.777 253.759 168.954 255.5 169.798C257.185 170.615 257.974 172.24 258.283 174.229C258.435 175.185 258.45 176.166 258.526 177.136ZM247.397 177.111C247.434 177.756 247.409 178.448 247.523 179.108C247.952 181.602 249.14 183.535 250.858 185.028C251.777 185.825 252.493 185.814 253.434 185.059C254.679 184.059 255.606 182.719 256.239 181.127C257.215 178.671 257.081 176.125 256.499 173.597C256.234 172.447 255.523 171.691 254.539 171.325C253.32 170.871 252.082 170.706 250.812 170.97C248.887 171.367 247.879 172.494 247.574 174.691C247.464 175.476 247.455 176.279 247.397 177.111Z" fill="white"/>
</g>
<defs>
<filter id="filter0_d_0_1" x="0" y="0.690308" width="514.932" height="505.039" filterUnits="userSpaceOnUse" color-interpolation-filters="sRGB">
<feFlood flood-opacity="0" result="BackgroundImageFix"/>
<feColorMatrix in="SourceAlpha" type="matrix" values="0 0 0 0 0 0 0 0 0 0 0 0 0 0 0 0 0 0 127 0" result="hardAlpha"/>
<feOffset dy="4"/>
<feGaussianBlur stdDeviation="50"/>
<feComposite in2="hardAlpha" operator="out"/>
<feColorMatrix type="matrix" values="0 0 0 0 0 0 0 0 0 0 0 0 0 0 0 0 0 0 0.15 0"/>
<feBlend mode="normal" in2="BackgroundImageFix" result="effect1_dropShadow_0_1"/>
<feBlend mode="normal" in="SourceGraphic" in2="effect1_dropShadow_0_1" result="shape"/>
</filter>
<radialGradient id="paint0_radial_0_1" cx="0" cy="0" r="1" gradientUnits="userSpaceOnUse" gradientTransform="translate(225.948 154.616) rotate(48.0775) scale(139.99)">
<stop stop-color="#00E0FF"/>
<stop offset="1" stop-color="#0044F2"/>
</radialGradient>
<clipPath id="clip0_0_1">
<rect width="42.52" height="42.52" fill="white" transform="translate(238 169)"/>
</clipPath>
</defs>
</svg>
