<svg width="95" height="94" viewBox="0 0 95 94" fill="none" xmlns="http://www.w3.org/2000/svg">
<circle cx="47.3024" cy="47.2215" r="46.7656" fill="url(#paint0_radial_0_1)"/>
<g clip-path="url(#clip0_0_1)">
<path d="M55.318 54.7598C55.4648 55.6643 55.5986 56.5031 55.737 57.3403C55.9241 58.4706 56.1132 59.6009 56.3044 60.7311C56.3817 61.1702 56.2982 61.5289 56.0222 61.8614C52.885 65.6395 49.1054 67.8575 44.613 68.3677C41.3459 68.7388 38.143 68.4566 35.0413 67.1153C32.4128 65.9789 30.1886 64.1319 28.2497 61.781C28.0016 61.4802 27.966 61.1339 28.0248 60.7551C28.5551 57.3535 29.0669 53.9519 29.6274 50.5557C29.8956 48.9322 30.7406 47.7919 32.0549 47.1819C33.9644 46.2967 35.8832 45.4432 37.7997 44.5805C38.3548 44.3315 38.6501 44.4599 38.981 45.049C39.7479 46.4274 40.7869 47.2716 42.2373 47.2136C43.5623 47.1641 44.5372 46.3509 45.2941 45.134C45.7579 44.3926 45.9496 44.3122 46.6856 44.6508C47.6716 45.1023 48.657 45.5541 49.6419 46.0061C49.7571 46.0586 49.8739 46.1011 50.0053 46.1537C50.0401 45.4541 50.0501 44.7792 50.1104 44.1112C50.5155 39.6412 53.6983 35.8639 57.5128 35.3111C62.3059 34.6153 66.5409 38.3262 67.273 43.8924C67.5563 45.9561 67.2647 48.058 66.4304 49.9666C66.3028 50.2604 66.3283 50.4219 66.5224 50.6454C67.6279 51.9215 68.7254 53.2071 69.815 54.5023C71.1053 56.0415 70.5409 58.5742 68.7728 59.1409C67.9224 59.4122 67.1401 59.1919 66.503 58.4559C65.3986 57.1772 64.3021 55.8905 63.2135 54.5959C63.0064 54.3485 62.8587 54.3106 62.5742 54.4729C60.3065 55.7692 57.9851 55.9055 55.6102 54.8819C55.5398 54.851 55.4687 54.8232 55.318 54.7598ZM32.569 63.7153L32.7089 63.5977V63.1664C32.7089 61.6135 32.7089 60.0601 32.7089 58.5062C32.7089 57.8104 33.0058 57.4037 33.5052 57.4037C34.0046 57.4037 34.2907 57.8173 34.2914 58.5178C34.2914 60.3366 34.2914 62.1562 34.2914 63.9765C34.2914 64.7496 34.2914 64.7496 34.903 65.0542C37.6165 66.4048 40.4607 66.8045 43.3783 66.6298C45.5755 66.4984 47.6953 65.9696 49.7107 64.905C49.9488 64.7798 50.0439 64.6345 50.0416 64.3144C50.0277 62.3616 50.0262 60.4087 50.047 58.4567C50.0566 58.1742 50.1423 57.8996 50.2952 57.6619C50.5001 57.3527 50.8286 57.3318 51.1286 57.4741C51.4657 57.6341 51.6172 57.9658 51.6172 58.3902V63.6086C51.6898 63.6024 51.7208 63.6086 51.7355 63.597C52.6709 62.7234 53.6102 61.8552 54.5317 60.9615C54.6253 60.871 54.6616 60.6121 54.6353 60.4505C54.2782 58.2291 53.9094 56.0109 53.529 53.7957C53.5024 53.6334 53.4284 53.4825 53.3164 53.362C51.9893 52.1003 51.0441 50.5255 50.4807 48.6377C50.4348 48.4871 50.3349 48.3588 50.2001 48.2774C48.9987 47.7074 47.7922 47.1513 46.5805 46.6091C46.4985 46.572 46.3401 46.5882 46.2921 46.6547C45.6649 47.5399 44.8279 48.2558 43.8561 48.7382C43.8925 49.0018 43.9226 49.2345 43.9582 49.4656C44.3996 52.3261 44.8503 55.1911 45.2724 58.0585C45.3114 58.3547 45.2574 58.6557 45.1178 58.9198C44.3795 60.1358 43.6103 61.3272 42.8372 62.5139C42.4506 63.1053 41.8809 63.0991 41.5013 62.5139C40.739 61.3357 39.9737 60.1606 39.2431 58.9576C39.0913 58.6825 39.0283 58.367 39.063 58.0547C39.3583 55.9712 39.6907 53.8947 40.0108 51.8158C40.1654 50.8023 40.32 49.7888 40.4661 48.8332C39.9914 48.5078 39.5384 48.2604 39.1519 47.9164C38.7653 47.5723 38.4282 47.1 38.0471 46.7181C37.9567 46.6284 37.751 46.6083 37.632 46.6609C35.9938 47.3845 34.3626 48.1297 32.7275 48.8634C31.8075 49.2755 31.2849 50.0547 31.121 51.1827C31.0344 51.7795 30.9378 52.3748 30.845 52.9701C30.4585 55.4548 30.0673 57.9387 29.69 60.4257C29.6653 60.5912 29.69 60.8494 29.7797 60.9429C30.6997 61.883 31.6413 62.7953 32.569 63.7153ZM58.7049 37.0854C54.7907 37.0807 51.6288 40.7792 51.6249 45.3644C51.6249 49.9697 54.7884 53.7014 58.7002 53.7029C62.5989 53.7029 65.7787 49.9836 65.7864 45.4108C65.7949 40.8008 62.6376 37.0892 58.7049 37.0854ZM42.1669 60.4714C42.6779 59.6689 43.1534 58.9252 43.6172 58.1791C43.6627 58.0751 43.6752 57.9596 43.6528 57.8483C43.226 55.0579 42.7947 52.2691 42.3586 49.4819C42.337 49.3427 42.2404 49.2206 42.1785 49.0899C42.1074 49.2244 41.9937 49.3489 41.9713 49.4935C41.5353 52.2668 41.1075 55.0414 40.688 57.8173C40.6635 57.9566 40.6829 58.1001 40.7437 58.2278C41.1928 58.9584 41.6582 59.6743 42.1669 60.4714ZM64.3175 53.2352C64.319 53.252 64.3252 53.2681 64.3353 53.2816C65.4292 54.5704 66.5193 55.863 67.6217 57.1409C67.9356 57.5042 68.4149 57.4733 68.711 57.1208C68.8586 56.9407 68.9398 56.7154 68.941 56.4825C68.9421 56.2497 68.8631 56.0236 68.7172 55.8421C68.3654 55.3983 67.9889 54.9824 67.6263 54.551C66.8834 53.6697 66.1428 52.7861 65.4408 51.9503C65.0388 52.4057 64.684 52.8162 64.3175 53.2352Z" fill="white"/>
<path d="M48.5256 34.136C48.5627 38.1414 47.0459 41.1889 44.3795 43.519C42.9531 44.7652 41.4665 44.7683 39.9999 43.563C39.6925 43.3227 39.4019 43.0615 39.1302 42.7814C37.4642 40.9755 36.252 38.8271 35.9489 36.1584C35.7418 34.3308 35.768 32.4645 36.1507 30.6486C36.6687 28.1901 38.0688 26.8357 40.1314 26.2775C41.9767 25.7773 43.7595 25.9543 45.4997 26.7978C47.185 27.6149 47.9736 29.24 48.2828 31.2291C48.4351 32.1855 48.4498 33.1657 48.5256 34.136ZM37.3969 34.1112C37.4341 34.756 37.4093 35.4479 37.523 36.1081C37.952 38.6021 39.1403 40.5348 40.8581 42.0277C41.7765 42.8247 42.4932 42.8139 43.434 42.0586C44.6795 41.059 45.6064 39.7192 46.2388 38.1274C47.2152 35.6713 47.0815 33.1248 46.4993 30.5968C46.2341 29.4472 45.5229 28.6911 44.5388 28.3246C43.3196 27.8708 42.0819 27.7062 40.8117 27.9698C38.8867 28.3672 37.8794 29.4943 37.574 31.6915C37.4642 32.4761 37.4549 33.2794 37.3969 34.1112Z" fill="white"/>
</g>
<defs>
<radialGradient id="paint0_radial_0_1" cx="0" cy="0" r="1" gradientUnits="userSpaceOnUse" gradientTransform="translate(15.9483 11.6159) rotate(48.0775) scale(139.99)">
<stop stop-color="#00E0FF"/>
<stop offset="1" stop-color="#0044F2"/>
</radialGradient>
<clipPath id="clip0_0_1">
<rect width="42.52" height="42.52" fill="white" transform="translate(28 26)"/>
</clipPath>
</defs>
</svg>
