<svg width="94" height="95" viewBox="0 0 94 95" fill="none" xmlns="http://www.w3.org/2000/svg">
<circle cx="46.7656" cy="47.5312" r="46.7656" fill="url(#paint0_radial_0_1)"/>
<g clip-path="url(#clip0_0_1)">
<path d="M42.1525 36.902C41.7709 36.3525 41.3893 35.8025 41.0006 35.2547C39.25 32.7721 37.4993 30.29 35.7483 27.8082C35.4616 27.401 35.5259 27.0249 35.9059 26.7485C36.2618 26.4901 36.7159 26.4901 37.1847 26.7588C37.5832 26.9878 37.9665 27.2364 38.3726 27.4566C39.6689 28.1598 41.235 28.1222 42.5155 27.4048C43.216 27.0129 43.9083 26.5648 44.6879 26.3227C46.5053 25.7585 48.2726 25.9313 49.89 26.8629C50.2438 27.0663 50.5823 27.2876 50.9432 27.4811C52.1823 28.1456 53.7893 28.1184 55.0033 27.4217C55.4749 27.1491 55.9301 26.8531 56.4207 26.6138C56.787 26.4356 57.2008 26.3195 57.6036 26.1979C58.025 26.0703 58.4131 26.127 58.7146 26.4219C58.9806 26.682 58.9931 27.0445 58.75 27.389C57.5987 29.0244 56.4465 30.6583 55.2934 32.2908C54.2358 33.791 53.1799 35.289 52.1316 36.7772C52.7743 37.1179 53.4328 37.4314 54.0428 37.7988C55.5098 38.6841 56.5117 39.8817 57.4063 41.1649C59.9934 44.8756 62.621 48.5667 65.2196 52.2719C66.0242 53.4167 66.9209 54.5397 67.5429 55.7526C69.3244 59.225 68.6261 62.4527 65.7347 65.3425C63.9865 67.0901 61.6626 68.073 58.9463 68.4181C58.3412 68.4877 57.7324 68.5199 57.1233 68.5146C51.6888 68.5218 46.254 68.5218 40.8191 68.5146C39.3778 68.5146 37.9343 68.5326 36.4951 68.4808C34.0601 68.393 31.8959 67.6794 30.0397 66.3913C27.8303 64.8589 26.5057 62.8959 26.1088 60.5481C25.7905 58.6668 26.1404 56.8472 27.2678 55.1747C28.5619 53.2542 29.9204 51.3632 31.2576 49.4618C33.369 46.4592 35.4836 43.4579 37.6012 40.4579C38.6718 38.9435 40.1502 37.771 42.0505 36.9631C42.0859 36.9451 42.1199 36.9247 42.1525 36.902ZM47.2478 66.9582C50.5082 66.9582 53.7686 66.9664 57.029 66.9511C57.7135 66.9475 58.3969 66.8967 59.0744 66.799C64.1642 66.0664 67.5669 61.7294 66.3246 57.5967C65.9975 56.5065 65.3346 55.5536 64.6581 54.5985C61.5781 50.2426 58.5072 45.8825 55.4454 41.5182C54.3503 39.9531 52.8681 38.7609 50.8118 38.0779C50.6474 38.0228 50.4751 37.9944 50.3016 37.9939C48.1749 38.0081 46.0489 38.0275 43.9236 38.0523C43.7936 38.0546 43.6648 38.0776 43.542 38.1204C41.7873 38.7506 40.3759 39.7193 39.399 41.0701C38.0907 42.8717 36.8277 44.6935 35.5477 46.5077C33.4653 49.4609 31.3837 52.4144 29.3027 55.3682C27.7704 57.5411 27.4798 59.7991 28.6017 62.1551C29.9749 65.0383 33.4026 66.9599 37.1706 66.9604L47.2478 66.9582ZM55.344 29.0882C53.5996 29.6633 52.0318 29.6878 50.584 29.1018C49.9255 28.8347 49.3378 28.4476 48.7267 28.1058C48.2432 27.8273 47.7074 27.6512 47.1529 27.5886C46.5983 27.5261 46.0369 27.5784 45.5034 27.7422C44.925 27.9134 44.3935 28.2252 43.8931 28.531C42.6649 29.2795 41.3179 29.6327 39.7883 29.4861C39.5757 29.4654 39.3625 29.4507 39.1434 29.4316C39.1499 29.4692 39.1467 29.4894 39.1565 29.503C40.7555 31.7733 42.3524 34.0446 43.9471 36.3171C44.0495 36.4632 44.1765 36.4839 44.3543 36.4806C46.2055 36.4581 48.0566 36.4399 49.9075 36.4261C50.1086 36.4261 50.2193 36.3749 50.3223 36.2266C51.3652 34.7308 52.4205 33.2404 53.4715 31.7484C54.0848 30.8778 54.697 30.0078 55.344 29.0882Z" fill="white"/>
<path d="M48.2756 45.8432C49.3871 45.9036 50.4881 46.0895 51.5578 46.3976C52.0915 46.5513 52.2354 46.7181 52.2365 47.1842C52.2365 47.9937 52.2397 48.8027 52.2365 49.6117C52.2332 50.2162 51.7644 50.4735 51.0917 50.2446C50.1083 49.9063 49.085 49.6977 48.0477 49.6242C47.4767 49.5767 46.9019 49.6449 46.3578 49.8248C45.8269 50.008 45.4725 50.3312 45.2676 50.7635C45.1351 51.041 45.3188 51.2585 45.5298 51.4488C45.9223 51.8036 46.4439 51.9841 46.988 52.1198C48.106 52.3989 49.2486 52.6219 50.3422 52.9544C52.1471 53.5033 53.1708 54.6301 53.4957 56.163C53.7034 57.1443 53.3071 58.0274 52.6192 58.8254C51.7415 59.8432 50.5586 60.535 49.12 60.9945V62.915C49.12 63.5392 48.9314 63.7065 48.1873 63.7507C47.3703 63.7986 46.5526 63.8475 45.7342 63.8973C44.9601 63.9431 44.6717 63.7245 44.6712 63.0927C44.6712 62.5203 44.6641 61.9479 44.6745 61.3745C44.6745 61.2202 44.6199 61.1646 44.4335 61.1155C43.4468 60.8533 42.4612 60.5862 41.4898 60.2902C41.1322 60.1812 40.7981 60.0045 40.4808 59.8263C40.1325 59.6295 40.0523 59.3569 40.2044 59.0337C40.554 58.2901 40.9084 57.5478 41.2674 56.8068C41.4631 56.4034 41.8082 56.2928 42.3032 56.4514C43.2658 56.7583 44.2362 57.026 45.2959 56.9769C45.9307 56.9542 46.5572 56.8252 47.1493 56.5953C47.6465 56.398 47.6857 56.1047 47.2415 55.8381C46.2263 55.2108 45.0997 54.7851 43.9233 54.5843C41.891 54.248 40.5255 53.0438 40.2251 51.3632C40.0022 50.1132 40.429 48.9897 41.4702 48.0412C42.0944 47.4767 42.8081 47.0198 43.582 46.6892C43.7597 46.6118 43.8137 46.5295 43.8001 46.3758C43.7456 45.6868 43.697 44.9977 43.6594 44.3081C43.6344 43.8557 43.9195 43.6147 44.4771 43.612C45.4638 43.6065 46.4505 43.6065 47.4372 43.612C47.8907 43.612 48.1747 43.8535 48.1933 44.2264C48.2167 44.7557 48.2456 45.2812 48.2756 45.8432ZM45.1422 44.8233C45.1858 45.4938 45.2256 46.137 45.2703 46.7803C45.3025 47.2398 45.2076 47.3799 44.7039 47.5647C43.9173 47.8489 43.1906 48.2772 42.561 48.8278C40.7975 50.3901 41.6376 53.0253 44.1599 53.4107C45.6372 53.6364 46.9656 54.1739 48.1655 54.9163C49.4116 55.686 49.2405 57.0876 47.8384 57.6469C46.3791 58.2296 44.8663 58.2705 43.3138 57.957C42.9976 57.8927 42.682 57.8268 42.3457 57.7575C42.1391 58.2045 41.9401 58.6336 41.7422 59.0609C41.7821 59.0895 41.8251 59.1134 41.8703 59.1323C43.0652 59.4518 44.2569 59.7816 45.4594 60.0803C45.8776 60.1844 46.1174 60.3627 46.1218 60.7176C46.125 60.9722 46.1218 61.2267 46.1218 61.4808V62.6691L47.6481 62.589V60.7814C47.6481 60.2128 47.7501 60.1005 48.4064 59.9228C49.5735 59.6077 50.5253 59.0506 51.3049 58.2661C52.8519 56.7076 51.7709 54.8318 50.2795 54.2622C49.495 53.9607 48.6528 53.7525 47.8209 53.5453C46.9667 53.3322 46.0765 53.2101 45.2975 52.823C44.5006 52.4251 43.8715 51.9034 43.7946 51.0988C43.6987 50.0947 44.3795 49.4089 45.3433 48.9183C46.5426 48.305 47.8771 48.3579 49.2061 48.5509C49.7245 48.6261 50.2331 48.7493 50.7755 48.8567C50.7755 48.4522 50.7646 48.063 50.781 47.6737C50.7881 47.4966 50.7156 47.4214 50.5084 47.3739C49.5866 47.1651 48.655 47.0261 47.695 47.0436C47.1352 47.0539 46.867 46.837 46.8424 46.3731C46.819 45.937 46.8043 45.5009 46.7841 45.0648C46.7803 44.9863 46.7667 44.9089 46.7574 44.8249L45.1422 44.8233Z" fill="white"/>
</g>
<defs>
<radialGradient id="paint0_radial_0_1" cx="0" cy="0" r="1" gradientUnits="userSpaceOnUse" gradientTransform="translate(15.4114 11.9256) rotate(48.0775) scale(139.99)">
<stop stop-color="#00E0FF"/>
<stop offset="1" stop-color="#0044F2"/>
</radialGradient>
<clipPath id="clip0_0_1">
<rect width="42.52" height="42.52" fill="white" transform="translate(26 26)"/>
</clipPath>
</defs>
</svg>
