<svg width="28" height="36" viewBox="0 0 28 36" fill="none" xmlns="http://www.w3.org/2000/svg">
<path d="M14 0.5C10.3546 0.504301 6.85972 1.95434 4.28203 4.53203C1.70434 7.10973 0.2543 10.6046 0.249999 14.25C0.245633 17.229 1.21873 20.1272 3.02 22.5C3.02 22.5 3.395 22.9937 3.45625 23.065L14 35.5L24.5487 23.0588C24.6037 22.9925 24.98 22.5 24.98 22.5L24.9812 22.4963C26.7816 20.1245 27.7543 17.2277 27.75 14.25C27.7457 10.6046 26.2957 7.10973 23.718 4.53203C21.1403 1.95434 17.6454 0.504301 14 0.5ZM14 19.25C13.0111 19.25 12.0444 18.9568 11.2221 18.4073C10.3999 17.8579 9.75904 17.077 9.3806 16.1634C9.00216 15.2498 8.90315 14.2445 9.09607 13.2745C9.289 12.3046 9.7652 11.4137 10.4645 10.7145C11.1637 10.0152 12.0546 9.539 13.0245 9.34607C13.9945 9.15315 14.9998 9.25216 15.9134 9.6306C16.827 10.009 17.6079 10.6499 18.1573 11.4721C18.7068 12.2944 19 13.2611 19 14.25C18.9983 15.5756 18.471 16.8464 17.5337 17.7837C16.5964 18.721 15.3256 19.2483 14 19.25Z" fill="white"/>
</svg>
