<svg width="95" height="94" viewBox="0 0 95 94" fill="none" xmlns="http://www.w3.org/2000/svg">
<circle cx="47.3708" cy="47.2215" r="46.7656" fill="url(#paint0_radial_0_1)"/>
<g clip-path="url(#clip0_0_1)">
<path d="M59.708 32.4123C59.0816 33.0472 58.2229 33.6608 58.3731 34.7379C58.4551 35.2593 58.6842 35.7465 59.0335 36.1422C59.9319 37.1201 60.9693 36.8891 62.7464 35.4252L69.0371 41.8122L42.3509 68.4785L35.7853 61.9597C36.0638 61.7697 36.3294 61.5614 36.5803 61.3361C37.4235 60.4859 37.4448 59.226 36.6554 58.3871C36.4693 58.1848 36.2452 58.0211 35.9959 57.9054C35.7465 57.7898 35.4768 57.7243 35.2022 57.7129C34.9275 57.7014 34.6533 57.7442 34.3952 57.8387C34.1371 57.9332 33.9002 58.0777 33.6979 58.2638C33.4267 58.5285 33.1752 58.8127 32.9454 59.1141L26.5229 52.6803L53.2515 25.9644L59.708 32.4123ZM53.3677 29.1416L29.6916 52.8078C30.6383 53.753 31.6303 54.7649 32.6577 55.7413C32.7824 55.8603 33.1225 55.8561 33.3167 55.7852C35.1249 55.1291 36.7943 55.336 38.1831 56.6879C39.6343 58.1051 39.8978 59.8056 39.1326 61.6819C39.0745 61.8236 39.0419 62.083 39.1227 62.1694C40.1402 63.2408 41.1818 64.2951 42.2305 65.3608L65.8825 41.7102L62.6769 38.5245C62.6349 38.5294 62.5936 38.5389 62.5536 38.5528C60.6859 39.396 58.9159 39.2259 57.4279 37.8131C55.9399 36.4002 55.6848 34.6585 56.4642 32.761C56.4936 32.6721 56.5022 32.5777 56.4892 32.485C56.4761 32.3924 56.4419 32.304 56.3891 32.2267C55.3957 31.1865 54.3796 30.169 53.3677 29.1416Z" fill="white"/>
<path d="M52.1774 41.4295L50.7177 42.9218L49.1121 41.2538L50.695 39.8622L52.1774 41.4295Z" fill="white"/>
<path d="M53.5435 45.6598L51.9988 44.1789L53.6073 42.6611L55.0995 44.169L53.5435 45.6598Z" fill="white"/>
<path d="M56.5223 45.4911L58.0812 47.1676L56.5365 48.5479L54.9776 47.0344L56.5223 45.4911Z" fill="white"/>
<path d="M49.5216 38.6336L47.8891 40.0351L46.4351 38.4295L47.9387 37.0393L49.5216 38.6336Z" fill="white"/>
</g>
<defs>
<radialGradient id="paint0_radial_0_1" cx="0" cy="0" r="1" gradientUnits="userSpaceOnUse" gradientTransform="translate(16.0166 11.6159) rotate(48.0775) scale(139.99)">
<stop stop-color="#00E0FF"/>
<stop offset="1" stop-color="#0044F2"/>
</radialGradient>
<clipPath id="clip0_0_1">
<rect width="42.5142" height="42.5142" fill="white" transform="translate(26.5229 25.9644)"/>
</clipPath>
</defs>
</svg>
