<svg width="94" height="95" viewBox="0 0 94 95" fill="none" xmlns="http://www.w3.org/2000/svg">
<circle cx="47.2395" cy="47.5312" r="46.7656" fill="url(#paint0_radial_0_1)"/>
<g clip-path="url(#clip0_0_1)">
<path d="M47.3278 60.0645C50.54 60.0576 53.0801 57.542 53.1956 54.1803C53.2222 53.3883 53.1956 53.4886 53.938 53.4747C55.2862 53.4542 56.5874 52.9773 57.6286 52.122C58.6698 51.2668 59.3894 50.0839 59.6695 48.767C59.9496 47.4501 59.7736 46.0773 59.1703 44.8733C58.5671 43.6694 57.5723 42.7056 56.3489 42.1398C55.5433 41.7628 54.6624 41.574 53.7729 41.5876C53.2152 41.5991 53.221 41.5818 53.1956 41.0111C53.0986 38.5152 52.0087 36.6118 49.7191 35.5385C48.9288 35.1686 48.0662 34.9784 47.1934 34.9817C46.3206 34.985 45.4594 35.1817 44.672 35.5576C43.8846 35.9334 43.1905 36.4791 42.6399 37.1552C42.0892 37.8314 41.6957 38.6211 41.4878 39.4674C41.3748 39.9724 41.3064 40.4862 41.2834 41.0031C41.2372 41.5795 41.2557 41.5876 40.653 41.591C39.2352 41.584 37.8618 42.0842 36.7816 43.001C33.6399 45.6145 34.1098 50.6848 37.6752 52.685C38.5803 53.2017 39.6047 53.4735 40.6472 53.4736C41.3839 53.4736 41.2707 53.5324 41.2857 54.1111C41.3319 55.8001 41.9034 57.2642 43.1331 58.439C43.6849 58.9804 44.3415 59.4038 45.0627 59.6833C45.7839 59.9628 46.5547 60.0925 47.3278 60.0645ZM36.2435 47.5513C36.2388 46.9636 36.3521 46.381 36.5768 45.8378C36.8016 45.2947 37.1331 44.802 37.5519 44.389C37.9707 43.9761 38.4681 43.6512 39.0149 43.4335C39.5616 43.2159 40.1465 43.11 40.735 43.122C41.258 43.1278 41.2603 43.1347 41.2765 43.6846C41.2726 44.0876 41.295 44.4904 41.3435 44.8905C41.4464 45.5425 41.777 46.1372 42.2767 46.5692C42.7764 47.0013 43.4131 47.243 44.0741 47.2516C45.4193 47.2723 46.6143 46.3374 46.8891 45.0611C47.1847 43.6662 46.4965 42.3819 45.2022 41.8193C44.5891 41.5541 43.961 41.6106 43.3294 41.5945C42.856 41.5829 42.8537 41.5783 42.841 41.1045C42.7567 37.9422 45.8003 35.7022 48.7676 36.8124C50.7397 37.5514 51.675 39.034 51.6346 41.2106C51.6346 41.47 51.5503 41.6048 51.2697 41.5956C50.9429 41.5852 50.615 41.5887 50.2883 41.5956C48.7411 41.6371 47.5668 42.8373 47.5172 44.4224C47.4745 45.7828 48.6279 47.0948 49.9927 47.2389C51.526 47.4003 52.8919 46.3985 53.1344 44.902C53.2048 44.4697 53.1852 44.0224 53.2048 43.5809C53.2245 43.1393 53.2453 43.1324 53.6667 43.1197C54.2604 43.0994 54.8521 43.1987 55.4065 43.4116C55.961 43.6245 56.4668 43.9467 56.8939 44.359C57.321 44.7712 57.6606 45.2651 57.8925 45.8112C58.1244 46.3572 58.2438 46.9444 58.2436 47.5375C58.2551 50.03 56.2022 52.0106 53.6078 51.953C53.3099 51.953 53.1921 51.8377 53.2037 51.5425C53.2152 51.2474 53.2141 50.9661 53.2037 50.679C53.1356 49.3521 52.4278 48.3733 51.2478 47.9548C49.2849 47.2631 47.2135 49.0131 47.5715 51.0503C47.8232 52.4821 48.9085 53.4263 50.3622 53.4713C50.6312 53.4805 50.9014 53.4713 51.1704 53.4713C51.623 53.4828 51.6184 53.4851 51.6403 53.9174C51.6769 54.6892 51.5105 55.4571 51.1577 56.1448C50.234 58.0113 48.0402 58.9439 45.97 58.3502C44.0522 57.798 42.6701 55.7851 42.8456 53.8148C42.8664 53.5843 42.9403 53.469 43.192 53.469C43.5569 53.477 43.924 53.4897 44.2877 53.4621C46.1282 53.3203 47.3567 51.6717 46.8429 49.8109C46.4838 48.507 45.2264 47.7116 43.8236 47.8222C42.587 47.9202 41.5074 48.9636 41.34 50.2525C41.288 50.6514 41.2996 51.0595 41.2846 51.4595C41.2661 51.9207 41.2569 51.9322 40.78 51.9414C40.1917 51.9577 39.606 51.8563 39.0576 51.6432C38.5091 51.4301 38.0089 51.1095 37.5863 50.7004C37.1638 50.2914 36.8276 49.802 36.5973 49.2612C36.3671 48.7203 36.2476 48.139 36.2458 47.5513H36.2435ZM42.8479 43.9993C42.834 43.8073 42.8371 43.6144 42.8572 43.4229C42.8756 43.3169 42.9899 43.1439 43.0604 43.1439C43.5742 43.1508 44.1088 43.1163 44.596 43.2454C45.216 43.4091 45.5197 44.0858 45.3765 44.728C45.3043 45.0248 45.1281 45.2861 44.8797 45.4645C44.6314 45.6429 44.3273 45.7268 44.0225 45.7009C43.7176 45.675 43.4321 45.541 43.2176 45.3233C43.003 45.1055 42.8735 44.8183 42.8525 44.5135C42.8375 44.3452 42.8502 44.1723 42.8502 43.9993H42.8479ZM51.623 43.9671C51.623 44.1584 51.638 44.351 51.623 44.5435C51.5968 44.8522 51.459 45.1408 51.2354 45.3555C51.0118 45.5703 50.7176 45.6965 50.4076 45.7106C50.0977 45.7247 49.7932 45.6258 49.5509 45.4322C49.3087 45.2387 49.1452 44.9638 49.0909 44.6588C49.0307 44.3528 49.0865 44.0353 49.2476 43.7681C49.4087 43.5009 49.6636 43.3031 49.9627 43.2131C50.2215 43.1462 50.4887 43.1167 50.7559 43.1255C51.7466 43.122 51.6184 43.0413 51.6276 43.9636L51.623 43.9671ZM51.623 51.0802C51.6375 51.2723 51.6344 51.4652 51.6138 51.6567C51.5941 51.7616 51.4764 51.9287 51.4036 51.9287C50.9083 51.9287 50.3957 51.9576 49.9234 51.8388C49.293 51.6809 48.9651 51.018 49.0898 50.3851C49.1548 50.0827 49.3266 49.8139 49.5738 49.6276C49.821 49.4413 50.1271 49.3501 50.4361 49.3705C50.7457 49.3912 51.037 49.5243 51.2551 49.7448C51.4731 49.9653 51.6028 50.2578 51.6195 50.5672C51.6415 50.7355 51.6299 50.9085 51.6299 51.0802H51.623ZM42.8479 51.071C42.8369 50.879 42.8369 50.6866 42.8479 50.4946C42.879 50.2062 43.0088 49.9374 43.2153 49.7334C43.4219 49.5295 43.6926 49.4029 43.9818 49.3752C44.2663 49.34 44.5543 49.4021 44.7991 49.5512C45.0438 49.7002 45.2308 49.9276 45.3297 50.1963C45.4286 50.465 45.4335 50.7592 45.3437 51.031C45.2539 51.3029 45.0746 51.5364 44.835 51.6936C44.5013 51.9311 44.1238 51.953 43.7358 51.9472C42.7302 51.9368 42.8537 52.0579 42.8549 51.071H42.8479Z" fill="white"/>
<path d="M47.2066 33.6558C47.6935 33.6647 48.1772 33.5765 48.6295 33.3963C49.0818 33.2161 49.4936 32.9476 49.8406 32.6065C50.1876 32.2653 50.4629 31.8585 50.6504 31.4097C50.8379 30.961 50.9339 30.4794 50.9325 29.9932C50.9335 29.0147 50.5451 28.076 49.8528 27.3835C49.1606 26.691 48.2211 26.3015 47.2412 26.3005C46.2613 26.2996 45.3212 26.6874 44.6276 27.3786C43.9341 28.0698 43.5439 29.0078 43.543 29.9862C43.5418 30.4675 43.6356 30.9443 43.8192 31.3893C44.0027 31.8343 44.2723 32.2388 44.6126 32.5796C44.9529 32.9205 45.3572 33.191 45.8023 33.3756C46.2474 33.5603 46.7246 33.6555 47.2066 33.6558ZM45.0763 29.9551C45.0902 28.7942 46.1155 27.797 47.2701 27.82C48.4247 27.8431 49.4038 28.8368 49.4027 29.9666C49.4085 30.2548 49.3566 30.5412 49.2501 30.809C49.1435 31.0768 48.9844 31.3207 48.7821 31.5263C48.5798 31.7318 48.3384 31.895 48.0721 32.0061C47.8058 32.1172 47.5199 32.174 47.2313 32.1732C46.9426 32.1725 46.6571 32.1141 46.3914 32.0016C46.1256 31.8891 45.8851 31.7247 45.6839 31.518C45.4827 31.3114 45.3249 31.0667 45.2198 30.7983C45.1147 30.5299 45.0643 30.2432 45.0717 29.9551H45.0763Z" fill="white"/>
<path d="M25.9824 47.5744C25.9896 48.5528 26.3858 49.4883 27.0838 50.1751C27.7818 50.8618 28.7244 51.2436 29.7043 51.2365C30.6842 51.2293 31.6212 50.8337 32.309 50.1368C32.9968 49.4398 33.3792 48.4986 33.372 47.5202C33.372 45.6641 31.9529 43.8506 29.6495 43.8402C27.5896 43.831 25.9697 45.5211 25.9824 47.5744ZM31.7982 47.5306C31.8039 47.8093 31.7539 48.0864 31.6513 48.3456C31.5486 48.6049 31.3953 48.8412 31.2002 49.0406C31.0051 49.2401 30.7723 49.3988 30.5152 49.5075C30.258 49.6162 29.9818 49.6727 29.7026 49.6737C29.4178 49.683 29.134 49.6356 28.8678 49.5342C28.6016 49.4327 28.3582 49.2794 28.152 49.083C27.9458 48.8867 27.7808 48.6513 27.6667 48.3906C27.5526 48.1298 27.4917 47.8491 27.4875 47.5646C27.4833 47.2801 27.5359 46.9976 27.6422 46.7336C27.7485 46.4697 27.9064 46.2295 28.1067 46.0271C28.307 45.8248 28.5457 45.6643 28.8088 45.555C29.0719 45.4458 29.3541 45.39 29.6391 45.3909C29.9232 45.3838 30.2058 45.4342 30.4699 45.5391C30.7339 45.6439 30.9741 45.801 31.1758 46.0009C31.3775 46.2008 31.5366 46.4393 31.6436 46.7022C31.7505 46.9651 31.8031 47.2469 31.7982 47.5306Z" fill="white"/>
<path d="M68.4966 47.4959C68.4899 46.5239 68.0993 45.5938 67.4096 44.9077C66.7199 44.2217 65.7869 43.8351 64.8134 43.8321C62.7893 43.8171 61.1105 45.498 61.1105 47.542C61.1135 48.0265 61.2121 48.5056 61.4006 48.9521C61.5891 49.3985 61.8638 49.8035 62.209 50.1439C62.5542 50.4844 62.9632 50.7536 63.4127 50.9362C63.8621 51.1188 64.3432 51.2112 64.8284 51.2082C65.3136 51.2051 65.7934 51.1067 66.2405 50.9185C66.6877 50.7303 67.0933 50.456 67.4342 50.1113C67.7752 49.7666 68.0448 49.3582 68.2276 48.9095C68.4105 48.4607 68.5031 47.9804 68.5 47.4959H68.4966ZM64.766 45.3908C65.0476 45.3847 65.3276 45.4341 65.5901 45.5361C65.8525 45.6381 66.0923 45.7907 66.2957 45.9852C66.4991 46.1798 66.6621 46.4124 66.7754 46.6698C66.8888 46.9272 66.9503 47.2044 66.9563 47.4856C66.9624 47.7667 66.9129 48.0463 66.8108 48.3083C66.7086 48.5704 66.5558 48.8098 66.361 49.0129C66.1662 49.216 65.9332 49.3787 65.6754 49.4919C65.4176 49.6051 65.14 49.6665 64.8584 49.6725C64.2897 49.6848 63.7395 49.4709 63.3287 49.0781C62.918 48.6853 62.6803 48.1456 62.6681 47.5778C62.6558 47.01 62.87 46.4606 63.2634 46.0505C63.6569 45.6403 64.1974 45.403 64.766 45.3908Z" fill="white"/>
<path d="M47.2551 61.4157C46.7683 61.4086 46.285 61.4986 45.8334 61.6804C45.3819 61.8622 44.9713 62.1322 44.6256 62.4745C44.2798 62.8168 44.006 63.2245 43.8201 63.6738C43.6342 64.1231 43.54 64.6049 43.543 65.091C43.543 67.1281 45.2241 68.8367 47.2551 68.7871C49.3092 68.7375 50.8864 67.1731 50.9256 65.121C50.966 63.0458 49.3265 61.4203 47.2551 61.4157ZM47.3278 67.2307C46.1293 67.2699 45.0948 66.3488 45.0867 65.1556C45.0786 64.02 45.8257 63.0401 47.1419 62.9501C47.4313 62.936 47.7205 62.9803 47.9923 63.0803C48.2641 63.1803 48.5129 63.3341 48.7238 63.5323C48.9348 63.7306 49.1035 63.9692 49.22 64.2341C49.3364 64.4989 49.3982 64.7845 49.4015 65.0737C49.3946 66.298 48.5182 67.225 47.3278 67.2307Z" fill="white"/>
</g>
<defs>
<radialGradient id="paint0_radial_0_1" cx="0" cy="0" r="1" gradientUnits="userSpaceOnUse" gradientTransform="translate(15.8853 11.9256) rotate(50.2697) scale(155.477)">
<stop stop-color="#00E0FF"/>
<stop offset="1" stop-color="#0044F2"/>
</radialGradient>
<clipPath id="clip0_0_1">
<rect width="42.5142" height="42.5142" fill="white" transform="matrix(-1 0 0 1 68.4966 26.274)"/>
</clipPath>
</defs>
</svg>
