<svg width="44" height="43" viewBox="0 0 44 43" fill="none" xmlns="http://www.w3.org/2000/svg">
<g clip-path="url(#clip0_14_231)">
<path d="M22.3278 34.0645C25.54 34.0576 28.0801 31.542 28.1956 28.1803C28.2222 27.3883 28.1956 27.4886 28.938 27.4747C30.2862 27.4542 31.5874 26.9773 32.6286 26.122C33.6698 25.2668 34.3894 24.0839 34.6695 22.767C34.9496 21.4501 34.7736 20.0773 34.1703 18.8733C33.5671 17.6694 32.5723 16.7056 31.3489 16.1398C30.5433 15.7628 29.6624 15.574 28.7729 15.5876C28.2152 15.5991 28.221 15.5818 28.1956 15.0111C28.0986 12.5152 27.0087 10.6118 24.7191 9.53848C23.9288 9.16859 23.0662 8.97843 22.1934 8.98173C21.3206 8.98503 20.4594 9.1817 19.672 9.55756C18.8846 9.93342 18.1905 10.4791 17.6399 11.1552C17.0892 11.8314 16.6957 12.6211 16.4878 13.4674C16.3748 13.9724 16.3064 14.4862 16.2834 15.0031C16.2372 15.5795 16.2557 15.5876 15.653 15.591C14.2352 15.584 12.8618 16.0842 11.7816 17.001C8.63985 19.6145 9.10978 24.6848 12.6752 26.685C13.5803 27.2017 14.6047 27.4735 15.6472 27.4736C16.3839 27.4736 16.2707 27.5324 16.2857 28.1111C16.3319 29.8001 16.9034 31.2642 18.1331 32.439C18.6849 32.9804 19.3415 33.4038 20.0627 33.6833C20.7839 33.9628 21.5547 34.0925 22.3278 34.0645ZM11.2435 21.5513C11.2388 20.9636 11.3521 20.381 11.5768 19.8378C11.8016 19.2947 12.1331 18.802 12.5519 18.389C12.9707 17.9761 13.4681 17.6512 14.0149 17.4335C14.5616 17.2159 15.1465 17.11 15.735 17.122C16.258 17.1278 16.2603 17.1347 16.2765 17.6846C16.2726 18.0876 16.295 18.4904 16.3435 18.8905C16.4464 19.5425 16.777 20.1372 17.2767 20.5692C17.7764 21.0013 18.4131 21.243 19.0741 21.2516C20.4193 21.2723 21.6143 20.3374 21.8891 19.0611C22.1847 17.6662 21.4965 16.3819 20.2022 15.8193C19.5891 15.5541 18.961 15.6106 18.3294 15.5945C17.856 15.5829 17.8537 15.5783 17.841 15.1045C17.7567 11.9422 20.8003 9.70218 23.7676 10.8124C25.7397 11.5514 26.675 13.034 26.6346 15.2106C26.6346 15.47 26.5503 15.6048 26.2697 15.5956C25.9429 15.5852 25.615 15.5887 25.2883 15.5956C23.7411 15.6371 22.5668 16.8373 22.5172 18.4224C22.4745 19.7828 23.6279 21.0948 24.9927 21.2389C26.526 21.4003 27.8919 20.3985 28.1344 18.902C28.2048 18.4697 28.1852 18.0224 28.2048 17.5809C28.2245 17.1393 28.2453 17.1324 28.6667 17.1197C29.2604 17.0994 29.8521 17.1987 30.4065 17.4116C30.961 17.6245 31.4668 17.9467 31.8939 18.359C32.321 18.7712 32.6606 19.2651 32.8925 19.8112C33.1244 20.3572 33.2438 20.9444 33.2436 21.5375C33.2551 24.03 31.2022 26.0106 28.6078 25.953C28.3099 25.953 28.1921 25.8377 28.2037 25.5425C28.2152 25.2474 28.2141 24.9661 28.2037 24.679C28.1356 23.3521 27.4278 22.3733 26.2478 21.9548C24.2849 21.2631 22.2135 23.0131 22.5715 25.0503C22.8232 26.4821 23.9085 27.4263 25.3622 27.4713C25.6312 27.4805 25.9014 27.4713 26.1704 27.4713C26.623 27.4828 26.6184 27.4851 26.6403 27.9174C26.6769 28.6892 26.5105 29.4571 26.1577 30.1448C25.234 32.0113 23.0402 32.9439 20.97 32.3502C19.0522 31.798 17.6701 29.7851 17.8456 27.8148C17.8664 27.5843 17.9403 27.469 18.192 27.469C18.5569 27.477 18.924 27.4897 19.2877 27.4621C21.1282 27.3203 22.3567 25.6717 21.8429 23.8109C21.4838 22.507 20.2264 21.7116 18.8236 21.8222C17.587 21.9202 16.5074 22.9636 16.34 24.2525C16.288 24.6514 16.2996 25.0595 16.2846 25.4595C16.2661 25.9207 16.2569 25.9322 15.78 25.9414C15.1917 25.9577 14.606 25.8563 14.0576 25.6432C13.5091 25.4301 13.0089 25.1095 12.5863 24.7004C12.1638 24.2914 11.8276 23.802 11.5973 23.2612C11.3671 22.7203 11.2476 22.139 11.2458 21.5513H11.2435ZM17.8479 17.9993C17.834 17.8073 17.8371 17.6144 17.8572 17.4229C17.8756 17.3169 17.9899 17.1439 18.0604 17.1439C18.5742 17.1508 19.1088 17.1163 19.596 17.2454C20.216 17.4091 20.5197 18.0858 20.3765 18.728C20.3043 19.0248 20.1281 19.2861 19.8797 19.4645C19.6314 19.6429 19.3273 19.7268 19.0225 19.7009C18.7176 19.675 18.4321 19.541 18.2176 19.3233C18.003 19.1055 17.8735 18.8183 17.8525 18.5135C17.8375 18.3452 17.8502 18.1723 17.8502 17.9993H17.8479ZM26.623 17.9671C26.623 18.1584 26.638 18.351 26.623 18.5435C26.5968 18.8522 26.459 19.1408 26.2354 19.3555C26.0118 19.5703 25.7176 19.6965 25.4076 19.7106C25.0977 19.7247 24.7932 19.6258 24.5509 19.4322C24.3087 19.2387 24.1452 18.9638 24.0909 18.6588C24.0307 18.3528 24.0865 18.0353 24.2476 17.7681C24.4087 17.5009 24.6636 17.3031 24.9627 17.2131C25.2215 17.1462 25.4887 17.1167 25.7559 17.1255C26.7466 17.122 26.6184 17.0413 26.6276 17.9636L26.623 17.9671ZM26.623 25.0802C26.6375 25.2723 26.6344 25.4652 26.6138 25.6567C26.5941 25.7616 26.4764 25.9287 26.4036 25.9287C25.9083 25.9287 25.3957 25.9576 24.9234 25.8388C24.293 25.6809 23.9651 25.018 24.0898 24.3851C24.1548 24.0827 24.3266 23.8139 24.5738 23.6276C24.821 23.4413 25.1271 23.3501 25.4361 23.3705C25.7457 23.3912 26.037 23.5243 26.2551 23.7448C26.4731 23.9653 26.6028 24.2578 26.6195 24.5672C26.6415 24.7355 26.6299 24.9085 26.6299 25.0802H26.623ZM17.8479 25.071C17.8369 24.879 17.8369 24.6866 17.8479 24.4946C17.879 24.2062 18.0088 23.9374 18.2153 23.7334C18.4219 23.5295 18.6926 23.4029 18.9818 23.3752C19.2663 23.34 19.5543 23.4021 19.7991 23.5512C20.0438 23.7002 20.2308 23.9276 20.3297 24.1963C20.4286 24.465 20.4335 24.7592 20.3437 25.031C20.2539 25.3029 20.0746 25.5364 19.835 25.6936C19.5013 25.9311 19.1238 25.953 18.7358 25.9472C17.7302 25.9368 17.8537 26.0579 17.8549 25.071H17.8479Z" fill="white"/>
<path d="M22.2066 7.65581C22.6935 7.66471 23.1772 7.57648 23.6295 7.39629C24.0818 7.2161 24.4936 6.94757 24.8406 6.60645C25.1876 6.26533 25.4629 5.85847 25.6504 5.40973C25.8379 4.96099 25.9339 4.47939 25.9325 3.99316C25.9335 3.01473 25.5451 2.07602 24.8528 1.38352C24.1606 0.691015 23.2211 0.301456 22.2412 0.300539C21.2613 0.299621 20.3212 0.687418 19.6276 1.37862C18.9341 2.06983 18.5439 3.00782 18.543 3.98625C18.5418 4.46751 18.6356 4.94429 18.8192 5.3893C19.0027 5.8343 19.2723 6.23881 19.6126 6.57965C19.9529 6.92049 20.3572 7.19098 20.8023 7.37564C21.2474 7.5603 21.7246 7.65551 22.2066 7.65581ZM20.0763 3.95512C20.0902 2.79418 21.1155 1.79696 22.2701 1.82001C23.4247 1.84307 24.4038 2.83684 24.4027 3.96665C24.4085 4.25478 24.3566 4.54117 24.2501 4.80901C24.1435 5.07684 23.9844 5.3207 23.7821 5.52627C23.5798 5.73184 23.3384 5.89497 23.0721 6.00607C22.8058 6.11718 22.5199 6.17401 22.2313 6.17324C21.9426 6.17247 21.6571 6.11412 21.3914 6.0016C21.1256 5.88908 20.8851 5.72467 20.6839 5.51802C20.4827 5.31138 20.3249 5.06667 20.2198 4.79828C20.1147 4.52988 20.0643 4.24321 20.0717 3.95512H20.0763Z" fill="white"/>
<path d="M0.982426 21.5744C0.989623 22.5528 1.38579 23.4883 2.08378 24.1751C2.78177 24.8618 3.72441 25.2436 4.70433 25.2365C5.68424 25.2293 6.62116 24.8337 7.30898 24.1368C7.9968 23.4398 8.37917 22.4986 8.37197 21.5202C8.37197 19.6641 6.95295 17.8506 4.64948 17.8402C2.58965 17.831 0.969726 19.5211 0.982426 21.5744ZM6.79823 21.5306C6.8039 21.8093 6.75394 22.0864 6.65127 22.3456C6.5486 22.6049 6.39526 22.8412 6.20021 23.0406C6.00515 23.2401 5.77227 23.3988 5.51515 23.5075C5.25803 23.6162 4.98181 23.6727 4.7026 23.6737C4.4178 23.683 4.13401 23.6356 3.86778 23.5342C3.60155 23.4327 3.35823 23.2794 3.15201 23.083C2.9458 22.8867 2.78083 22.6513 2.66673 22.3906C2.55264 22.1298 2.4917 21.8491 2.48748 21.5646C2.48326 21.2801 2.53585 20.9976 2.64217 20.7336C2.74848 20.4697 2.9064 20.2295 3.10671 20.0271C3.30701 19.8248 3.54568 19.6643 3.80878 19.555C4.07188 19.4458 4.35414 19.39 4.63909 19.3909C4.92319 19.3838 5.20578 19.4342 5.46986 19.5391C5.73394 19.6439 5.97406 19.801 6.17576 20.0009C6.37746 20.2008 6.53658 20.4393 6.64355 20.7022C6.75053 20.9651 6.80314 21.2469 6.79823 21.5306Z" fill="white"/>
<path d="M43.4966 21.4959C43.4899 20.5239 43.0993 19.5938 42.4096 18.9077C41.7199 18.2217 40.7869 17.8351 39.8134 17.8321C37.7893 17.8171 36.1105 19.498 36.1105 21.542C36.1135 22.0265 36.2121 22.5056 36.4006 22.9521C36.5891 23.3985 36.8638 23.8035 37.209 24.1439C37.5542 24.4844 37.9632 24.7536 38.4127 24.9362C38.8621 25.1188 39.3432 25.2112 39.8284 25.2082C40.3136 25.2051 40.7934 25.1067 41.2405 24.9185C41.6877 24.7303 42.0933 24.456 42.4342 24.1113C42.7752 23.7666 43.0448 23.3582 43.2276 22.9095C43.4105 22.4607 43.5031 21.9804 43.5 21.4959H43.4966ZM39.766 19.3908C40.0476 19.3847 40.3276 19.4341 40.5901 19.5361C40.8525 19.6381 41.0923 19.7907 41.2957 19.9852C41.4991 20.1798 41.6621 20.4124 41.7754 20.6698C41.8888 20.9272 41.9503 21.2044 41.9563 21.4856C41.9624 21.7667 41.9129 22.0463 41.8108 22.3083C41.7086 22.5704 41.5558 22.8098 41.361 23.0129C41.1662 23.216 40.9332 23.3787 40.6754 23.4919C40.4176 23.6051 40.14 23.6665 39.8584 23.6725C39.2897 23.6848 38.7395 23.4709 38.3287 23.0781C37.918 22.6853 37.6803 22.1456 37.6681 21.5778C37.6558 21.01 37.87 20.4606 38.2634 20.0505C38.6569 19.6403 39.1974 19.403 39.766 19.3908Z" fill="white"/>
<path d="M22.2551 35.4157C21.7683 35.4086 21.285 35.4986 20.8334 35.6804C20.3819 35.8622 19.9713 36.1322 19.6256 36.4745C19.2798 36.8168 19.006 37.2245 18.8201 37.6738C18.6342 38.1231 18.54 38.6049 18.543 39.091C18.543 41.1281 20.2241 42.8367 22.2551 42.7871C24.3092 42.7375 25.8864 41.1731 25.9256 39.121C25.966 37.0458 24.3265 35.4203 22.2551 35.4157ZM22.3278 41.2307C21.1293 41.2699 20.0948 40.3488 20.0867 39.1556C20.0786 38.02 20.8257 37.0401 22.1419 36.9501C22.4313 36.936 22.7205 36.9803 22.9923 37.0803C23.2641 37.1803 23.5129 37.3341 23.7238 37.5323C23.9348 37.7306 24.1035 37.9692 24.22 38.2341C24.3364 38.4989 24.3982 38.7845 24.4015 39.0737C24.3946 40.298 23.5182 41.225 22.3278 41.2307Z" fill="white"/>
</g>
<defs>
<clipPath id="clip0_14_231">
<rect width="42.5142" height="42.5142" fill="white" transform="matrix(-1 0 0 1 43.4966 0.274048)"/>
</clipPath>
</defs>
</svg>
