<svg width="32" height="32" viewBox="0 0 32 32" fill="none" xmlns="http://www.w3.org/2000/svg">
<path d="M16.425 27.4531H5.19982C4.48519 27.4531 3.90625 26.8818 3.90625 26.1774V5.61781C3.90625 4.91324 4.48528 4.34229 5.19982 4.34229H26.0503C26.7646 4.34229 27.3438 4.91324 27.3438 5.61781V26.1774C27.3438 26.8819 26.7645 27.4531 26.0503 27.4531H20.0778V18.5033H23.1243L23.5804 15.0154H20.0778V12.7886C20.0778 11.7788 20.3622 11.0906 21.8307 11.0906L23.7038 11.0898V7.97024C23.3798 7.92773 22.268 7.83277 20.9744 7.83277C18.2738 7.83277 16.425 9.45821 16.425 12.4432V15.0154H13.3707V18.5033H16.425V27.4531Z" fill="#0081FE"/>
</svg>
