<svg width="33" height="32" viewBox="0 0 33 32" fill="none" xmlns="http://www.w3.org/2000/svg">
<path fill-rule="evenodd" clip-rule="evenodd" d="M16.6146 4.34229C13.4319 4.34229 13.0329 4.35559 11.7829 4.41182C10.5356 4.46792 9.68374 4.66328 8.93834 4.94895C8.16773 5.24421 7.5142 5.63933 6.86267 6.28173C6.21119 6.92417 5.81049 7.56859 5.51106 8.32846C5.22134 9.06346 5.02322 9.90347 4.96633 11.1334C4.9093 12.3659 4.89581 12.7594 4.89581 15.8977C4.89581 19.0359 4.9093 19.4294 4.96633 20.6619C5.02322 21.8919 5.22134 22.7319 5.51106 23.4669C5.81049 24.2268 6.21119 24.8712 6.86267 25.5136C7.5142 26.156 8.16773 26.5511 8.93834 26.8464C9.68374 27.1321 10.5356 27.3274 11.7829 27.3835C13.0329 27.4398 13.4319 27.4531 16.6146 27.4531C19.7972 27.4531 20.1963 27.4398 21.4462 27.3835C22.6935 27.3274 23.5454 27.1321 24.2908 26.8464C25.0614 26.5511 25.7149 26.156 26.3665 25.5136C27.0179 24.8712 27.4186 24.2268 27.7181 23.4669C28.0078 22.7319 28.2059 21.8919 28.2628 20.6619C28.3198 19.4294 28.3333 19.0359 28.3333 15.8977C28.3333 12.7594 28.3198 12.3659 28.2628 11.1334C28.2059 9.90347 28.0078 9.06346 27.7181 8.32846C27.4186 7.56859 27.0179 6.92417 26.3665 6.28173C25.7149 5.63933 25.0614 5.24421 24.2908 4.94895C23.5454 4.66328 22.6935 4.46792 21.4462 4.41182C20.1963 4.35559 19.7972 4.34229 16.6146 4.34229ZM16.6146 6.42433C19.7436 6.42433 20.1143 6.43612 21.35 6.49171C22.4925 6.54309 23.113 6.73134 23.526 6.88958C24.073 7.09921 24.4633 7.34961 24.8734 7.75399C25.2835 8.15833 25.5374 8.54326 25.75 9.08264C25.9105 9.48982 26.1014 10.1017 26.1535 11.2283C26.2099 12.4468 26.2218 12.8123 26.2218 15.8977C26.2218 18.9831 26.2099 19.3486 26.1535 20.567C26.1014 21.6937 25.9105 22.3055 25.75 22.7127C25.5374 23.2521 25.2835 23.637 24.8734 24.0414C24.4633 24.4457 24.073 24.6961 23.526 24.9058C23.113 25.064 22.4925 25.2523 21.35 25.3036C20.1144 25.3592 19.7438 25.371 16.6146 25.371C13.4853 25.371 13.1147 25.3592 11.8792 25.3036C10.7366 25.2523 10.1161 25.064 9.70319 24.9058C9.15619 24.6961 8.76581 24.4457 8.35576 24.0414C7.94571 23.637 7.69172 23.2521 7.47913 22.7127C7.31865 22.3055 7.12774 21.6937 7.07564 20.567C7.01926 19.3486 7.00731 18.9831 7.00731 15.8977C7.00731 12.8123 7.01926 12.4468 7.07564 11.2283C7.12774 10.1017 7.31865 9.48982 7.47913 9.08264C7.69172 8.54326 7.94566 8.15833 8.35576 7.75399C8.76581 7.34961 9.15619 7.09921 9.70319 6.88958C10.1161 6.73134 10.7366 6.54309 11.8792 6.49171C13.1149 6.43612 13.4855 6.42433 16.6146 6.42433ZM10.5968 15.8977C10.5968 12.6205 13.291 9.96383 16.6146 9.96383C19.9381 9.96383 22.6323 12.6205 22.6323 15.8977C22.6323 19.1749 19.9381 21.8315 16.6146 21.8315C13.291 21.8315 10.5968 19.1749 10.5968 15.8977ZM16.6146 19.7495C14.4572 19.7495 12.7083 18.025 12.7083 15.8977C12.7083 13.7704 14.4572 12.0459 16.6146 12.0459C18.7719 12.0459 20.5208 13.7704 20.5208 15.8977C20.5208 18.025 18.7719 19.7495 16.6146 19.7495ZM22.8701 11.116C23.6467 11.116 24.2763 10.4952 24.2763 9.72939C24.2763 8.96356 23.6467 8.34272 22.8701 8.34272C22.0934 8.34272 21.4638 8.96356 21.4638 9.72939C21.4638 10.4952 22.0934 11.116 22.8701 11.116Z" fill="#0081FE"/>
</svg>
