<svg width="33" height="32" viewBox="0 0 33 32" fill="none" xmlns="http://www.w3.org/2000/svg">
<path fill-rule="evenodd" clip-rule="evenodd" d="M7.65463 10.4685H7.62155C5.96792 10.4685 4.89581 9.40172 4.89581 8.04947C4.89581 6.67091 5.99961 5.62646 7.68632 5.62646C9.37165 5.62646 10.4079 6.66828 10.441 8.04552C10.441 9.39777 9.37165 10.4685 7.65463 10.4685ZM28.3333 26.1694H23.1533V18.9477C23.1533 17.0575 22.343 15.767 20.5612 15.767C19.1984 15.767 18.4405 16.6378 18.0877 17.4771C17.9712 17.7423 17.9733 18.0993 17.9755 18.4673L17.9755 18.4677C17.9758 18.5175 17.9761 18.5675 17.9761 18.6176V26.1694H12.8443C12.8443 26.1694 12.9104 13.3769 12.8443 12.2141H17.9761V14.4043C18.2792 13.4466 19.9191 12.0799 22.536 12.0799C25.7826 12.0799 28.3333 14.0872 28.3333 18.4097V26.1694ZM10.0552 12.2141H5.487V26.1694H10.0552V12.2141Z" fill="#0081FE"/>
</svg>
