<svg width="32" height="32" viewBox="0 0 32 32" fill="none" xmlns="http://www.w3.org/2000/svg">
<path fill-rule="evenodd" clip-rule="evenodd" d="M6.51041 12.4533C6.51041 7.48453 10.5859 3.46582 15.625 3.46582C20.6641 3.46582 24.7396 7.48453 24.7396 12.4533C24.7396 17.8073 18.9844 25.19 16.6276 28.0018C16.1068 28.6181 15.1562 28.6181 14.6354 28.0018C12.2656 25.19 6.51041 17.8073 6.51041 12.4533ZM12.3698 12.4533C12.3698 14.2252 13.8281 15.6632 15.625 15.6632C17.4219 15.6632 18.8802 14.2252 18.8802 12.4533C18.8802 10.6815 17.4219 9.24352 15.625 9.24352C13.8281 9.24352 12.3698 10.6815 12.3698 12.4533Z" fill="#0081FE"/>
</svg>
