<svg width="25" height="20" viewBox="0 0 25 20" fill="none" xmlns="http://www.w3.org/2000/svg">
<path d="M24.5264 7.08291C24.7168 6.93364 25 7.07328 25 7.30921V17.1558C25 18.4318 23.9502 19.467 22.6562 19.467H2.34375C1.0498 19.467 0 18.4318 0 17.1558V7.31403C0 7.07328 0.27832 6.93846 0.473633 7.08772C1.56738 7.92552 3.01758 8.98963 7.99805 12.5575C9.02832 13.299 10.7666 14.8591 12.5 14.8494C14.2432 14.8639 16.0156 13.2701 17.0068 12.5575C21.9873 8.98963 23.4326 7.92071 24.5264 7.08291ZM12.5 13.3038C13.6328 13.3231 15.2637 11.8979 16.084 11.3104C22.5635 6.67364 23.0566 6.26918 24.5508 5.11359C24.834 4.89692 25 4.55987 25 4.20356V3.28872C25 2.01276 23.9502 0.977539 22.6562 0.977539H2.34375C1.0498 0.977539 0 2.01276 0 3.28872V4.20356C0 4.55987 0.166016 4.8921 0.449219 5.11359C1.94336 6.26436 2.43652 6.67364 8.91602 11.3104C9.73633 11.8979 11.3672 13.3231 12.5 13.3038Z" fill="#0081FE"/>
</svg>
