<svg width="25" height="17" viewBox="0 0 25 17" fill="none" xmlns="http://www.w3.org/2000/svg">
<path fill-rule="evenodd" clip-rule="evenodd" d="M23.1673 1.43948C23.8697 2.15957 24.0989 3.79479 24.0989 3.79479C24.0989 3.79479 24.3333 5.71552 24.3333 7.63552V9.43612C24.3333 11.3569 24.0989 13.2768 24.0989 13.2768C24.0989 13.2768 23.8697 14.9121 23.1673 15.6322C22.3643 16.484 21.4738 16.572 20.9705 16.6218C20.9152 16.6272 20.8645 16.6323 20.8192 16.6378C17.5394 16.878 12.6146 16.8855 12.6146 16.8855C12.6146 16.8855 6.52081 16.8291 4.64581 16.6467C4.55698 16.6299 4.44929 16.6168 4.32733 16.602C3.73341 16.5298 2.80122 16.4166 2.0611 15.6322C1.3587 14.9121 1.13019 13.2768 1.13019 13.2768C1.13019 13.2768 0.895813 11.3569 0.895813 9.43612V7.63552C0.895813 5.71552 1.13019 3.79479 1.13019 3.79479C1.13019 3.79479 1.3587 2.15957 2.0611 1.43948C2.86593 0.586429 3.7572 0.499366 4.26054 0.450198C4.31511 0.444867 4.36513 0.439981 4.40997 0.434613C7.68976 0.194336 12.6094 0.194336 12.6094 0.194336H12.6197C12.6197 0.194336 17.5394 0.194336 20.8192 0.434613C20.864 0.439989 20.914 0.444881 20.9687 0.450222C21.4716 0.499394 22.3633 0.586567 23.1673 1.43948ZM10.1939 4.9502L10.1947 11.6179L16.5264 8.29554L10.1939 4.9502Z" fill="#0081FE"/>
</svg>
