<svg width="311" height="37" viewBox="0 0 311 37" fill="none" xmlns="http://www.w3.org/2000/svg">
<path d="M6 32.8C5.49333 32.88 5.02667 32.92 4.6 32.92C4.17333 32.9467 3.54667 32.8533 2.72 32.64C2.29333 32.5067 1.98667 32.3467 1.8 32.16C1.64 31.9733 1.36 31.6267 0.96 31.12C0.666667 30.6933 0.453334 30.2933 0.32 29.92C0.213333 29.5733 0.2 29.2933 0.28 29.08C0.36 28.8933 0.533333 28.84 0.8 28.92C0.88 28.9467 1 29.0267 1.16 29.16C1.34667 29.32 1.52 29.5067 1.68 29.72C2.05333 30.12 2.50667 30.3867 3.04 30.52C3.57333 30.6533 4.28 30.6667 5.16 30.56C5.53333 30.48 5.98667 30.36 6.52 30.2C7.05333 30.0667 7.57333 29.8933 8.08 29.68C8.58667 29.4667 8.98667 29.2533 9.28 29.04C10.6933 28.08 11.8267 27.32 12.68 26.76C13.5333 26.2 13.96 25.92 13.96 25.92C14.0133 25.8133 14.1067 25.7333 14.24 25.68C14.4 25.6 14.5867 25.52 14.8 25.44C14.96 25.28 15.2133 25.0267 15.56 24.68C15.9333 24.3333 16.28 23.9867 16.6 23.64C16.9467 23.2933 17.16 23.0933 17.24 23.04C17.2933 22.8 17.3467 22.6133 17.4 22.48C17.4533 22.32 17.48 22.16 17.48 22C17.6933 21.7867 17.9733 21.3467 18.32 20.68C18.6933 19.9867 19.0667 19.2267 19.44 18.4C19.8133 17.5467 20.08 16.7733 20.24 16.08C20.6133 14.2133 20.7067 12.64 20.52 11.36C20.3333 10.08 19.9467 8.98667 19.36 8.08C18.8 7.14667 18.0933 6.32 17.24 5.6C16.9467 5.36 16.5333 5.10667 16 4.84C15.4933 4.54667 14.96 4.29333 14.4 4.08C13.84 3.86667 13.3467 3.69333 12.92 3.56C12.52 3.42667 12.28 3.37333 12.2 3.4C12.0933 3.42666 11.8667 3.85333 11.52 4.68C11.2 5.48 10.8133 6.50667 10.36 7.76C9.90667 9.01333 9.41333 10.3467 8.88 11.76C8.37333 13.1733 7.89333 14.5067 7.44 15.76C7.28 16.2667 7.10667 16.8 6.92 17.36C6.73333 17.92 6.57333 18.4133 6.44 18.84C6.30667 19.24 6.24 19.5067 6.24 19.64C5.94667 20.0933 5.70667 20.6933 5.52 21.44C5.36 22.1867 5.17333 23.4267 4.96 25.16C4.72 26.0667 4.54667 26.76 4.44 27.24C4.33333 27.6933 4.22667 27.9067 4.12 27.88C4.12 27.88 4.10667 27.8933 4.08 27.92C4.08 27.92 4.04 27.96 3.96 28.04C3.96 28.2 3.85333 28.28 3.64 28.28C3.42667 28.28 3.17333 28.2267 2.88 28.12C2.61333 27.9867 2.4 27.84 2.24 27.68C2.16 27.3867 2.10667 27.1067 2.08 26.84C2.08 26.5733 2.18667 26.0533 2.4 25.28C2.53333 24.7733 2.69333 24.16 2.88 23.44C3.09333 22.6933 3.32 21.9333 3.56 21.16C3.8 20.36 4.02667 19.6267 4.24 18.96C4.45333 18.2933 4.61333 17.7867 4.72 17.44C4.90667 16.9867 5.17333 16.1333 5.52 14.88C5.73333 14.1867 5.94667 13.4933 6.16 12.8C6.4 12.1067 6.62667 11.4933 6.84 10.96C7.05333 10.4 7.2 10.04 7.28 9.88C7.41333 9.53333 7.61333 8.94667 7.88 8.12C8.14667 7.29333 8.49333 6.37333 8.92 5.36L9.2 4.04L8.76 3.84C8.44 3.94667 8.18667 3.98667 8 3.96C7.84 3.90667 7.73333 3.86667 7.68 3.84C7.52 3.89333 7.29333 3.85333 7 3.72C6.70667 3.58667 6.44 3.41333 6.2 3.2C5.98667 2.98666 5.85333 2.8 5.8 2.64C5.74667 2.53333 5.70667 2.4 5.68 2.24C5.68 2.05333 5.68 1.96 5.68 1.96C5.70667 1.8 5.90667 1.65333 6.28 1.52C6.65333 1.36 7.13333 1.22667 7.72 1.12C8.33333 1.01333 8.98667 0.946665 9.68 0.919999C10.4 0.866665 11.0933 0.866665 11.76 0.919999C12.4533 0.973332 13.1067 1.12 13.72 1.36C14.3333 1.6 15 1.85333 15.72 2.12C16.5733 2.44 17.4667 3 18.4 3.8C19.36 4.57333 20.2267 5.49333 21 6.56C21.8 7.62667 22.3333 8.74667 22.6 9.92C22.68 10.24 22.76 10.6933 22.84 11.28C22.92 11.8667 22.96 12.44 22.96 13C22.9867 13.5333 22.9333 13.88 22.8 14.04C22.7467 14.1467 22.7067 14.28 22.68 14.44C22.68 14.5733 22.7333 14.6667 22.84 14.72C22.8133 14.8 22.72 15.1067 22.56 15.64C22.4 16.1467 22.2533 16.5867 22.12 16.96C22.0667 17.6533 21.9067 18.3733 21.64 19.12C21.3733 19.8667 21.08 20.5733 20.76 21.24C20.44 21.88 20.1467 22.4267 19.88 22.88C19.7733 22.88 19.6667 22.9067 19.56 22.96C19.48 22.9867 19.4933 23.0133 19.6 23.04C19.6 23.1733 19.4533 23.4267 19.16 23.8C19.0533 23.88 18.88 24.08 18.64 24.4C18.4267 24.6933 18.2533 24.8933 18.12 25C18.0933 25.1867 18.0133 25.3467 17.88 25.48C17.7467 25.5867 17.6267 25.64 17.52 25.64C17.52 25.64 17.4933 25.64 17.44 25.64C17.4133 25.64 17.4 25.6933 17.4 25.8C17.1867 26.12 16.8533 26.5067 16.4 26.96C15.9467 27.3867 15.4267 27.84 14.84 28.32C14.28 28.7733 13.6933 29.2 13.08 29.6C12.4933 30 11.9333 30.3067 11.4 30.52C11.1333 30.7067 10.8533 30.8533 10.56 30.96C10.2667 31.0933 9.98667 31.2267 9.72 31.36C9.58667 31.4667 9.29333 31.6133 8.84 31.8C8.38667 32.0133 7.89333 32.2133 7.36 32.4C6.85333 32.5867 6.4 32.72 6 32.8ZM27.2756 28.4C26.929 28.4 26.649 28.3333 26.4356 28.2C26.249 28.0667 26.009 27.88 25.7156 27.64C25.209 27.1067 24.849 26.6 24.6356 26.12C24.4223 25.6133 24.3556 25.1333 24.4356 24.68C24.5156 24.4667 24.5423 24.2667 24.5156 24.08C24.5156 23.8667 24.5156 23.76 24.5156 23.76C24.3823 23.6267 24.3423 23.5467 24.3956 23.52C24.449 23.4667 24.5023 23.3867 24.5556 23.28C24.7156 23.28 24.769 23.1333 24.7156 22.84C24.6623 22.6267 24.769 22.16 25.0356 21.44C25.3023 20.72 25.6356 20.04 26.0356 19.4C26.1956 19.1333 26.4356 18.7867 26.7556 18.36C27.0756 17.9067 27.4223 17.4667 27.7956 17.04C28.1956 16.5867 28.5556 16.2267 28.8756 15.96C29.5423 15.4 30.129 14.9867 30.6356 14.72C31.1423 14.4533 31.689 14.2533 32.2756 14.12C32.8623 13.9867 33.2623 13.92 33.4756 13.92C33.7156 13.92 34.0356 14.1333 34.4356 14.56C35.049 14.8267 35.489 15.1467 35.7556 15.52C36.049 15.8933 36.2356 16.44 36.3156 17.16C36.3956 17.96 36.329 18.88 36.1156 19.92C35.929 20.9333 35.3023 22.2 34.2356 23.72C33.569 24.68 32.9556 25.4 32.3956 25.88C31.8356 26.3333 31.169 26.7867 30.3956 27.24C29.8356 27.6133 29.329 27.8933 28.8756 28.08C28.4223 28.24 27.889 28.3467 27.2756 28.4ZM31.1156 24.16C31.7556 23.44 32.2623 22.76 32.6356 22.12C33.0356 21.48 33.409 20.6667 33.7556 19.68C33.8623 19.3867 33.929 19.0267 33.9556 18.6C33.9823 18.1467 33.969 17.7333 33.9156 17.36C33.889 16.96 33.7956 16.7333 33.6356 16.68C33.3156 16.4933 32.929 16.44 32.4756 16.52C32.0223 16.5733 31.529 16.8267 30.9956 17.28C30.169 17.9733 29.449 18.84 28.8356 19.88C28.2223 20.8933 27.6223 22.0533 27.0356 23.36C26.6356 24.32 26.5423 25.0933 26.7556 25.68C26.9956 26.24 27.489 26.44 28.2356 26.28C29.009 26.0933 29.969 25.3867 31.1156 24.16ZM52.7772 27.16C52.2439 27.16 51.8039 27.0533 51.4572 26.84C51.1105 26.6 50.8172 26.2133 50.5772 25.68C50.4705 25.3067 50.3772 24.8933 50.2972 24.44C50.2439 23.96 50.2172 23.52 50.2172 23.12C50.2172 22.6933 50.2572 22.4133 50.3372 22.28C50.4439 22.1733 50.4839 21.9867 50.4572 21.72C50.4572 21.4267 50.4572 21.12 50.4572 20.8C50.4305 20.2667 50.2972 19.9733 50.0572 19.92C49.8439 19.84 49.5239 19.92 49.0972 20.16C48.6172 20.4533 47.9905 20.8533 47.2172 21.36C46.4439 21.84 45.6305 22.3733 44.7772 22.96C43.9505 23.5467 43.1639 24.16 42.4172 24.8C41.8305 25.44 41.4705 25.9333 41.3372 26.28C41.2305 26.6 41.0705 26.76 40.8572 26.76C40.6439 26.8667 40.4572 26.88 40.2972 26.8C40.1639 26.6933 39.9639 26.5333 39.6972 26.32C39.5105 26.1067 39.3239 25.9067 39.1372 25.72C38.9505 25.5067 38.8305 25.3467 38.7772 25.24C38.7772 25.1067 38.8172 24.8267 38.8972 24.4C38.9772 23.9733 39.0705 23.5467 39.1772 23.12C39.3105 22.6933 39.4039 22.4133 39.4572 22.28C39.5905 22.28 39.6972 22.1467 39.7772 21.88C39.8839 21.6133 40.0439 21.32 40.2572 21C40.3105 20.68 40.4439 20.2533 40.6572 19.72C40.8972 19.16 41.1105 18.6667 41.2972 18.24C41.6705 17.6 41.9239 17.0667 42.0572 16.64C42.2172 16.2133 42.3239 15.68 42.3772 15.04C42.3505 14.9333 42.3772 14.84 42.4572 14.76C42.5372 14.6533 42.6305 14.6 42.7372 14.6C42.9505 14.3867 43.2039 14.3333 43.4972 14.44C43.7905 14.52 44.0572 14.72 44.2972 15.04C44.7772 15.68 44.9639 16.3467 44.8572 17.04C44.7772 17.7067 44.3505 18.6667 43.5772 19.92C43.3905 20.3467 43.2439 20.68 43.1372 20.92C43.0572 21.1333 43.0172 21.3067 43.0172 21.44C43.0172 21.44 43.1505 21.3467 43.4172 21.16C43.7105 20.9733 44.0305 20.76 44.3772 20.52C44.7505 20.2533 45.0439 20.0533 45.2572 19.92C45.3905 19.7867 45.6972 19.5467 46.1772 19.2C46.6572 18.8533 47.1639 18.52 47.6972 18.2C48.2572 17.8533 48.6705 17.6533 48.9372 17.6C49.1505 17.4933 49.3772 17.4 49.6172 17.32C49.8572 17.2133 50.0305 17.16 50.1372 17.16C50.3505 17.16 50.6172 17.28 50.9372 17.52C51.2839 17.7333 51.6039 18 51.8972 18.32C52.1905 18.6133 52.3639 18.8667 52.4172 19.08C52.4172 19.1867 52.4172 19.2933 52.4172 19.4C52.4439 19.5067 52.4705 19.6133 52.4972 19.72C52.6039 20.0667 52.6572 20.5333 52.6572 21.12C52.6839 21.7067 52.6705 22.24 52.6172 22.72C52.5639 23.2 52.4705 23.48 52.3372 23.56C52.3372 23.56 52.3372 23.6 52.3372 23.68C52.3639 23.7333 52.4305 23.76 52.5372 23.76C52.5372 23.8667 52.5372 23.9333 52.5372 23.96C52.4039 23.96 52.3505 24.08 52.3772 24.32C52.4039 24.5333 52.4839 24.7733 52.6172 25.04C52.7772 25.3067 52.9372 25.52 53.0972 25.68C53.4172 26 53.5505 26.3067 53.4972 26.6C53.4439 26.8667 53.2039 27.0533 52.7772 27.16ZM61.225 11.2C60.9583 11.2267 60.785 11.2267 60.705 11.2C60.625 11.1733 60.4917 11.08 60.305 10.92C60.2783 10.7333 60.305 10.56 60.385 10.4C60.465 10.24 60.5717 10.0667 60.705 9.88C61.025 9.34667 61.385 8.72 61.785 8C62.2117 7.25333 62.4917 6.68 62.625 6.28C62.625 6.17333 62.6383 6.08 62.665 6C62.2117 6.08 61.745 5.92 61.265 5.52C60.7583 5.04 60.585 4.56 60.745 4.08C60.9317 3.57333 61.3717 3.08 62.065 2.6C62.545 2.30667 62.8917 2.14667 63.105 2.12C63.345 2.09333 63.705 2.18667 64.185 2.4C64.6383 2.66667 64.945 2.97333 65.105 3.32C65.2917 3.64 65.3183 3.97333 65.185 4.32C65.105 4.93333 64.9583 5.50667 64.745 6.04C64.5583 6.57333 64.385 7.09333 64.225 7.6C64.065 8.18667 63.7983 8.73333 63.425 9.24C63.0517 9.74667 62.6383 10.2667 62.185 10.8C62.2117 10.9067 62.1317 10.9733 61.945 11C61.7583 11.0267 61.5183 11.0933 61.225 11.2ZM64.4725 28.72C64.1792 28.6667 63.8725 28.52 63.5525 28.28C63.2592 28.0133 62.9925 27.72 62.7525 27.4C62.5392 27.0533 62.3925 26.7467 62.3125 26.48C62.3125 26.4267 62.2725 26.36 62.1925 26.28C62.1392 26.2 62.1125 26.16 62.1125 26.16C62.0058 26.08 61.9392 25.7333 61.9125 25.12C61.9125 24.48 61.9525 23.7733 62.0325 23C62.1125 22.2267 62.2058 21.6133 62.3125 21.16C62.4458 20.7333 62.6458 20.16 62.9125 19.44C63.1792 18.6933 63.4058 18.0267 63.5925 17.44L64.6725 15.12L63.0725 14.68C62.8858 14.6267 62.7258 14.52 62.5925 14.36C62.4858 14.2 62.4325 14.0667 62.4325 13.96C62.4325 13.7467 62.5525 13.4933 62.7925 13.2C63.0325 12.88 63.2058 12.72 63.3125 12.72C63.4458 12.7467 63.6858 12.76 64.0325 12.76C64.4058 12.76 64.7658 12.7467 65.1125 12.72C65.4592 12.6933 65.6725 12.6667 65.7525 12.64C65.8592 12.5867 65.9658 12.52 66.0725 12.44C66.1792 12.3333 66.2592 12.1867 66.3125 12C66.4458 11.7067 66.5658 11.44 66.6725 11.2C66.7792 10.9333 66.9258 10.64 67.1125 10.32C67.2992 9.97333 67.4458 9.68 67.5525 9.44C67.6858 9.2 67.8858 8.86667 68.1525 8.44C68.2858 8.25333 68.4325 8.02667 68.5925 7.76C68.7525 7.49333 68.9525 7.26667 69.1925 7.08C69.4325 6.86666 69.6725 6.77333 69.9125 6.8C70.1792 6.8 70.5125 6.97333 70.9125 7.32C71.1258 7.58667 71.2458 7.78667 71.2725 7.92C71.2992 8.05333 71.1925 8.30667 70.9525 8.68C70.7392 9.13333 70.4858 9.58667 70.1925 10.04C69.9258 10.4933 69.6725 10.9467 69.4325 11.4C69.0058 11.9867 68.9258 12.32 69.1925 12.4C69.4592 12.48 70.2058 12.4267 71.4325 12.24C72.2058 12.1067 72.7658 12.1467 73.1125 12.36C73.4592 12.5467 73.6592 12.8667 73.7125 13.32C73.7925 13.96 73.7258 14.3467 73.5125 14.48C73.2992 14.6133 72.6858 14.68 71.6725 14.68C71.0325 14.7867 70.4858 14.8533 70.0325 14.88C69.5792 14.88 69.2458 14.88 69.0325 14.88C68.6858 14.9067 68.4592 14.92 68.3525 14.92C68.2458 14.92 68.0858 14.9467 67.8725 15C67.6592 15.0533 67.4992 15.1467 67.3925 15.28C67.3125 15.3867 67.2192 15.5467 67.1125 15.76C67.0058 15.8667 66.8458 16.1467 66.6325 16.6C66.4192 17.0533 66.1525 17.5467 65.8325 18.08C65.4592 19.2 65.1392 20.32 64.8725 21.44C64.6058 22.5333 64.3925 23.6 64.2325 24.64C64.1258 25.3067 64.1392 25.7733 64.2725 26.04C64.4058 26.28 64.7525 26.4267 65.3125 26.48C65.6058 26.5067 66.0725 26.5067 66.7125 26.48C67.3792 26.4267 67.8992 26.3467 68.2725 26.24C68.5658 26.1067 68.8725 25.9733 69.1925 25.84C69.5125 25.68 69.8058 25.52 70.0725 25.36C70.3125 25.2267 70.5525 25.0933 70.7925 24.96C71.0325 24.8 71.1525 24.72 71.1525 24.72C71.2858 24.5067 71.4325 24.44 71.5925 24.52C71.7525 24.6 71.8858 24.8 71.9925 25.12C71.9925 25.44 71.9258 25.7733 71.7925 26.12C71.6592 26.4667 71.1658 26.88 70.3125 27.36C69.1125 28.1067 68.0058 28.56 66.9925 28.72C66.0058 28.8533 65.1658 28.8533 64.4725 28.72ZM106.682 30.92C106.656 31.08 106.496 31.12 106.202 31.04C105.936 30.9867 105.696 30.8 105.482 30.48C105.269 29.9733 105.162 29.5067 105.162 29.08C105.162 28.6533 105.176 28.0133 105.202 27.16C105.362 26.2267 105.576 25.0133 105.842 23.52C106.136 22 106.469 20.3067 106.842 18.44C107.242 16.5467 107.669 14.5733 108.122 12.52C108.442 11.4533 108.696 10.48 108.882 9.6C109.096 8.69333 109.256 7.96 109.362 7.4C109.469 6.84 109.522 6.56 109.522 6.56C109.522 6.48 109.442 6.52 109.282 6.68C109.149 6.81333 109.016 6.97333 108.882 7.16C108.749 7.34667 108.696 7.49333 108.722 7.6C108.722 7.6 108.629 7.73333 108.442 8C108.256 8.26666 108.016 8.62667 107.722 9.08C107.456 9.34667 107.136 9.88 106.762 10.68C106.389 11.48 105.976 12.2267 105.522 12.92C105.096 13.72 104.642 14.5867 104.162 15.52C103.682 16.4267 103.256 17.1867 102.882 17.8C102.642 18.1467 102.402 18.5467 102.162 19C101.922 19.4533 101.776 19.7467 101.722 19.88C101.616 20.1733 101.429 20.5333 101.162 20.96C100.896 21.36 100.602 21.76 100.282 22.16C100.122 22.4 99.9622 22.6533 99.8022 22.92C99.6422 23.16 99.5089 23.3733 99.4022 23.56C99.3222 23.72 99.2822 23.8 99.2822 23.8C99.2822 23.88 99.1489 24.12 98.8822 24.52C98.6422 24.92 98.3355 25.36 97.9622 25.84C97.6155 26.32 97.2822 26.7333 96.9622 27.08C96.0289 28.0667 95.2822 28.6533 94.7222 28.84C94.1622 29 93.5355 28.76 92.8422 28.12C92.4955 27.6933 92.2422 27.2133 92.0822 26.68C91.9222 26.12 91.8555 25.44 91.8822 24.64C91.9089 23.8133 92.0022 22.7867 92.1622 21.56C92.3489 20.6267 92.5222 19.6933 92.6822 18.76C92.8422 17.8 92.9889 16.9067 93.1222 16.08C93.2822 15.2267 93.4155 14.5067 93.5222 13.92C93.6555 13.3333 93.7622 12.9467 93.8422 12.76C93.8955 12.2267 93.8822 11.9333 93.8022 11.88C93.7222 11.8267 93.5622 11.9867 93.3222 12.36C93.2155 12.5467 92.9355 13.0133 92.4822 13.76C92.0289 14.48 91.4955 15.3733 90.8822 16.44C90.2955 17.5067 89.7089 18.6667 89.1222 19.92C88.0289 21.9467 87.1222 23.6267 86.4022 24.96C85.7089 26.2667 85.1489 27.3067 84.7222 28.08C84.3222 28.8533 84.0289 29.4267 83.8422 29.8C83.6555 30.1733 83.5222 30.4267 83.4422 30.56C83.3622 30.6933 83.2955 30.7867 83.2422 30.84C83.0022 30.84 82.7489 30.7333 82.4822 30.52C82.2422 30.3333 81.9889 30.1067 81.7222 29.84C81.6422 29.6533 81.6022 29.4667 81.6022 29.28C81.6289 29.0933 81.7222 28.8267 81.8822 28.48C82.0422 28.1067 82.2822 27.5467 82.6022 26.8C82.9489 26.1067 83.2689 25.5067 83.5622 25C83.8555 24.4667 84.0822 24.1467 84.2422 24.04C84.3755 23.8267 84.4955 23.6133 84.6022 23.4C84.7089 23.1867 84.7755 22.9333 84.8022 22.64C84.9355 22.48 85.1355 22.16 85.4022 21.68C85.6955 21.1733 85.9889 20.6267 86.2822 20.04C86.4955 19.6933 86.7622 19.24 87.0822 18.68C87.4289 18.12 87.7889 17.5067 88.1622 16.84C88.5355 16.1467 88.8689 15.4933 89.1622 14.88C90.3889 12.7733 91.4289 11 92.2822 9.56C93.1355 8.09333 93.7755 7.16 94.2022 6.76C94.3355 6.62666 94.4689 6.44 94.6022 6.2C94.7622 5.96 94.8422 5.74666 94.8422 5.56C94.8422 5 94.9489 4.49333 95.1622 4.04C95.4022 3.56 95.6422 3.34667 95.8822 3.4C96.1489 3.4 96.3889 3.42667 96.6022 3.48C96.8155 3.53333 97.0422 3.70667 97.2822 4C97.4955 4.32 97.6822 4.64 97.8422 4.96C98.0022 5.28 97.9889 5.92 97.8022 6.88C97.8022 7.25333 97.7622 7.68 97.6822 8.16C97.6022 8.61333 97.5222 9.04 97.4422 9.44C97.3889 9.81333 97.3489 10.1067 97.3222 10.32C96.9755 11.36 96.6555 12.5333 96.3622 13.84C96.0689 15.12 95.8022 16.4267 95.5622 17.76C95.3222 19.0667 95.1222 20.2933 94.9622 21.44C94.8022 22.56 94.6955 23.4933 94.6422 24.24C94.6155 24.96 94.6422 25.3733 94.7222 25.48C94.9089 25.5867 95.0689 25.6 95.2022 25.52C95.3355 25.44 95.5622 25.0933 95.8822 24.48C96.0689 24.16 96.3222 23.7733 96.6422 23.32C96.9889 22.84 97.3222 22.4 97.6422 22C97.8555 21.6267 98.1889 21.0667 98.6422 20.32C99.0955 19.5733 99.6689 18.6133 100.362 17.44C101.082 16.2667 101.936 14.84 102.922 13.16C103.936 11.4533 105.082 9.48 106.362 7.24C106.976 6.30666 107.549 5.4 108.082 4.52C108.642 3.61333 109.096 3.02667 109.442 2.76C109.816 2.41333 110.202 2.33333 110.602 2.52C111.002 2.68 111.349 3.02667 111.642 3.56C111.962 4.09333 112.136 4.76 112.162 5.56C112.189 5.93333 112.136 6.53333 112.002 7.36C111.896 8.18667 111.722 9.13333 111.482 10.2C111.242 11.24 110.936 12.32 110.562 13.44C110.482 13.8933 110.349 14.4667 110.162 15.16C110.002 15.8267 109.816 16.52 109.602 17.24C109.389 17.96 109.176 18.64 108.962 19.28C108.829 20.16 108.669 21.0267 108.482 21.88C108.322 22.7333 108.269 23.3067 108.322 23.6C108.082 24.0267 107.922 24.64 107.842 25.44C107.762 26.24 107.722 27.0667 107.722 27.92C107.616 28.96 107.536 29.6933 107.482 30.12C107.429 30.5467 107.336 30.7467 107.202 30.72C106.856 30.6133 106.682 30.68 106.682 30.92ZM113.862 27.72C113.649 27.5067 113.489 27.24 113.382 26.92C113.302 26.6 113.275 26.28 113.302 25.96C113.329 25.64 113.395 25.3733 113.502 25.16C113.502 24.9467 113.529 24.7867 113.582 24.68C113.662 24.5467 113.689 24.4267 113.662 24.32C113.635 24.2133 113.662 24.0267 113.742 23.76C113.822 23.4933 113.902 23.24 113.982 23C114.169 22.5733 114.369 22.0667 114.582 21.48C114.795 20.8667 114.995 20.2667 115.182 19.68C115.369 19.0933 115.529 18.5867 115.662 18.16C115.795 17.7333 115.875 17.4667 115.902 17.36C115.902 17.04 116.115 16.8667 116.542 16.84C116.862 16.7333 117.102 16.7333 117.262 16.84C117.422 16.92 117.635 17.1733 117.902 17.6C118.115 17.8133 118.195 18.1333 118.142 18.56C118.089 18.9867 117.915 19.52 117.622 20.16C117.515 20.3733 117.382 20.68 117.222 21.08C117.089 21.48 116.995 21.84 116.942 22.16C116.835 22.3733 116.702 22.68 116.542 23.08C116.409 23.4533 116.289 23.8133 116.182 24.16C116.129 24.2933 116.075 24.4933 116.022 24.76C115.969 25 115.902 25.2667 115.822 25.56C115.742 25.8267 115.635 26.0667 115.502 26.28C115.262 27.3733 115.035 28.0133 114.822 28.2C114.635 28.3867 114.315 28.2267 113.862 27.72ZM117.742 11.48C117.609 11.3467 117.489 11.16 117.382 10.92C117.275 10.6533 117.209 10.4133 117.182 10.2C117.155 9.96 117.182 9.84 117.262 9.84C117.475 9.81333 117.729 9.58667 118.022 9.16C118.315 8.73333 118.435 8.36 118.382 8.04C118.382 7.93333 118.422 7.84 118.502 7.76C118.582 7.65333 118.675 7.58667 118.782 7.56C119.102 7.34667 119.409 7.32 119.702 7.48C120.022 7.61333 120.315 7.89333 120.582 8.32C120.822 8.82667 120.889 9.25333 120.782 9.6C120.675 9.92 120.382 10.3733 119.902 10.96C119.502 11.4933 119.129 11.7867 118.782 11.84C118.462 11.8933 118.115 11.7733 117.742 11.48ZM124.683 28.64C124.016 28.6933 123.376 28.6533 122.763 28.52C122.176 28.3867 121.669 28.16 121.243 27.84C120.843 27.4933 120.563 27.08 120.403 26.6C120.216 26.2267 120.123 25.9733 120.123 25.84C120.123 25.68 120.216 25.5467 120.403 25.44C120.616 25.44 120.803 25.5067 120.963 25.64C121.149 25.7467 121.389 25.8667 121.683 26C122.083 26.3467 122.563 26.5333 123.123 26.56C123.709 26.5867 124.243 26.4933 124.723 26.28C125.203 26.0667 125.469 25.8 125.523 25.48C125.523 25.3733 125.483 25.1867 125.403 24.92C125.323 24.6533 125.229 24.3733 125.123 24.08C124.403 23.0667 123.869 22.0667 123.523 21.08C123.203 20.0667 123.043 19.24 123.043 18.6C123.043 18.12 123.189 17.6133 123.483 17.08C123.776 16.52 124.176 16.0533 124.683 15.68C125.163 15.1733 125.696 14.72 126.283 14.32C126.869 13.92 127.456 13.5733 128.043 13.28C128.656 12.9867 129.203 12.7733 129.683 12.64C129.976 12.64 130.363 12.68 130.843 12.76C131.323 12.84 131.656 12.9333 131.843 13.04C132.136 13.1467 132.416 13.44 132.683 13.92C132.949 14.3733 133.083 14.8267 133.083 15.28C133.083 15.4667 133.029 15.7067 132.923 16C132.816 16.2933 132.643 16.64 132.403 17.04C132.296 17.3333 132.176 17.6133 132.043 17.88C131.909 18.12 131.843 18.2933 131.843 18.4C131.709 18.6933 131.523 18.84 131.283 18.84C131.069 18.8133 130.843 18.6933 130.603 18.48C130.389 18.24 130.216 17.96 130.083 17.64C129.976 17.24 129.936 16.92 129.963 16.68C129.989 16.4133 130.096 16.1333 130.283 15.84C130.576 15.5467 130.723 15.3467 130.723 15.24C130.723 15.1333 130.576 15.08 130.283 15.08C130.096 15.08 129.749 15.2 129.243 15.44C128.763 15.6533 128.243 15.9467 127.683 16.32C127.149 16.6667 126.683 17.04 126.283 17.44C125.776 17.92 125.469 18.2667 125.363 18.48C125.283 18.6933 125.243 19.0267 125.243 19.48C125.243 19.8533 125.323 20.32 125.483 20.88C125.669 21.44 125.856 21.8133 126.043 22C126.043 22 126.136 22.1867 126.323 22.56C126.509 22.9067 126.736 23.28 127.003 23.68C127.776 25.3867 127.976 26.6133 127.603 27.36C127.229 28.1067 126.256 28.5333 124.683 28.64ZM138.196 28.44C136.862 28.44 135.889 27.96 135.276 27C135.089 26.7333 134.996 26.4667 134.996 26.2C135.022 25.9067 135.102 25.7067 135.236 25.6C135.396 25.4933 135.582 25.5867 135.796 25.88C136.169 26.0933 136.702 26.2 137.396 26.2C137.742 26.2 138.102 26.1733 138.476 26.12C138.849 26.04 139.222 25.9333 139.596 25.8C139.996 25.6133 140.262 25.4533 140.396 25.32C140.529 25.16 140.502 25.0267 140.316 24.92H140.356C139.662 24.7333 138.956 24.44 138.236 24.04C137.542 23.6133 136.942 23.16 136.436 22.68C135.929 22.1733 135.636 21.72 135.556 21.32C135.342 20.4933 135.396 19.6533 135.716 18.8C136.036 17.92 136.489 17.1467 137.076 16.48C137.289 16.3467 137.556 16.1867 137.876 16C138.196 15.7867 138.449 15.6667 138.636 15.64V15.68C139.142 15.1467 139.756 14.72 140.476 14.4C141.222 14.08 142.009 13.7867 142.836 13.52L143.436 13.44C143.756 13.3867 144.022 13.36 144.236 13.36C144.209 13.36 144.262 13.3867 144.396 13.44C144.529 13.4667 144.649 13.4933 144.756 13.52C144.916 13.6 145.049 13.64 145.156 13.64C145.502 13.6933 145.822 13.8533 146.116 14.12C146.409 14.3867 146.636 14.7067 146.796 15.08C146.982 15.4267 147.049 15.76 146.996 16.08C146.942 16.5867 146.782 17.04 146.516 17.44C146.276 17.84 145.982 18.0667 145.636 18.12C145.689 18.0933 145.649 18.0533 145.516 18C145.409 17.92 145.289 17.84 145.156 17.76L145.036 17.84C145.036 17.84 145.022 17.8133 144.996 17.76C144.996 17.68 144.969 17.5867 144.916 17.48C144.836 17.32 144.796 17.1467 144.796 16.96C144.796 16.7467 144.809 16.52 144.836 16.28C144.889 15.9867 144.889 15.8133 144.836 15.76C144.809 15.7067 144.636 15.6667 144.316 15.64C143.942 15.56 143.396 15.6267 142.676 15.84C141.982 16.0533 141.396 16.3467 140.916 16.72C140.329 17.0933 139.836 17.4533 139.436 17.8C139.036 18.12 138.716 18.44 138.476 18.76C138.236 19.0533 138.022 19.4 137.836 19.8C137.702 19.9867 137.582 20.1733 137.476 20.36C137.396 20.52 137.356 20.6667 137.356 20.8C137.356 21.0933 137.569 21.4 137.996 21.72C138.449 22.0133 139.116 22.36 139.996 22.76C140.689 23.0533 141.276 23.3733 141.756 23.72C142.236 24.0667 142.569 24.4667 142.756 24.92C142.809 25.0267 142.822 25.16 142.796 25.32C142.796 25.4533 142.769 25.5467 142.716 25.6C142.769 25.6533 142.796 25.6933 142.796 25.72V25.68C143.009 26 143.009 26.3333 142.796 26.68C142.609 27.0267 142.276 27.3333 141.796 27.6C141.342 27.84 140.782 28.0267 140.116 28.16H140.156C139.809 28.2667 139.462 28.3467 139.116 28.4C138.796 28.4267 138.489 28.44 138.196 28.44ZM162.036 27.48C161.476 27.5867 161.116 27.6267 160.956 27.6C160.823 27.5467 160.609 27.3867 160.316 27.12C159.889 26.9067 159.529 26.64 159.236 26.32C158.969 26 158.769 25.6667 158.636 25.32C158.529 24.9467 158.489 24.64 158.516 24.4C158.596 23.4667 158.823 22.4667 159.196 21.4C159.569 20.3333 160.023 19.3067 160.556 18.32C161.089 17.3333 161.663 16.4933 162.276 15.8C162.916 15.08 163.529 14.6133 164.116 14.4C164.649 14.1867 165.156 14.1067 165.636 14.16C166.116 14.2133 166.463 14.4667 166.676 14.92C167.076 15.6933 166.983 16.1867 166.396 16.4C166.316 16.4 166.223 16.44 166.116 16.52C166.009 16.5733 165.956 16.6533 165.956 16.76C166.063 16.8133 166.356 16.8267 166.836 16.8C167.316 16.7467 167.796 16.6667 168.276 16.56C168.783 16.4267 169.116 16.2933 169.276 16.16C169.436 16.08 169.556 16.04 169.636 16.04C169.716 16.04 169.916 16.0667 170.236 16.12C170.689 16.2533 170.916 16.4133 170.916 16.6C170.916 16.7067 170.956 16.8133 171.036 16.92C171.116 17 171.209 17.04 171.316 17.04C171.503 17.0667 171.476 17.1867 171.236 17.4C171.023 17.6133 170.649 17.9067 170.116 18.28C169.609 18.6 169.289 18.8133 169.156 18.92C169.049 19 169.036 19.1867 169.116 19.48C169.329 19.9867 169.343 20.5733 169.156 21.24C168.969 21.9067 168.636 22.5867 168.156 23.28C167.676 23.9733 167.089 24.6267 166.396 25.24C165.729 25.8267 165.009 26.3333 164.236 26.76C163.489 27.16 162.756 27.4 162.036 27.48ZM161.356 25.72C161.463 25.72 161.649 25.6667 161.916 25.56C162.183 25.4267 162.396 25.32 162.556 25.24C162.663 25.1333 162.796 25.0133 162.956 24.88C163.143 24.72 163.289 24.6267 163.396 24.6C163.503 24.6 163.636 24.56 163.796 24.48C163.956 24.3733 164.183 24.1733 164.476 23.88C164.769 23.56 165.156 23.0933 165.636 22.48C166.169 21.8933 166.583 21.36 166.876 20.88C167.169 20.3733 167.249 19.9067 167.116 19.48C167.089 19.3733 167.009 19.3067 166.876 19.28C166.769 19.2533 166.623 19.1867 166.436 19.08C166.169 19.08 165.916 19.0133 165.676 18.88C165.463 18.72 165.209 18.52 164.916 18.28L164.276 17.48L163.596 18.16C163.169 18.5867 162.716 19.2267 162.236 20.08C161.783 20.9067 161.396 21.76 161.076 22.64C160.756 23.4933 160.569 24.1733 160.516 24.68C160.489 25.08 160.556 25.3467 160.716 25.48C160.876 25.6133 161.089 25.6933 161.356 25.72ZM174.738 26.96C174.231 26.5067 173.844 26.04 173.578 25.56C173.338 25.08 173.151 24.32 173.018 23.28C172.964 22.8 173.018 22.1733 173.178 21.4C173.338 20.6 173.564 19.76 173.858 18.88C174.151 18 174.484 17.2 174.858 16.48C175.231 15.7333 175.604 15.1733 175.978 14.8C176.298 14.4 176.551 14.1867 176.738 14.16C176.951 14.1067 177.324 14.2 177.858 14.44C178.151 14.7867 178.298 15.16 178.298 15.56C178.298 15.96 178.138 16.4133 177.818 16.92C177.284 17.64 176.818 18.5467 176.418 19.64C176.044 20.7067 175.791 21.6667 175.658 22.52C175.391 23.4267 175.271 24.04 175.298 24.36C175.324 24.68 175.564 24.8933 176.018 25C176.524 25.1067 177.124 24.92 177.818 24.44C178.511 23.9333 179.191 23.24 179.858 22.36C180.524 21.4533 181.058 20.4667 181.458 19.4C181.618 19.0267 181.738 18.5867 181.818 18.08C181.924 17.5733 182.031 17.2 182.138 16.96C182.271 16.4267 182.458 16.04 182.698 15.8C182.938 15.5333 183.191 15.3867 183.458 15.36C183.724 15.3067 183.951 15.36 184.138 15.52C184.378 15.6267 184.524 15.76 184.578 15.92C184.631 16.0533 184.631 16.4267 184.578 17.04C184.578 18.0267 184.364 18.8667 183.938 19.56C183.511 20.2533 183.151 20.9867 182.858 21.76C182.618 22.32 182.258 22.9467 181.778 23.64C181.324 24.3333 180.818 24.96 180.258 25.52C179.724 26.08 179.204 26.4667 178.698 26.68C177.951 27.16 177.284 27.4 176.698 27.4C176.138 27.3733 175.484 27.2267 174.738 26.96ZM187.502 27.6C187.262 27.4133 187.089 27.2267 186.982 27.04C186.902 26.8533 186.902 26.4933 186.982 25.96C187.062 25.2133 187.169 24.56 187.302 24C187.436 23.4133 187.596 22.7467 187.782 22C187.836 21.68 187.982 21.1333 188.222 20.36C188.489 19.5867 188.809 18.7467 189.182 17.84C189.556 16.9333 189.929 16.08 190.302 15.28C190.676 14.4533 190.996 13.84 191.262 13.44C191.476 13.28 191.729 13.2133 192.022 13.24C192.342 13.2667 192.609 13.3867 192.822 13.6C193.116 13.84 193.156 14.2667 192.942 14.88C192.756 15.4667 192.356 16.4 191.742 17.68C191.422 18.4 191.182 18.9467 191.022 19.32C190.862 19.6667 190.796 19.88 190.822 19.96C190.849 20.0133 190.969 19.9733 191.182 19.84C191.342 19.5467 191.636 19.2133 192.062 18.84C192.489 18.44 192.942 18.0533 193.422 17.68C193.902 17.3067 194.356 16.9733 194.782 16.68C195.209 16.3867 195.502 16.2 195.662 16.12C195.876 15.9867 196.116 15.88 196.382 15.8C196.676 15.6933 196.876 15.6133 196.982 15.56C197.596 15.2667 198.222 15.16 198.862 15.24C199.502 15.32 199.902 15.56 200.062 15.96C200.089 16.1733 200.169 16.3333 200.302 16.44C200.462 16.5467 200.542 16.6 200.542 16.6C200.649 16.6 200.702 16.64 200.702 16.72C200.729 16.8 200.742 16.84 200.742 16.84C200.742 17.0267 200.596 17.1467 200.302 17.2C200.036 17.2267 199.689 17.2533 199.262 17.28C198.916 17.3067 198.609 17.3733 198.342 17.48C198.076 17.5867 197.756 17.72 197.382 17.88C196.369 18.4667 195.396 19.04 194.462 19.6C193.556 20.16 192.676 20.9067 191.822 21.84C191.636 22.0533 191.449 22.3067 191.262 22.6C191.076 22.8933 190.876 23.2133 190.662 23.56C190.529 23.6933 190.396 23.9867 190.262 24.44C190.129 24.8933 190.009 25.3333 189.902 25.76C189.822 26.16 189.782 26.4 189.782 26.48C189.782 26.48 189.742 26.6133 189.662 26.88C189.582 27.12 189.449 27.36 189.262 27.6C188.942 28.0267 188.676 28.24 188.462 28.24C188.249 28.24 187.929 28.0267 187.502 27.6ZM220.404 28.92C220.137 28.6533 219.87 28.2933 219.604 27.84C219.337 27.36 219.124 26.8133 218.964 26.2C218.91 25.9867 218.884 25.6933 218.884 25.32C218.91 24.9467 218.91 24.68 218.884 24.52C218.804 24.7067 218.67 24.9067 218.484 25.12C218.324 25.3067 218.164 25.4667 218.004 25.6C217.897 25.7067 217.657 25.92 217.284 26.24C216.91 26.5333 216.537 26.7733 216.164 26.96C215.284 27.52 214.55 27.8267 213.964 27.88C213.404 27.9333 212.87 27.64 212.364 27C211.937 26.6533 211.63 26.2667 211.444 25.84C211.284 25.4133 211.284 24.8267 211.444 24.08C211.497 23.1467 211.63 22.24 211.844 21.36C212.057 20.4533 212.497 19.2533 213.164 17.76C213.724 16.6667 214.15 15.8667 214.444 15.36C214.737 14.8267 214.924 14.5067 215.004 14.4C215.404 14.2667 215.737 14.28 216.004 14.44C216.27 14.5733 216.43 14.8267 216.484 15.2C216.644 15.4667 216.617 15.92 216.404 16.56C216.217 17.2 215.884 17.9867 215.404 18.92C215.03 19.8267 214.684 20.7333 214.364 21.64C214.07 22.5467 213.897 23.32 213.844 23.96C213.79 24.6 213.95 24.9867 214.324 25.12C214.564 25.2533 214.977 25.2133 215.564 25C216.177 24.7867 216.857 24.2533 217.604 23.4C218.377 22.5467 219.124 21.2533 219.844 19.52C220.057 18.9867 220.217 18.52 220.324 18.12C220.43 17.6933 220.497 17.2267 220.524 16.72C220.47 16.4 220.484 16.12 220.564 15.88C220.67 15.6133 220.884 15.3867 221.204 15.2C221.31 15.0667 221.457 14.9467 221.644 14.84C221.83 14.7067 221.95 14.7067 222.004 14.84L222.644 14.8C222.75 14.7733 222.817 14.84 222.844 15C222.897 15.1333 222.99 15.2533 223.124 15.36C223.417 15.6 223.497 16.12 223.364 16.92C223.23 17.72 222.857 18.84 222.244 20.28C221.737 21.3733 221.39 22.2 221.204 22.76C221.044 23.32 220.95 23.8667 220.924 24.4C220.924 24.88 221.017 25.3333 221.204 25.76C221.39 26.1867 221.684 26.5733 222.084 26.92C222.377 27.1067 222.537 27.32 222.564 27.56C222.617 27.8 222.63 28.08 222.604 28.4C222.55 28.64 222.39 28.84 222.124 29C221.884 29.1333 221.604 29.2 221.284 29.2C220.964 29.2 220.67 29.1067 220.404 28.92ZM225.808 36C225.488 36.2133 225.155 36.2 224.808 35.96C224.488 35.72 224.248 35.36 224.088 34.88C223.928 34.4 223.942 33.8933 224.128 33.36C224.182 33.2 224.262 32.9333 224.368 32.56C224.475 32.2133 224.542 31.9067 224.568 31.64C224.595 31.4533 224.675 31.1333 224.808 30.68C224.942 30.2533 225.088 29.8267 225.248 29.4C225.435 28.9733 225.582 28.6667 225.688 28.48C225.848 28.2133 225.955 27.9067 226.008 27.56C226.088 27.2133 226.128 26.9467 226.128 26.76C226.182 26.5733 226.248 26.36 226.328 26.12C226.435 25.88 226.542 25.6933 226.648 25.56C226.702 25.3467 226.782 25.12 226.888 24.88C226.995 24.6133 227.115 24.3867 227.248 24.2C227.302 24.0133 227.342 23.7867 227.368 23.52C227.422 23.2533 227.502 23.1067 227.608 23.08C227.635 22.9733 227.648 22.8667 227.648 22.76C227.675 22.6533 227.728 22.5067 227.808 22.32C227.862 22.0267 227.982 21.6 228.168 21.04C228.355 20.48 228.582 19.8667 228.848 19.2C229.142 18.4267 229.275 17.6933 229.248 17C229.248 16.28 229.048 15.84 228.648 15.68C228.435 15.5733 228.302 15.4267 228.248 15.24C228.195 15.0267 228.222 14.8133 228.328 14.6C228.435 14.3867 228.595 14.24 228.808 14.16C229.048 14.0533 229.302 14.0133 229.568 14.04C229.862 14.0667 230.115 14.12 230.328 14.2C230.542 14.2533 230.635 14.3067 230.608 14.36C230.608 14.4933 230.675 14.5733 230.808 14.6C230.862 14.52 230.968 14.6133 231.128 14.88C231.315 15.12 231.488 15.4 231.648 15.72C231.808 16.04 231.888 16.2667 231.888 16.4C231.835 16.5067 231.808 16.5733 231.808 16.6C231.808 16.6 231.862 16.6 231.968 16.6C231.968 16.6 232.115 16.5333 232.408 16.4C232.702 16.24 233.008 16.0667 233.328 15.88C233.675 15.6667 233.902 15.5067 234.008 15.4C234.008 15.4 234.075 15.3733 234.208 15.32C234.368 15.24 234.502 15.1467 234.608 15.04C235.142 14.8267 235.715 14.7867 236.328 14.92C236.968 15.0533 237.475 15.2933 237.848 15.64C238.382 16.3067 238.648 16.9467 238.648 17.56C238.675 18.1733 238.502 18.9467 238.128 19.88C238.075 20.0133 237.955 20.24 237.768 20.56C237.608 20.8533 237.448 21.1333 237.288 21.4C237.128 21.64 237.048 21.76 237.048 21.76C236.435 22.72 235.715 23.52 234.888 24.16C234.062 24.8 233.222 25.36 232.368 25.84C232.102 26.0267 231.822 26.1733 231.528 26.28C231.262 26.36 231.022 26.4133 230.808 26.44C230.595 26.44 230.448 26.4133 230.368 26.36C230.075 26.1467 229.808 25.6933 229.568 25C229.435 25.3467 229.302 25.6933 229.168 26.04C229.062 26.36 228.995 26.5733 228.968 26.68C228.942 26.8667 228.915 27.0267 228.888 27.16C228.862 27.2667 228.795 27.36 228.688 27.44C228.688 27.44 228.675 27.4933 228.648 27.6C228.622 27.7067 228.528 27.8667 228.368 28.08C228.102 28.8533 227.862 29.52 227.648 30.08C227.435 30.6667 227.262 31.16 227.128 31.56C226.995 31.9867 226.888 32.36 226.808 32.68C226.755 33.4 226.608 34.1067 226.368 34.8C226.128 35.52 225.942 35.92 225.808 36ZM230.568 24.6C230.675 24.5467 230.902 24.4 231.248 24.16C231.622 23.8933 232.035 23.5867 232.488 23.24C232.942 22.8667 233.355 22.52 233.728 22.2C234.128 21.88 234.395 21.64 234.528 21.48C234.742 21.24 234.942 20.9867 235.128 20.72C235.315 20.4267 235.462 20.1067 235.568 19.76C235.648 19.5467 235.742 19.3067 235.848 19.04C235.955 18.7733 236.048 18.52 236.128 18.28C236.235 18.0667 236.275 17.8533 236.248 17.64C236.248 17.4 236.168 17.2 236.008 17.04C235.902 17.0133 235.582 17.0933 235.048 17.28C234.515 17.44 233.928 17.72 233.288 18.12C232.648 18.4933 232.088 18.9867 231.608 19.6C231.048 20.32 230.635 21.0667 230.368 21.84C230.128 22.6133 230.022 23.2667 230.048 23.8C230.102 24.3333 230.275 24.6 230.568 24.6ZM249.686 28.88C249.392 28.9867 249.179 29.0267 249.046 29C248.939 28.9467 248.659 28.7467 248.206 28.4C248.019 28.08 247.899 27.8 247.846 27.56C247.819 27.2933 247.806 26.8267 247.806 26.16C247.859 25.76 247.966 25.1867 248.126 24.44C248.312 23.6933 248.526 22.9067 248.766 22.08C249.006 21.2533 249.219 20.5067 249.406 19.84C249.619 19.1733 249.779 18.72 249.886 18.48C250.072 17.84 250.112 17.4533 250.006 17.32C249.899 17.16 249.579 17.0533 249.046 17C247.979 16.8667 247.019 17.2133 246.166 18.04C245.312 18.8667 244.459 19.9467 243.606 21.28C242.966 22.2667 242.579 23.12 242.446 23.84C242.339 24.5333 242.326 25.0133 242.406 25.28C242.486 25.4933 242.672 25.6133 242.966 25.64C243.259 25.64 243.579 25.5733 243.926 25.44C244.299 25.3067 244.619 25.1733 244.886 25.04C245.072 24.9333 245.299 24.8267 245.566 24.72C245.859 24.5867 246.139 24.4667 246.406 24.36C246.566 24.36 246.672 24.4133 246.726 24.52C246.806 24.6 246.846 24.7733 246.846 25.04C246.846 25.1467 246.886 25.24 246.966 25.32C247.046 25.4 247.139 25.4667 247.246 25.52C247.352 25.6267 247.192 25.8667 246.766 26.24C246.366 26.6133 245.739 27.04 244.886 27.52C244.086 27.7067 243.432 27.8 242.926 27.8C242.446 27.8 241.979 27.6267 241.526 27.28C240.779 26.8267 240.352 26.0933 240.246 25.08C240.166 24.04 240.379 22.7733 240.886 21.28C241.392 20.08 241.952 19.1067 242.566 18.36C243.179 17.5867 243.832 16.84 244.526 16.12C244.632 16.0133 244.872 15.8533 245.246 15.64C245.646 15.4 246.139 15.1867 246.726 15C247.392 14.7867 248.019 14.6533 248.606 14.6C249.192 14.5467 249.699 14.6667 250.126 14.96C250.606 15.0667 250.912 15.0533 251.046 14.92C251.179 14.76 251.406 14.28 251.726 13.48C252.259 12.1467 252.779 10.8 253.286 9.44C253.792 8.05333 254.339 6.65333 254.926 5.24C255.192 4.73333 255.352 4.34667 255.406 4.08C255.486 3.78667 255.579 3.58667 255.686 3.48H256.446C256.552 3.48 256.739 3.57333 257.006 3.76C257.272 3.94667 257.459 4.2 257.566 4.52C257.566 4.76 257.459 5.29333 257.246 6.12C257.032 6.92 256.686 7.88 256.206 9C255.779 9.98667 255.352 10.9867 254.926 12C254.526 12.9867 254.139 14.04 253.766 15.16C253.472 15.9867 253.206 16.6533 252.966 17.16C252.726 17.6667 252.566 18.1067 252.486 18.48C252.326 19.1733 252.126 19.8 251.886 20.36C251.672 20.8933 251.526 21.2667 251.446 21.48C251.099 22.4933 250.819 23.32 250.606 23.96C250.392 24.5733 250.232 25.0933 250.126 25.52C250.019 25.92 249.952 26.3333 249.926 26.76C249.926 27.16 249.966 27.64 250.046 28.2C250.046 28.3067 250.032 28.4133 250.006 28.52C249.979 28.6267 249.872 28.7467 249.686 28.88ZM259.869 27.84C259.655 27.8933 259.375 27.92 259.029 27.92C258.682 27.8933 258.375 27.8533 258.109 27.8C257.869 27.72 257.749 27.64 257.749 27.56C257.749 27.4267 257.682 27.36 257.549 27.36C257.549 27.36 257.482 27.3067 257.349 27.2C257.242 27.0933 257.069 26.9867 256.829 26.88C256.589 26.5067 256.469 26.1067 256.469 25.68C256.469 25.2267 256.589 24.52 256.829 23.56C256.909 22.8933 257.162 22.12 257.589 21.24C258.042 20.3333 258.589 19.4133 259.229 18.48C259.869 17.5467 260.535 16.7067 261.229 15.96C261.949 15.2133 262.602 14.6667 263.189 14.32C263.562 13.9467 264.015 13.7467 264.549 13.72C265.082 13.6933 265.589 13.8133 266.069 14.08C266.335 14.2133 266.602 14.4267 266.869 14.72C267.135 15.0133 267.389 15.3333 267.629 15.68C267.869 16.0267 268.069 16.3733 268.229 16.72C268.309 17.0133 268.349 17.28 268.349 17.52C268.375 17.7333 268.375 18 268.349 18.32C268.349 18.64 268.309 19.12 268.229 19.76C268.095 20.24 267.975 20.8267 267.869 21.52C267.789 22.2133 267.749 22.8133 267.749 23.32C267.695 23.8267 267.749 24.1867 267.909 24.4C268.095 24.6133 268.362 24.6267 268.709 24.44C269.029 24.28 269.335 24.2133 269.629 24.24C269.922 24.24 270.149 24.32 270.309 24.48C270.495 24.64 270.589 24.88 270.589 25.2C270.589 25.52 270.429 25.8533 270.109 26.2C269.815 26.52 269.442 26.8 268.989 27.04C268.562 27.2533 268.149 27.36 267.749 27.36C267.455 27.36 267.175 27.1867 266.909 26.84C266.642 26.4667 266.402 26.0267 266.189 25.52C266.002 24.9867 265.829 24.48 265.669 24L265.429 23.08L263.709 24.72C263.362 25.0933 263.015 25.44 262.669 25.76C262.349 26.0533 262.149 26.2667 262.069 26.4C261.935 26.64 261.682 26.88 261.309 27.12C260.962 27.36 260.482 27.6 259.869 27.84ZM259.989 25.48C260.442 25.2133 260.962 24.8267 261.549 24.32C262.135 23.7867 262.709 23.2133 263.269 22.6C263.829 21.96 264.295 21.3733 264.669 20.84C265.122 20.2267 265.469 19.6533 265.709 19.12C265.949 18.5867 266.122 18.08 266.229 17.6C266.122 17.3067 265.949 17 265.709 16.68C265.469 16.3333 265.255 16.1467 265.069 16.12C264.482 16.12 263.855 16.4933 263.189 17.24C262.549 17.96 261.922 18.7467 261.309 19.6C261.202 19.7333 261.055 19.9467 260.869 20.24C260.682 20.5333 260.495 20.8133 260.309 21.08C260.149 21.32 260.042 21.48 259.989 21.56C259.909 21.6667 259.749 21.9733 259.509 22.48C259.295 22.96 259.082 23.4533 258.869 23.96C258.655 24.44 258.549 24.76 258.549 24.92C258.549 25.08 258.562 25.2533 258.589 25.44C258.642 25.6267 258.775 25.7467 258.989 25.8C259.202 25.8533 259.535 25.7467 259.989 25.48ZM275.683 28.72C275.39 28.6667 275.083 28.52 274.763 28.28C274.47 28.0133 274.203 27.72 273.963 27.4C273.75 27.0533 273.603 26.7467 273.523 26.48C273.523 26.4267 273.483 26.36 273.403 26.28C273.35 26.2 273.323 26.16 273.323 26.16C273.217 26.08 273.15 25.7333 273.123 25.12C273.123 24.48 273.163 23.7733 273.243 23C273.323 22.2267 273.417 21.6133 273.523 21.16C273.657 20.7333 273.857 20.16 274.123 19.44C274.39 18.6933 274.617 18.0267 274.803 17.44L275.883 15.12L274.283 14.68C274.097 14.6267 273.937 14.52 273.803 14.36C273.697 14.2 273.643 14.0667 273.643 13.96C273.643 13.7467 273.763 13.4933 274.003 13.2C274.243 12.88 274.417 12.72 274.523 12.72C274.657 12.7467 274.897 12.76 275.243 12.76C275.617 12.76 275.977 12.7467 276.323 12.72C276.67 12.6933 276.883 12.6667 276.963 12.64C277.07 12.5867 277.177 12.52 277.283 12.44C277.39 12.3333 277.47 12.1867 277.523 12C277.657 11.7067 277.777 11.44 277.883 11.2C277.99 10.9333 278.137 10.64 278.323 10.32C278.51 9.97333 278.657 9.68 278.763 9.44C278.897 9.2 279.097 8.86667 279.363 8.44C279.497 8.25333 279.643 8.02667 279.803 7.76C279.963 7.49333 280.163 7.26667 280.403 7.08C280.643 6.86666 280.883 6.77333 281.123 6.8C281.39 6.8 281.723 6.97333 282.123 7.32C282.337 7.58667 282.457 7.78667 282.483 7.92C282.51 8.05333 282.403 8.30667 282.163 8.68C281.95 9.13333 281.697 9.58667 281.403 10.04C281.137 10.4933 280.883 10.9467 280.643 11.4C280.217 11.9867 280.137 12.32 280.403 12.4C280.67 12.48 281.417 12.4267 282.643 12.24C283.417 12.1067 283.977 12.1467 284.323 12.36C284.67 12.5467 284.87 12.8667 284.923 13.32C285.003 13.96 284.937 14.3467 284.723 14.48C284.51 14.6133 283.897 14.68 282.883 14.68C282.243 14.7867 281.697 14.8533 281.243 14.88C280.79 14.88 280.457 14.88 280.243 14.88C279.897 14.9067 279.67 14.92 279.563 14.92C279.457 14.92 279.297 14.9467 279.083 15C278.87 15.0533 278.71 15.1467 278.603 15.28C278.523 15.3867 278.43 15.5467 278.323 15.76C278.217 15.8667 278.057 16.1467 277.843 16.6C277.63 17.0533 277.363 17.5467 277.043 18.08C276.67 19.2 276.35 20.32 276.083 21.44C275.817 22.5333 275.603 23.6 275.443 24.64C275.337 25.3067 275.35 25.7733 275.483 26.04C275.617 26.28 275.963 26.4267 276.523 26.48C276.817 26.5067 277.283 26.5067 277.923 26.48C278.59 26.4267 279.11 26.3467 279.483 26.24C279.777 26.1067 280.083 25.9733 280.403 25.84C280.723 25.68 281.017 25.52 281.283 25.36C281.523 25.2267 281.763 25.0933 282.003 24.96C282.243 24.8 282.363 24.72 282.363 24.72C282.497 24.5067 282.643 24.44 282.803 24.52C282.963 24.6 283.097 24.8 283.203 25.12C283.203 25.44 283.137 25.7733 283.003 26.12C282.87 26.4667 282.377 26.88 281.523 27.36C280.323 28.1067 279.217 28.56 278.203 28.72C277.217 28.8533 276.377 28.8533 275.683 28.72ZM288.566 28.04C287.526 27.6133 286.846 27.0267 286.526 26.28C286.232 25.5067 286.179 24.32 286.366 22.72C286.419 21.8933 286.446 21.3467 286.446 21.08C286.446 20.8133 286.299 20.5467 286.006 20.28C285.926 20.1733 285.779 20.0267 285.566 19.84C285.379 19.6533 285.299 19.4933 285.326 19.36C285.299 19.1733 285.312 18.9733 285.366 18.76C285.419 18.52 285.499 18.4 285.606 18.4C285.712 18.4 285.819 18.3733 285.926 18.32C286.059 18.2667 286.179 18.2667 286.286 18.32C286.392 18.32 286.512 18.3333 286.646 18.36C286.779 18.3867 286.846 18.4533 286.846 18.56C286.952 18.7467 287.126 18.7733 287.366 18.64C287.606 18.48 287.859 18.1333 288.126 17.6C288.392 17.1733 288.739 16.7467 289.166 16.32C289.619 15.8933 290.059 15.5067 290.486 15.16C290.939 14.7867 291.312 14.52 291.606 14.36C291.739 14.3067 291.939 14.24 292.206 14.16C292.472 14.08 292.752 14.0133 293.046 13.96C293.366 13.9067 293.632 13.8933 293.846 13.92C294.326 13.9467 294.726 14.08 295.046 14.32C295.392 14.56 295.712 14.84 296.006 15.16C296.352 15.4 296.566 15.72 296.646 16.12C296.752 16.52 296.779 16.9467 296.726 17.4C296.672 17.8533 296.552 18.2667 296.366 18.64C296.286 18.9067 296.059 19.2267 295.686 19.6C295.312 19.9733 294.886 20.3333 294.406 20.68C293.926 21.0267 293.486 21.28 293.086 21.44C292.739 21.52 292.286 21.5867 291.726 21.64C291.192 21.6933 290.686 21.72 290.206 21.72C289.752 21.6933 289.446 21.64 289.286 21.56C289.099 21.4533 288.952 21.6 288.846 22C288.739 22.4 288.659 22.9733 288.606 23.72C288.552 24.3067 288.552 24.7333 288.606 25C288.659 25.2667 288.712 25.4533 288.766 25.56C288.952 25.7467 289.206 25.9867 289.526 26.28C289.872 26.5467 290.352 26.5867 290.966 26.4C291.472 26.2667 291.966 25.92 292.446 25.36C292.952 24.8 293.419 24.3467 293.846 24C293.952 23.8133 294.126 23.7067 294.366 23.68C294.632 23.6267 294.912 23.64 295.206 23.72C295.499 23.9067 295.619 24.1333 295.566 24.4C295.539 24.64 295.406 25.0133 295.166 25.52C295.086 25.7067 294.899 25.9467 294.606 26.24C294.339 26.5067 294.032 26.7867 293.686 27.08C293.366 27.3467 293.072 27.56 292.806 27.72C292.006 28.1467 291.259 28.3733 290.566 28.4C289.872 28.4 289.206 28.28 288.566 28.04ZM290.926 19.92C291.512 19.7867 291.979 19.6933 292.326 19.64C292.672 19.5867 293.006 19.44 293.326 19.2C293.646 18.9333 294.046 18.44 294.526 17.72C294.632 17.4267 294.659 17.1333 294.606 16.84C294.579 16.5467 294.512 16.3467 294.406 16.24C294.166 15.9733 293.872 15.8933 293.526 16C293.206 16.08 292.899 16.2267 292.606 16.44C292.419 16.52 292.139 16.72 291.766 17.04C291.419 17.3333 291.072 17.68 290.726 18.08C290.379 18.4533 290.099 18.8 289.886 19.12C289.672 19.44 289.619 19.6267 289.726 19.68C289.672 19.7867 289.819 19.8533 290.166 19.88C290.539 19.9067 290.792 19.92 290.926 19.92ZM302.573 28.64C301.907 28.6933 301.267 28.6533 300.653 28.52C300.067 28.3867 299.56 28.16 299.133 27.84C298.733 27.4933 298.453 27.08 298.293 26.6C298.107 26.2267 298.013 25.9733 298.013 25.84C298.013 25.68 298.107 25.5467 298.293 25.44C298.507 25.44 298.693 25.5067 298.853 25.64C299.04 25.7467 299.28 25.8667 299.573 26C299.973 26.3467 300.453 26.5333 301.013 26.56C301.6 26.5867 302.133 26.4933 302.613 26.28C303.093 26.0667 303.36 25.8 303.413 25.48C303.413 25.3733 303.373 25.1867 303.293 24.92C303.213 24.6533 303.12 24.3733 303.013 24.08C302.293 23.0667 301.76 22.0667 301.413 21.08C301.093 20.0667 300.933 19.24 300.933 18.6C300.933 18.12 301.08 17.6133 301.373 17.08C301.667 16.52 302.067 16.0533 302.573 15.68C303.053 15.1733 303.587 14.72 304.173 14.32C304.76 13.92 305.347 13.5733 305.933 13.28C306.547 12.9867 307.093 12.7733 307.573 12.64C307.867 12.64 308.253 12.68 308.733 12.76C309.213 12.84 309.547 12.9333 309.733 13.04C310.027 13.1467 310.307 13.44 310.573 13.92C310.84 14.3733 310.973 14.8267 310.973 15.28C310.973 15.4667 310.92 15.7067 310.813 16C310.707 16.2933 310.533 16.64 310.293 17.04C310.187 17.3333 310.067 17.6133 309.933 17.88C309.8 18.12 309.733 18.2933 309.733 18.4C309.6 18.6933 309.413 18.84 309.173 18.84C308.96 18.8133 308.733 18.6933 308.493 18.48C308.28 18.24 308.107 17.96 307.973 17.64C307.867 17.24 307.827 16.92 307.853 16.68C307.88 16.4133 307.987 16.1333 308.173 15.84C308.467 15.5467 308.613 15.3467 308.613 15.24C308.613 15.1333 308.467 15.08 308.173 15.08C307.987 15.08 307.64 15.2 307.133 15.44C306.653 15.6533 306.133 15.9467 305.573 16.32C305.04 16.6667 304.573 17.04 304.173 17.44C303.667 17.92 303.36 18.2667 303.253 18.48C303.173 18.6933 303.133 19.0267 303.133 19.48C303.133 19.8533 303.213 20.32 303.373 20.88C303.56 21.44 303.747 21.8133 303.933 22C303.933 22 304.027 22.1867 304.213 22.56C304.4 22.9067 304.627 23.28 304.893 23.68C305.667 25.3867 305.867 26.6133 305.493 27.36C305.12 28.1067 304.147 28.5333 302.573 28.64Z" fill="#0044F2"/>
</svg>
