<svg width="410" height="904" viewBox="0 0 410 904" fill="none" xmlns="http://www.w3.org/2000/svg">
<path d="M714.5 452C714.5 573.694 609.599 672.5 480 672.5C350.401 672.5 245.5 573.694 245.5 452C245.5 330.306 350.401 231.5 480 231.5C609.599 231.5 714.5 330.306 714.5 452Z" stroke="#DADADA" stroke-width="3"/>
<path d="M843.5 452C843.5 641.075 680.84 794.5 480 794.5C279.16 794.5 116.5 641.075 116.5 452C116.5 262.925 279.16 109.5 480 109.5C680.84 109.5 843.5 262.925 843.5 452Z" stroke="#DADADA" stroke-width="3"/>
<path d="M958.5 452C958.5 700.721 744.354 902.5 480 902.5C215.646 902.5 1.5 700.721 1.5 452C1.5 203.279 215.646 1.5 480 1.5C744.354 1.5 958.5 203.279 958.5 452Z" stroke="#DADADA" stroke-width="3"/>
</svg>
